<svg width="18" height="19" viewBox="0 0 18 19" fill="none" xmlns="http://www.w3.org/2000/svg">
<g clip-path="url(#clip0_482_17522)">
<mask id="mask0_482_17522" style="mask-type:luminance" maskUnits="userSpaceOnUse" x="0" y="0" width="18" height="19">
<path d="M0 0.696779H18V18.6968H0V0.696779Z" fill="white"/>
</mask>
<g mask="url(#mask0_482_17522)">
<path fill-rule="evenodd" clip-rule="evenodd" d="M7.22048 18.051C7.30753 18.4044 7.62454 18.6528 7.98855 18.6528H10.0202C10.3842 18.6528 10.7013 18.4044 10.7883 18.051L11.2422 16.2079C11.5109 16.1158 11.7724 16.0077 12.0254 15.8841L13.6256 16.8443C13.9369 17.031 14.3353 16.982 14.5919 16.7253L16.0286 15.2886C16.2852 15.032 16.3343 14.6336 16.1475 14.3223L15.1874 12.7222C15.3109 12.4691 15.419 12.2077 15.5111 11.939L17.3542 11.4851C17.7076 11.398 17.9561 11.081 17.9561 10.717V8.68532C17.9561 8.32132 17.7076 8.0043 17.3542 7.91726L15.5111 7.46334C15.419 7.19466 15.3109 6.93322 15.1874 6.68016L16.1475 5.07994C16.3343 4.76869 16.2852 4.37028 16.0285 4.11362L14.5919 2.67704C14.3353 2.42039 13.9369 2.37135 13.6256 2.55809L12.0254 3.51821C11.7724 3.39468 11.5109 3.28655 11.2422 3.19447L10.7883 1.35137C10.7013 0.997925 10.3842 0.749512 10.0202 0.749512H7.98855C7.62454 0.749512 7.30753 0.997925 7.22048 1.35137L6.76657 3.19447C6.49786 3.28655 6.23644 3.39468 5.98341 3.51821L4.38315 2.55809C4.07191 2.37135 3.67352 2.42039 3.41686 2.67704L1.98025 4.11362C1.72358 4.37028 1.67453 4.76869 1.86128 5.07994L2.82143 6.68016C2.69789 6.93322 2.58979 7.19466 2.49773 7.46334L0.654595 7.91726C0.301149 8.0043 0.0527344 8.32132 0.0527344 8.68532V10.717C0.0527344 11.081 0.301143 11.398 0.654584 11.4851L2.49773 11.939C2.58979 12.2077 2.69789 12.4691 2.82142 12.7222L1.86129 14.3223C1.67454 14.6336 1.72358 15.032 1.98023 15.2886L3.41685 16.7253C3.6735 16.982 4.07191 17.031 4.38316 16.8443L5.98335 15.8841C6.23643 16.0077 6.49787 16.1158 6.76656 16.2079L7.22048 18.051ZM8.60839 17.0708L8.19532 15.3936C8.12635 15.1135 7.91041 14.8932 7.63179 14.8186C7.17813 14.6972 6.75044 14.5196 6.35575 14.2912C6.1068 14.1472 5.79928 14.1496 5.55265 14.2976L4.09881 15.1699L3.53562 14.6067L4.40796 13.1529C4.55595 12.9062 4.55839 12.5987 4.41433 12.3497C4.186 11.9551 4.0084 11.5275 3.887 11.0738C3.81243 10.7952 3.59211 10.5793 3.31204 10.5103L1.63477 10.0972V9.30517L3.31203 8.8921C3.5921 8.82313 3.81243 8.60716 3.887 8.32852C4.0084 7.87489 4.186 7.44723 4.41434 7.05259C4.55839 6.80363 4.55594 6.4961 4.40796 6.24946L3.53562 4.79558L4.0988 4.23242L5.55273 5.10475C5.79935 5.25271 6.10684 5.25516 6.35578 5.11115C6.7506 4.88276 7.17822 4.70508 7.6317 4.58376C7.91036 4.5092 8.12634 4.28887 8.19532 4.00877L8.60839 2.33154H9.4004L9.81347 4.00877C9.88245 4.28887 10.0984 4.5092 10.3771 4.58376C10.8306 4.70508 11.2582 4.88276 11.653 5.11115C11.9019 5.25516 12.2094 5.25271 12.4561 5.10475L13.91 4.23242L14.4732 4.79558L13.6008 6.24946C13.4528 6.4961 13.4504 6.80363 13.5944 7.05259C13.8228 7.44723 14.0004 7.8749 14.1218 8.32857C14.1964 8.60719 14.4167 8.82313 14.6968 8.8921L16.374 9.30517V10.0972L14.6968 10.5103C14.4167 10.5793 14.1964 10.7952 14.1218 11.0738C14.0004 11.5274 13.8228 11.9551 13.5945 12.3497C13.4504 12.5987 13.4528 12.9062 13.6008 13.1529L14.4732 14.6067L13.91 15.1699L12.4561 14.2976C12.2095 14.1496 11.902 14.1472 11.653 14.2912C11.2583 14.5196 10.8307 14.6972 10.377 14.8186C10.0984 14.8932 9.88244 15.1135 9.81347 15.3936L9.4004 17.0708H8.60839Z" fill="#21347D"/>
<path fill-rule="evenodd" clip-rule="evenodd" d="M5.16016 9.69691C5.16016 11.8152 6.88207 13.5371 9.00036 13.5371C11.1186 13.5371 12.8406 11.8152 12.8406 9.69691C12.8406 7.57862 11.1186 5.85671 9.00036 5.85671C6.88207 5.85671 5.16016 7.57862 5.16016 9.69691ZM9.00036 11.9551C7.7558 11.9551 6.74219 10.9415 6.74219 9.69691C6.74219 8.45235 7.7558 7.43874 9.00036 7.43874C10.2449 7.43874 11.2585 8.45235 11.2585 9.69691C11.2585 10.9415 10.2449 11.9551 9.00036 11.9551Z" fill="#21347D"/>
</g>
</g>
<defs>
<clipPath id="clip0_482_17522">
<rect width="18" height="18" fill="white" transform="translate(0 0.696777)"/>
</clipPath>
</defs>
</svg>
