<svg width="18" height="19" viewBox="0 0 18 19" fill="none" xmlns="http://www.w3.org/2000/svg">
<g clip-path="url(#clip0_482_17454)">
<path d="M15.75 2H9.177L6.177 0.5H2.25C1.0095 0.5 0 1.5095 0 2.75V17H8.30925C8.04 16.5357 7.83375 16.0325 7.6965 15.5H1.5V6.5H16.5V8.80925C17.0655 9.137 17.571 9.55325 18 10.0407V4.25C18 3.0095 16.9905 2 15.75 2ZM1.5 5V2.75C1.5 2.33675 1.836 2 2.25 2H5.823L8.823 3.5H15.75C16.164 3.5 16.5 3.83675 16.5 4.25V5H1.5ZM17.025 11.1042L15.9667 11.714C15.513 11.225 14.922 10.8695 14.2493 10.7157V9.5H12.7493V10.7157C12.0773 10.8695 11.4855 11.225 11.0317 11.714L9.9735 11.1042L9.225 12.4032L10.287 13.0153C10.1902 13.3288 10.1235 13.655 10.1235 14C10.1235 14.345 10.1902 14.6712 10.287 14.9847L9.225 15.5968L9.9735 16.8958L11.0317 16.286C11.4855 16.775 12.0765 17.1305 12.7493 17.2843V18.5H14.2493V17.2843C14.9213 17.1305 15.513 16.775 15.9667 16.286L17.025 16.8958L17.7735 15.5968L16.7115 14.9847C16.8083 14.6712 16.875 14.345 16.875 14C16.875 13.655 16.8083 13.3288 16.7115 13.0153L17.7735 12.4032L17.025 11.1042ZM13.5 15.875C12.4657 15.875 11.625 15.0343 11.625 14C11.625 12.9657 12.4657 12.125 13.5 12.125C14.5343 12.125 15.375 12.9657 15.375 14C15.375 15.0343 14.5343 15.875 13.5 15.875Z" fill="#21347D"/>
</g>
<defs>
<clipPath id="clip0_482_17454">
<rect width="18" height="18" fill="white" transform="translate(0 0.5)"/>
</clipPath>
</defs>
</svg>
