<svg width="18" height="19" viewBox="0 0 18 19" fill="none" xmlns="http://www.w3.org/2000/svg">
<g clip-path="url(#clip0_482_17510)">
<path d="M13.8135 7.26337C14.3947 7.84462 14.3947 8.79112 13.8135 9.37237L11.3393 11.8466L10.2787 10.7861L12.7523 8.31187L10.2787 5.84962L11.3393 4.78912L13.8135 7.26337ZM6.66 4.78912L4.18575 7.26337C3.60525 7.84462 3.60525 8.79112 4.18575 9.37237L6.65925 11.8466L7.71975 10.7861L5.24625 8.32387L7.71975 5.84962L6.65925 4.78912H6.66ZM9.75 15.0679V16.5679H13.5V18.0679H4.5V16.5679H8.25V15.0679H0V3.81787C0 2.57737 1.0095 1.56787 2.25 1.56787H15.75C16.9905 1.56787 18 2.57737 18 3.81787V15.0679H9.75ZM1.5 13.5679H16.5V3.81787C16.5 3.40387 16.1632 3.06787 15.75 3.06787H2.25C1.83675 3.06787 1.5 3.40387 1.5 3.81787V13.5679Z" fill="#21347D"/>
</g>
<defs>
<clipPath id="clip0_482_17510">
<rect width="18" height="18" fill="white" transform="translate(0 0.817871)"/>
</clipPath>
</defs>
</svg>
