<svg width="18" height="19" viewBox="0 0 18 19" fill="none" xmlns="http://www.w3.org/2000/svg">
<g clip-path="url(#clip0_482_17500)">
<path d="M1.40945 4.78001L0.220703 3.59126L1.2812 2.53076L2.4707 3.71951C2.61348 3.85603 2.80341 3.93223 3.00095 3.93223C3.1985 3.93223 3.38843 3.85603 3.5312 3.71951L6.2207 1.03076L7.2812 2.09126L4.5917 4.78001C4.38277 4.98898 4.13471 5.15475 3.8617 5.26785C3.5887 5.38095 3.29608 5.43916 3.00058 5.43916C2.70507 5.43916 2.41246 5.38095 2.13945 5.26785C1.86645 5.15475 1.61839 4.98898 1.40945 4.78001ZM9.00095 4.68926H18.001V3.18926H9.00095V4.68926ZM3.00095 11.4393C3.29654 11.4401 3.58935 11.3823 3.86241 11.2691C4.13548 11.1559 4.38336 10.9897 4.5917 10.78L7.2812 8.09126L6.2207 7.03076L3.5312 9.71951C3.38843 9.85604 3.1985 9.93223 3.00095 9.93223C2.80341 9.93223 2.61348 9.85604 2.4707 9.71951L1.2812 8.53076L0.220703 9.59126L1.40945 10.78C1.61798 10.9896 1.86601 11.1559 2.13918 11.269C2.41236 11.3822 2.70527 11.44 3.00095 11.4393ZM9.00095 10.6893H18.001V9.18926H9.00095V10.6893ZM3.00095 17.4393C3.29654 17.4401 3.58935 17.3823 3.86241 17.2691C4.13548 17.1559 4.38336 16.9897 4.5917 16.78L7.2812 14.0913L6.2207 13.0308L3.5312 15.7195C3.38843 15.856 3.1985 15.9322 3.00095 15.9322C2.80341 15.9322 2.61348 15.856 2.4707 15.7195L1.2812 14.5308L0.220703 15.5913L1.40945 16.78C1.61798 16.9896 1.86601 17.1559 2.13918 17.269C2.41236 17.3822 2.70527 17.44 3.00095 17.4393ZM9.00095 16.6893H18.001V15.1893H9.00095V16.6893Z" fill="#21347D"/>
</g>
<defs>
<clipPath id="clip0_482_17500">
<rect width="18" height="18" fill="white" transform="translate(0 0.939453)"/>
</clipPath>
</defs>
</svg>
