<svg width="24" height="24" viewBox="0 0 24 24" fill="none" xmlns="http://www.w3.org/2000/svg">
<g clip-path="url(#clip0_1011_41443)">
<circle cx="8" cy="11" r="7" fill="#B8DDFF"/>
<path d="M17 12H13V10H17V12ZM17 15H11V17H17V15ZM21 21V2H15.829C15.416 0.836 14.304 0 13 0H11C9.696 0 8.584 0.836 8.171 2H3V21C3 22.654 4.346 24 6 24H18C19.654 24 21 22.654 21 21ZM10 4V3C10 2.449 10.449 2 11 2H13C13.551 2 14 2.449 14 3V4H19V21C19 21.551 18.551 22 18 22H6C5.449 22 5 21.551 5 21V4H10ZM9 15H7V17H9V15ZM9.838 11.519L12.597 8.817L11.198 7.388L8.665 9.868L7.424 8.676L6.038 10.118L7.488 11.511C7.814 11.837 8.242 11.999 8.669 11.999C9.094 11.999 9.517 11.838 9.837 11.518L9.838 11.519Z" fill="#21347D"/>
</g>
<defs>
<clipPath id="clip0_1011_41443">
<rect width="24" height="24" fill="white"/>
</clipPath>
</defs>
</svg>
