<svg width="24" height="24" viewBox="0 0 24 24" fill="none" xmlns="http://www.w3.org/2000/svg">
<g clip-path="url(#clip0_264_4299)">
<circle cx="5.5" cy="11.5" r="5.5" fill="#B8DDFF"/>
<path d="M1.87797 5.12107L0.292969 3.53607L1.70697 2.12207L3.29297 3.70707C3.48334 3.8891 3.73658 3.99069 3.99997 3.99069C4.26336 3.99069 4.5166 3.8891 4.70697 3.70707L8.29297 0.12207L9.70697 1.53607L6.12097 5.12107C5.84239 5.3997 5.51165 5.62072 5.14764 5.77152C4.78363 5.92232 4.39348 5.99993 3.99947 5.99993C3.60546 5.99993 3.21531 5.92232 2.8513 5.77152C2.48729 5.62072 2.15655 5.3997 1.87797 5.12107ZM12 5.00007H24V3.00007H12V5.00007ZM3.99997 14.0001C4.39408 14.0012 4.7845 13.9241 5.14858 13.7732C5.51267 13.6223 5.84318 13.4006 6.12097 13.1211L9.70697 9.53607L8.29297 8.12207L4.70697 11.7071C4.5166 11.8891 4.26336 11.9907 3.99997 11.9907C3.73658 11.9907 3.48334 11.8891 3.29297 11.7071L1.70697 10.1221L0.292969 11.5361L1.87797 13.1211C2.156 13.4006 2.48671 13.6222 2.85094 13.7731C3.21518 13.924 3.60572 14.0011 3.99997 14.0001ZM12 13.0001H24V11.0001H12V13.0001ZM3.99997 22.0001C4.39408 22.0012 4.7845 21.9241 5.14858 21.7732C5.51267 21.6223 5.84318 21.4006 6.12097 21.1211L9.70697 17.5361L8.29297 16.1221L4.70697 19.7071C4.5166 19.8891 4.26336 19.9907 3.99997 19.9907C3.73658 19.9907 3.48334 19.8891 3.29297 19.7071L1.70697 18.1221L0.292969 19.5361L1.87797 21.1211C2.156 21.4006 2.48671 21.6222 2.85094 21.7731C3.21518 21.924 3.60572 22.0011 3.99997 22.0001ZM12 21.0001H24V19.0001H12V21.0001Z" fill="#21347D"/>
</g>
<defs>
<clipPath id="clip0_264_4299">
<rect width="24" height="24" fill="white"/>
</clipPath>
</defs>
</svg>
