<svg width="16" height="16" viewBox="0 0 16 16" fill="none" xmlns="http://www.w3.org/2000/svg">
<g clip-path="url(#clip0_615_17287)">
<path d="M13.5226 1.50809C12.5502 0.535656 11.2549 0 9.87598 0V0.937625C11.0045 0.937625 12.0644 1.37578 12.8597 2.17103C13.6549 2.96628 14.0931 4.02612 14.0931 5.15472H15.0307C15.0307 3.77572 14.495 2.4805 13.5226 1.50809Z" fill="white"/>
<path d="M12.1963 2.83506C11.5777 2.21606 10.7536 1.875 9.87598 1.875V2.81263C10.5032 2.81263 11.0915 3.05619 11.5333 3.498C11.9751 3.93981 12.2187 4.52809 12.2187 5.15534H13.1563C13.1563 4.27769 12.8152 3.45359 12.1963 2.83506Z" fill="white"/>
<path d="M8.5505 7.14423L9.28063 6.41411C9.47035 6.50355 9.67066 6.56086 9.8765 6.56086C10.2368 6.56086 10.5967 6.42395 10.8709 6.14973C11.4194 5.60123 11.4194 4.70939 10.8709 4.16092C10.3224 3.61245 9.43056 3.61242 8.8821 4.16092C8.4511 4.59192 8.37141 5.22939 8.61772 5.75117L7.8876 6.4813L3.90413 2.49805L3.58275 2.94945C1.99822 5.1722 2.11082 8.21173 3.81213 10.315L3.81166 10.3155C5.83588 12.8033 9.47053 13.311 12.0823 11.4491L12.5338 11.1272L8.5505 7.14423Z" fill="white"/>
<path d="M7.47353 15.0629L7.25612 13.3797C5.88803 13.1212 4.62087 12.462 3.62159 11.4824L2.92734 15.0629H0.96875V16.0005H9.40747V15.0629H7.47353Z" fill="white"/>
</g>
<defs>
<clipPath id="clip0_615_17287">
<rect width="16" height="16" fill="white"/>
</clipPath>
</defs>
</svg>
