<svg width="16" height="16" viewBox="0 0 16 16" fill="none" xmlns="http://www.w3.org/2000/svg">
<g clip-path="url(#clip0_615_17247)">
<path d="M8.00061 4.72461C6.85389 4.72461 5.92285 5.65517 5.92285 6.80173C5.92285 7.95133 6.85405 8.87917 8.00061 8.87917C9.14893 8.87917 10.0781 7.95133 10.0781 6.80173C10.0781 5.65517 9.14893 4.72461 8.00061 4.72461Z" fill="white"/>
<path d="M8 0C3.58176 0 0 3.58176 0 8C0 12.4182 3.58176 16 8 16C12.4182 16 16 12.4182 16 8C16 3.58176 12.4182 0 8 0ZM10.6392 8.8296C8.00016 12.5264 8.00016 12.5264 8.00016 12.5264C8.00016 12.5264 8.00016 12.5264 5.36128 8.83008C4.95088 8.25376 4.67184 7.568 4.67184 6.80096C4.67184 4.96496 6.16304 3.47376 8.00016 3.47376C9.83904 3.47376 11.328 4.96496 11.328 6.80096C11.328 7.56592 11.0494 8.2536 10.6392 8.8296Z" fill="white"/>
</g>
<defs>
<clipPath id="clip0_615_17247">
<rect width="16" height="16" fill="white"/>
</clipPath>
</defs>
</svg>
