<svg width="16" height="16" viewBox="0 0 16 16" fill="none" xmlns="http://www.w3.org/2000/svg">
<g clip-path="url(#clip0_615_17266)">
<path d="M13.1602 5.72875V4.61148C13.1572 4.61148 13.1542 4.61133 13.1511 4.61133C13.15 4.61133 13.1488 4.61152 13.1477 4.61152H2.84082V5.72875C2.84082 6.02984 3.08579 6.27481 3.38688 6.27481H12.6142C12.9153 6.27481 13.1602 6.02984 13.1602 5.72875Z" fill="white"/>
<path d="M11.7952 15.5184V7.21289H4.20508V15.5184C4.20508 15.7847 4.42096 16.0005 4.68724 16.0005H5.41255V8.8874C5.41255 8.63503 5.6065 8.41786 5.85859 8.40599C6.12774 8.39331 6.34993 8.60778 6.34993 8.87415V16.0005H7.55744V8.8874C7.55744 8.63503 7.75139 8.41786 8.00348 8.40599C8.27263 8.39331 8.49482 8.60778 8.49482 8.87415V16.0005H9.70233V8.8874C9.70233 8.63503 9.89627 8.41786 10.1484 8.40599C10.4175 8.39331 10.6397 8.60778 10.6397 8.87415V16.0005H11.313C11.5793 16.0005 11.7952 15.7847 11.7952 15.5184Z" fill="white"/>
<path d="M13.2506 3.67226C14.1875 3.62917 14.9553 2.86145 14.9984 1.92448C15.0218 1.41642 14.8419 0.934883 14.4921 0.568523C14.1419 0.201912 13.67 0 13.1632 0H2.87152C1.85262 0 1.01313 0.813117 1.00016 1.81262C0.993723 2.30824 1.18176 2.77528 1.52963 3.12767C1.87758 3.48016 2.34193 3.67426 2.83715 3.67426C3.1703 3.67426 3.49638 3.58433 3.78019 3.41417C4.06443 3.24372 4.10343 2.95797 4.04512 2.74734C3.98604 2.53387 3.80312 2.30581 3.46704 2.30581C3.31181 2.30581 3.16464 2.36505 3.05265 2.47257C2.86593 2.65182 2.56921 2.64583 2.38996 2.45913C2.21066 2.27243 2.2167 1.97572 2.40339 1.79643C2.69082 1.52043 3.06856 1.36842 3.46704 1.36842C4.16626 1.36842 4.76166 1.82208 4.94854 2.49728C5.06262 2.90942 5.00263 3.3289 4.80162 3.67426H11.1674C10.9497 3.31918 10.8905 2.88323 11.0208 2.45266C11.22 1.79403 11.7921 1.36842 12.4781 1.36842C12.8853 1.36842 13.2819 1.53559 13.5662 1.82708C13.7469 2.01237 13.7433 2.30912 13.5579 2.48984C13.3726 2.67057 13.0759 2.66692 12.8952 2.4816C12.7862 2.36989 12.6342 2.30581 12.4782 2.30581C12.1585 2.30581 11.9792 2.52187 11.918 2.72407C11.889 2.81999 11.8197 3.14986 12.1466 3.36758C12.4732 3.58511 12.8549 3.69069 13.2506 3.67226Z" fill="white"/>
</g>
<defs>
<clipPath id="clip0_615_17266">
<rect width="16" height="16" fill="white"/>
</clipPath>
</defs>
</svg>
