<svg width="24" height="24" viewBox="0 0 24 24" fill="none" xmlns="http://www.w3.org/2000/svg">
<g clip-path="url(#clip0_264_4488)">
<circle cx="17" cy="16" r="7" fill="#B8DDFF"/>
<path d="M18.418 8.594C19.193 9.369 19.193 10.631 18.418 11.406L15.119 14.705L13.705 13.291L17.003 9.992L13.705 6.709L15.119 5.295L18.418 8.594ZM8.88 5.295L5.581 8.594C4.807 9.369 4.807 10.631 5.581 11.406L8.879 14.705L10.293 13.291L6.995 10.008L10.293 6.709L8.879 5.295H8.88ZM13 19V21H18V23H6V21H11V19H0V4C0 2.346 1.346 1 3 1H21C22.654 1 24 2.346 24 4V19H13ZM2 17H22V4C22 3.448 21.551 3 21 3H3C2.449 3 2 3.448 2 4V17Z" fill="#222222"/>
</g>
<defs>
<clipPath id="clip0_264_4488">
<rect width="24" height="24" fill="white"/>
</clipPath>
</defs>
</svg>
