<svg width="16" height="16" viewBox="0 0 16 16" fill="none" xmlns="http://www.w3.org/2000/svg">
<g clip-path="url(#clip0_615_17211)">
<path fill-rule="evenodd" clip-rule="evenodd" d="M10.9404 9.05977C10.7813 8.90059 10.521 8.90059 10.362 9.05977L10.0888 9.333L9.5169 8.76109L10.4752 7.73224C11.5299 8.10611 12.7795 8.08737 13.3516 7.51499C14.1841 6.68257 15.3584 4.49832 15.1757 3.66243L13.3882 5.4499C12.3758 6.46232 9.76908 3.90396 10.8056 2.86725L12.593 1.07978C11.7569 0.897009 9.55762 2.05611 8.72519 2.88877C8.15351 3.46045 8.1306 4.70469 8.501 5.75668L7.47123 6.71588L6.18604 5.43069C6.50161 3.68117 8.56625 3.07894 8.29718 2.77401C8.02742 2.46839 6.9486 2.00082 5.65392 2.50425C4.35924 3.00768 3.174 4.00946 3.174 4.00946C3.0014 4.18206 3.28435 5.00453 2.86236 5.17319C1.96561 4.90505 0.53513 6.27029 0 6.80542L2.30178 9.1072C2.85171 8.55726 4.30765 7.11891 3.90994 6.17752C4.32222 6.04009 4.82473 6.79987 5.12712 6.49795L5.43552 6.18978L6.68971 7.44397L0.804893 12.9253C0.247321 13.4447 -0.135807 14.5099 0.793325 15.4392C1.72269 16.3686 2.7911 15.982 3.30726 15.4277L8.78858 9.54284L9.33366 10.0879L9.06043 10.3612C8.90125 10.5203 8.90125 10.7806 9.06043 10.9395L13.8368 15.7159C14.2146 16.0937 14.8328 16.0937 15.2106 15.7159L15.7168 15.2097C16.0946 14.8319 16.0946 14.2137 15.7168 13.8359L10.9404 9.05954V9.05977ZM2.49334 14.6214C2.24972 14.865 1.85456 14.865 1.61094 14.6214C1.36732 14.3778 1.36732 13.9826 1.61094 13.739C1.85456 13.4954 2.24972 13.4954 2.49334 13.739C2.73696 13.9826 2.73696 14.3778 2.49334 14.6214Z" fill="white"/>
</g>
<defs>
<clipPath id="clip0_615_17211">
<rect width="16" height="14.9388" fill="white" transform="translate(0 1.06055)"/>
</clipPath>
</defs>
</svg>
