<svg width="24" height="24" viewBox="0 0 24 24" fill="none" xmlns="http://www.w3.org/2000/svg">
<g clip-path="url(#clip0_264_4098)">
<path d="M12 20V23H15L23 15L22.5 12.5L20 12L12 20Z" fill="#B8DDFF"/>
<path d="M9 12C12.309 12 15 9.309 15 6C15 2.691 12.309 0 9 0C5.691 0 3 2.691 3 6C3 9.309 5.691 12 9 12ZM9 2C11.206 2 13 3.794 13 6C13 8.206 11.206 10 9 10C6.794 10 5 8.206 5 6C5 3.794 6.794 2 9 2ZM10.75 16.22C10.182 16.074 9.593 16 9 16C5.14 16 2 19.14 2 23C2 23.552 1.552 24 1 24C0.448 24 0 23.552 0 23C0 18.038 4.038 14 9 14C9.762 14 10.519 14.095 11.25 14.284C11.785 14.422 12.106 14.967 11.969 15.502C11.832 16.037 11.289 16.358 10.751 16.221L10.75 16.22ZM23.121 11.879C21.987 10.745 20.011 10.745 18.878 11.879L12.171 18.586C11.416 19.341 10.999 20.346 10.999 21.415V23.001C10.999 23.553 11.447 24.001 11.999 24.001H13.585C14.654 24.001 15.658 23.584 16.413 22.829L23.12 16.122C23.687 15.555 23.999 14.802 23.999 14C23.999 13.198 23.687 12.445 23.121 11.879ZM21.706 14.707L14.998 21.414C14.621 21.792 14.119 22 13.584 22H12.998V21.414C12.998 20.88 13.206 20.378 13.584 20L20.292 13.293C20.669 12.915 21.328 12.915 21.706 13.293C21.895 13.481 21.999 13.732 21.999 14C21.999 14.268 21.895 14.518 21.706 14.707Z" fill="#222222"/>
</g>
<defs>
<clipPath id="clip0_264_4098">
<rect width="24" height="24" fill="white"/>
</clipPath>
</defs>
</svg>
