<svg width="16" height="16" viewBox="0 0 16 16" fill="none" xmlns="http://www.w3.org/2000/svg">
<g clip-path="url(#clip0_615_17195)">
<path d="M8.68667 1.24714L1.36 0.133809C1.02 0.0804753 0.673333 0.173809 0.413333 0.393809C0.153333 0.620475 0 0.947142 0 1.28714V15.3338C0 15.7005 0.3 16.0005 0.666667 16.0005H2.83333V12.5005C2.83333 11.8538 3.35333 11.3338 4 11.3338H5.66667C6.31333 11.3338 6.83333 11.8538 6.83333 12.5005V16.0005H9.66667V2.40048C9.66667 1.82714 9.25333 1.34048 8.68667 1.24714ZM3.66667 9.83381H2.66667C2.39067 9.83381 2.16667 9.60981 2.16667 9.33381C2.16667 9.05781 2.39067 8.83381 2.66667 8.83381H3.66667C3.94267 8.83381 4.16667 9.05781 4.16667 9.33381C4.16667 9.60981 3.94267 9.83381 3.66667 9.83381ZM3.66667 7.83381H2.66667C2.39067 7.83381 2.16667 7.60981 2.16667 7.33381C2.16667 7.05781 2.39067 6.83381 2.66667 6.83381H3.66667C3.94267 6.83381 4.16667 7.05781 4.16667 7.33381C4.16667 7.60981 3.94267 7.83381 3.66667 7.83381ZM3.66667 5.83381H2.66667C2.39067 5.83381 2.16667 5.60981 2.16667 5.33381C2.16667 5.05781 2.39067 4.83381 2.66667 4.83381H3.66667C3.94267 4.83381 4.16667 5.05781 4.16667 5.33381C4.16667 5.60981 3.94267 5.83381 3.66667 5.83381ZM3.66667 3.83381H2.66667C2.39067 3.83381 2.16667 3.60981 2.16667 3.33381C2.16667 3.05781 2.39067 2.83381 2.66667 2.83381H3.66667C3.94267 2.83381 4.16667 3.05781 4.16667 3.33381C4.16667 3.60981 3.94267 3.83381 3.66667 3.83381ZM7 9.83381H6C5.724 9.83381 5.5 9.60981 5.5 9.33381C5.5 9.05781 5.724 8.83381 6 8.83381H7C7.276 8.83381 7.5 9.05781 7.5 9.33381C7.5 9.60981 7.276 9.83381 7 9.83381ZM7 7.83381H6C5.724 7.83381 5.5 7.60981 5.5 7.33381C5.5 7.05781 5.724 6.83381 6 6.83381H7C7.276 6.83381 7.5 7.05781 7.5 7.33381C7.5 7.60981 7.276 7.83381 7 7.83381ZM7 5.83381H6C5.724 5.83381 5.5 5.60981 5.5 5.33381C5.5 5.05781 5.724 4.83381 6 4.83381H7C7.276 4.83381 7.5 5.05781 7.5 5.33381C7.5 5.60981 7.276 5.83381 7 5.83381ZM7 3.83381H6C5.724 3.83381 5.5 3.60981 5.5 3.33381C5.5 3.05781 5.724 2.83381 6 2.83381H7C7.276 2.83381 7.5 3.05781 7.5 3.33381C7.5 3.60981 7.276 3.83381 7 3.83381Z" fill="white"/>
<path d="M15.0797 7.22838L10.333 6.23438V16.0004H14.833C15.4763 16.0004 15.9997 15.477 15.9997 14.8337V8.36838C15.9997 7.81771 15.6243 7.34904 15.0797 7.22838ZM13.4997 14.0004H12.4997C12.2237 14.0004 11.9997 13.7764 11.9997 13.5004C11.9997 13.2244 12.2237 13.0004 12.4997 13.0004H13.4997C13.7757 13.0004 13.9997 13.2244 13.9997 13.5004C13.9997 13.7764 13.7757 14.0004 13.4997 14.0004ZM13.4997 12.0004H12.4997C12.2237 12.0004 11.9997 11.7764 11.9997 11.5004C11.9997 11.2244 12.2237 11.0004 12.4997 11.0004H13.4997C13.7757 11.0004 13.9997 11.2244 13.9997 11.5004C13.9997 11.7764 13.7757 12.0004 13.4997 12.0004ZM13.4997 10.0004H12.4997C12.2237 10.0004 11.9997 9.77638 11.9997 9.50038C11.9997 9.22438 12.2237 9.00038 12.4997 9.00038H13.4997C13.7757 9.00038 13.9997 9.22438 13.9997 9.50038C13.9997 9.77638 13.7757 10.0004 13.4997 10.0004Z" fill="white"/>
</g>
<defs>
<clipPath id="clip0_615_17195">
<rect width="16" height="16" fill="white"/>
</clipPath>
</defs>
</svg>
