<svg width="25" height="26" viewBox="0 0 25 26" fill="none" xmlns="http://www.w3.org/2000/svg">
<path fill-rule="evenodd" clip-rule="evenodd" d="M17.0448 0L11.2116 2.49355V23.1641H12.9875V18.8189L12.5765 18.858C12.4084 18.8739 12.2592 18.7505 12.2433 18.5824C12.2275 18.4142 12.3509 18.2651 12.519 18.2492L15.6798 17.9483C15.848 17.9324 15.9971 18.0559 16.013 18.224C16.0289 18.3921 15.9055 18.5413 15.7374 18.5572L15.2689 18.6018V23.164H22.878V2.49355L17.0448 0ZM13.4999 16.0338L12.3973 16.1393V14.0089L13.4999 13.8389V16.0338ZM13.5002 12.5732L12.3973 12.7804V10.6448L13.5002 10.373V12.5732ZM13.5002 9.1108L12.3973 9.41972V7.28417L13.5002 6.91063V9.1108ZM13.5002 5.64665L12.3973 6.05563V4.06056L13.5006 3.58765L13.5002 5.64665ZM15.8591 15.8091L14.6166 15.9282V13.6643L15.8591 13.4724V15.8091ZM15.8591 12.1271L14.6166 12.3609V10.0988L15.8591 9.79219V12.1271ZM15.8591 8.44691L14.6166 8.7954V6.5315L15.8591 6.11019V8.44691ZM15.8591 4.76675L14.6166 5.22989L14.6163 3.10963L15.859 2.57644L15.8591 4.76675ZM18.8099 19.534C18.8099 19.7035 18.6726 19.8408 18.5031 19.8408C18.3337 19.8408 18.1963 19.7035 18.1963 19.534V2.67989C18.1963 2.51042 18.3337 2.37307 18.5031 2.37307C18.6726 2.37307 18.8099 2.51042 18.8099 2.67989V19.534ZM20.2682 19.534C20.2682 19.7035 20.1309 19.8408 19.9614 19.8408C19.7919 19.8408 19.6546 19.7035 19.6546 19.534V3.30329C19.6546 3.13382 19.792 2.99647 19.9614 2.99647C20.1308 2.99647 20.2682 3.13387 20.2682 3.30329V19.534ZM21.7265 19.534C21.7265 19.7035 21.5892 19.8408 21.4197 19.8408C21.2502 19.8408 21.1129 19.7035 21.1129 19.534V3.92668C21.1129 3.75722 21.2502 3.61987 21.4197 3.61987C21.5892 3.61987 21.7265 3.75722 21.7265 3.92668V19.534ZM8.19629 6.02209L2.12204 8.61867V23.1641H4.01847V19.7905L3.60749 19.8296C3.43936 19.8455 3.29019 19.7221 3.27434 19.554C3.25849 19.3858 3.38188 19.2367 3.55002 19.2208L6.71084 18.92C6.87897 18.9041 7.02814 19.0275 7.04404 19.1956C7.05989 19.3638 6.9365 19.5129 6.76837 19.5289L6.29991 19.5734V23.1641H10.598V7.04874L8.19629 6.02209ZM4.31726 16.6519L3.41988 16.7748V15.0474L4.31726 14.863V16.6519ZM4.31726 13.8363L3.41988 14.057V12.3296L4.31726 12.0474V13.8363ZM4.31757 11.0196L3.41993 11.337V9.72367L4.31788 9.34547L4.31757 11.0196ZM6.26866 16.3825L5.23515 16.5249V14.6749L6.26866 14.4616V16.3825ZM6.26866 13.3544L5.23515 13.609V11.758L6.26866 11.4314V13.3544ZM6.26866 10.3253L5.23485 10.6933V8.95975L6.26866 8.52167V10.3253ZM0 23.7777H25V25.0567H0V23.7777Z" fill="white"/>
</svg>
