<svg width="24" height="24" viewBox="0 0 24 24" fill="none" xmlns="http://www.w3.org/2000/svg">
<g clip-path="url(#clip0_455_15272)">
<path d="M1 6V10H4.35849L6.5 7.5L11 6H13L17.5 7.5L19 10H23V6L21.5 4L20 2.5L17.5 1.5L14 1H11L7.5 1.5L3.5 3L1 6Z" fill="#B8DDFF"/>
<path d="M24 7.25101C24 5.83601 23.436 4.49101 22.407 3.46201C17.835 -1.10999 6.163 -1.10899 1.593 3.46201C0.564 4.49101 0 5.83601 0 7.25001V11H3.333L1.53 14.382C0.529 16.257 0 18.373 0 20.5V24H24V20.5C24 18.373 23.471 16.257 22.471 14.382L20.667 11H24V7.25101ZM22 20.5V22H2V20.5C2 18.7 2.447 16.91 3.295 15.324L5.874 10.488L7.225 8.23601C7.81 7.91601 9.685 7.00001 12 7.00001C14.315 7.00001 16.193 7.91701 16.775 8.23601L18.126 10.488L20.706 15.325C21.553 16.911 22 18.699 22 20.5ZM22 9.00001H19.566L18.236 6.78301C18.236 6.78301 15.394 5.00001 12 5.00001C8.606 5.00001 5.764 6.78301 5.764 6.78301L4.434 9.00001H2V7.24901C2 6.36901 2.356 5.52601 3.007 4.87601C6.874 1.01101 17.128 1.01101 20.993 4.87601C21.643 5.52601 22.001 6.36901 22 7.25001V9.00001ZM12 10C9.243 10 7 12.243 7 15C7 17.757 9.243 20 12 20C14.757 20 17 17.757 17 15C17 12.243 14.757 10 12 10ZM12 18C10.346 18 9 16.654 9 15C9 13.346 10.346 12 12 12C13.654 12 15 13.346 15 15C15 16.654 13.654 18 12 18Z" fill="#21347D"/>
</g>
<defs>
<clipPath id="clip0_455_15272">
<rect width="24" height="24" fill="white"/>
</clipPath>
</defs>
</svg>
