<svg width="24" height="24" viewBox="0 0 24 24" fill="none" xmlns="http://www.w3.org/2000/svg">
<g clip-path="url(#clip0_248_2083)">
<path d="M13 20V23H15.5L23 16L22.5 13.5L20 13L13 20Z" fill="#B8DDFF"/>
<path d="M19 2H18V1C18 0.448 17.553 0 17 0C16.447 0 16 0.448 16 1V2H8V1C8 0.448 7.553 0 7 0C6.447 0 6 0.448 6 1V2H5C2.243 2 0 4.243 0 7V19C0 21.757 2.243 24 5 24H9C9.553 24 10 23.552 10 23C10 22.448 9.553 22 9 22H5C3.346 22 2 20.654 2 19V10H23C23.553 10 24 9.552 24 9V7C24 4.243 21.757 2 19 2ZM22 8H2V7C2 5.346 3.346 4 5 4H19C20.654 4 22 5.346 22 7V8ZM18.879 12.879L13.172 18.586C12.416 19.341 12 20.346 12 21.414V23C12 23.552 12.447 24 13 24H14.586C15.654 24 16.659 23.583 17.414 22.828L23.121 17.121C23.687 16.554 24 15.801 24 14.999C24 14.197 23.687 13.444 23.121 12.878C21.951 11.708 20.049 11.709 18.879 12.879ZM21.707 15.707L16 21.414C15.622 21.792 15.12 22 14.586 22H14V21.414C14 20.888 14.214 20.372 14.586 20L20.293 14.293C20.684 13.903 21.316 13.903 21.707 14.293C21.896 14.481 22 14.732 22 15C22 15.268 21.896 15.518 21.707 15.707Z" fill="#222222"/>
</g>
<defs>
<clipPath id="clip0_248_2083">
<rect width="24" height="24" fill="white"/>
</clipPath>
</defs>
</svg>
