<svg width="16" height="16" viewBox="0 0 16 16" fill="none" xmlns="http://www.w3.org/2000/svg">
<g clip-path="url(#clip0_615_17276)">
<path d="M1.34513 13.4043H14.6387C14.8412 13.4043 15.0053 13.5684 15.0053 13.7709V15.2339C15.0053 15.4364 14.8412 15.6005 14.6387 15.6005H1.34513C1.14265 15.6005 0.978516 15.4364 0.978516 15.2339V13.7709C0.978516 13.5684 1.14265 13.4043 1.34513 13.4043Z" fill="white"/>
<path d="M7.86191 0.427366L1.2071 3.13183C1.0689 3.188 0.978516 3.3223 0.978516 3.47147V4.89401C0.978516 5.09648 1.14265 5.26062 1.34513 5.26062H14.6548C14.8572 5.26062 15.0214 5.09648 15.0214 4.89401V3.47147C15.0214 3.3223 14.931 3.188 14.7928 3.13183L8.13797 0.427366C8.04946 0.391399 7.95042 0.391399 7.86191 0.427366Z" fill="white"/>
<path d="M3.58927 6.37109H5.05224C5.25472 6.37109 5.41886 6.53523 5.41886 6.73771V11.9247C5.41886 12.1271 5.25472 12.2913 5.05224 12.2913H3.58927C3.38679 12.2913 3.22266 12.1271 3.22266 11.9247V6.73771C3.22266 6.53523 3.38679 6.37109 3.58927 6.37109Z" fill="white"/>
<path d="M10.9633 6.37109H12.4263C12.6287 6.37109 12.7929 6.53523 12.7929 6.73771V11.9247C12.7929 12.1271 12.6287 12.2913 12.4263 12.2913H10.9633C10.7608 12.2913 10.5967 12.1271 10.5967 11.9247V6.73771C10.5967 6.53523 10.7608 6.37109 10.9633 6.37109Z" fill="white"/>
<path d="M7.27677 6.37109H8.73974C8.94222 6.37109 9.10636 6.53523 9.10636 6.73771V11.9247C9.10636 12.1271 8.94222 12.2913 8.73974 12.2913H7.27677C7.07429 12.2913 6.91016 12.1271 6.91016 11.9247V6.73771C6.91016 6.53523 7.07429 6.37109 7.27677 6.37109Z" fill="white"/>
</g>
<defs>
<clipPath id="clip0_615_17276">
<rect width="16" height="16" fill="white"/>
</clipPath>
</defs>
</svg>
