<svg width="16" height="16" viewBox="0 0 16 16" fill="none" xmlns="http://www.w3.org/2000/svg">
<g clip-path="url(#clip0_615_17229)">
<path d="M15.7712 13.6375L12.1053 0.58747C12.0584 0.42911 11.9822 0.291634 11.8768 0.175085C11.7712 0.0582742 11.6598 0 11.5426 0H8.56242C8.63854 0 8.70594 0.0394919 8.76454 0.118606C8.8231 0.19794 8.85534 0.291502 8.86128 0.39982L8.99319 2.80001C8.99907 2.91669 8.9757 3.01252 8.92314 3.08739C8.87024 3.16239 8.80583 3.19983 8.72956 3.19983H7.27023C7.19405 3.19983 7.12966 3.16239 7.07689 3.08739C7.02414 3.01257 7.00071 2.91669 7.00665 2.80001L7.13853 0.39982C7.14432 0.291502 7.1765 0.19794 7.23522 0.118606C7.29381 0.0396232 7.36115 0 7.43743 0H4.45715C4.33996 0 4.22859 0.0582742 4.12307 0.175085C4.01764 0.291502 3.94152 0.42911 3.89456 0.58747L0.228565 13.6375C0.076178 14.1541 0 14.6375 0 15.0875C0 15.6959 0.134774 16 0.404415 16H6.59337C6.51719 16 6.45281 15.9605 6.4 15.8814C6.34725 15.802 6.32382 15.7085 6.32976 15.6L6.50552 12.4004C6.51137 12.2919 6.54361 12.1982 6.60221 12.119C6.66077 12.0397 6.72824 12.0004 6.80441 12.0004H9.19549C9.27179 12.0004 9.33901 12.0397 9.39779 12.119C9.45639 12.1982 9.48863 12.2919 9.49445 12.4004L9.67042 15.6C9.67642 15.7085 9.65271 15.8019 9.60015 15.8814C9.54747 15.9605 9.48296 16 9.40669 16H15.5956C15.8651 16 16 15.6959 16 15.0875C16 14.6376 15.9237 14.1543 15.7712 13.6375ZM9.32753 9.24987C9.33322 9.34996 9.30982 9.43323 9.25714 9.49978C9.20455 9.56659 9.14281 9.59987 9.07254 9.59987H6.92746C6.8571 9.59987 6.79545 9.56659 6.74283 9.49978C6.69002 9.43297 6.66662 9.34965 6.67244 9.24987V9.19983L6.88349 5.20006C6.88934 5.0917 6.92158 4.99801 6.98017 4.9188C7.03877 4.8396 7.1062 4.80007 7.18238 4.80007H8.8174C8.89371 4.80007 8.96114 4.83947 9.0197 4.9188C9.07827 4.99801 9.11054 5.0917 9.11645 5.20006L9.32743 9.19983V9.24987H9.32753Z" fill="white"/>
</g>
<defs>
<clipPath id="clip0_615_17229">
<rect width="16" height="16" fill="white"/>
</clipPath>
</defs>
</svg>
