<svg width="16" height="16" viewBox="0 0 16 16" fill="none" xmlns="http://www.w3.org/2000/svg">
<g clip-path="url(#clip0_615_17237)">
<path d="M7.04344 8.06488L1.9344 5.28829C1.70715 5.16485 1.43878 5.16994 1.2164 5.30214C0.994024 5.4343 0.861328 5.66765 0.861328 5.92636V12.3674C0.861328 12.628 1.00206 12.8699 1.22863 12.9988L6.33776 15.9033C6.45038 15.9673 6.57355 15.9993 6.69674 15.9993C6.82228 15.9993 6.94778 15.9661 7.06191 15.8996C7.28795 15.7681 7.4229 15.5335 7.4229 15.2719V8.70297C7.4229 8.43661 7.27754 8.1921 7.04344 8.06488Z" fill="white"/>
<path d="M14.2103 3.61359C14.21 3.34164 14.0598 3.09497 13.8183 2.96984L8.24711 0.0815006C8.03617 -0.0279073 7.78475 -0.0270945 7.5746 0.0835325L2.08529 2.97187C1.84628 3.09769 1.69761 3.34361 1.69727 3.61372C1.69695 3.88377 1.84503 4.13003 2.08369 4.25638L7.57303 7.16276C7.67932 7.21899 7.79601 7.24712 7.91276 7.24712C8.02808 7.24712 8.14342 7.21968 8.24864 7.16476L13.82 4.25844C14.0611 4.13266 14.2107 3.88555 14.2103 3.61359Z" fill="white"/>
<path d="M14.7827 5.30219C14.5604 5.17 14.2919 5.16478 14.0648 5.28831L8.95557 8.06493C8.72153 8.19215 8.57617 8.43664 8.57617 8.703V15.2719C8.57617 15.5335 8.71112 15.7682 8.93716 15.8997C9.05128 15.9661 9.17676 15.9993 9.30233 15.9993C9.42549 15.9993 9.54871 15.9673 9.66131 15.9033L14.7705 12.9988C14.997 12.87 15.1377 12.6281 15.1377 12.3674V5.92641C15.1377 5.66771 15.005 5.43436 14.7827 5.30219Z" fill="white"/>
</g>
<defs>
<clipPath id="clip0_615_17237">
<rect width="16" height="16" fill="white"/>
</clipPath>
</defs>
</svg>
