<svg width="24" height="24" viewBox="0 0 24 24" fill="none" xmlns="http://www.w3.org/2000/svg">
<g clip-path="url(#clip0_264_4142)">
<path d="M22.5 7.5H1.5H1V2.5L2 1H8L12.5 3H21L22.5 4V7.5Z" fill="#B8DDFF"/>
<path d="M21 2H12.236L8.236 0H3C1.346 0 0 1.346 0 3V22H11.079C10.72 21.381 10.445 20.71 10.262 20H2V8H22V11.079C22.754 11.516 23.428 12.071 24 12.721V5C24 3.346 22.654 2 21 2ZM2 6V3C2 2.449 2.448 2 3 2H7.764L11.764 4H21C21.552 4 22 4.449 22 5V6H2ZM22.7 14.139L21.289 14.952C20.684 14.3 19.896 13.826 18.999 13.621V12H16.999V13.621C16.103 13.826 15.314 14.3 14.709 14.952L13.298 14.139L12.3 15.871L13.716 16.687C13.587 17.105 13.498 17.54 13.498 18C13.498 18.46 13.587 18.895 13.716 19.313L12.3 20.129L13.298 21.861L14.709 21.048C15.314 21.7 16.102 22.174 16.999 22.379V24H18.999V22.379C19.895 22.174 20.684 21.7 21.289 21.048L22.7 21.861L23.698 20.129L22.282 19.313C22.411 18.895 22.5 18.46 22.5 18C22.5 17.54 22.411 17.105 22.282 16.687L23.698 15.871L22.7 14.139ZM18 20.5C16.621 20.5 15.5 19.379 15.5 18C15.5 16.621 16.621 15.5 18 15.5C19.379 15.5 20.5 16.621 20.5 18C20.5 19.379 19.379 20.5 18 20.5Z" fill="#222222"/>
</g>
<defs>
<clipPath id="clip0_264_4142">
<rect width="24" height="24" fill="white"/>
</clipPath>
</defs>
</svg>
