<svg width="18" height="18" viewBox="0 0 18 18" fill="none" xmlns="http://www.w3.org/2000/svg">
<g clip-path="url(#clip0_1214_4520)">
<path d="M17.4375 0.615234H0.5625C0.28125 0.615234 0.0527344 0.84375 0.0527344 1.125V13.1133C0.0527344 13.3945 0.28125 13.623 0.5625 13.623H1.74023V17.4375C1.74023 17.7188 1.96875 17.9473 2.25 17.9473C2.53125 17.9473 2.75977 17.7188 2.75977 17.4375V13.623H15.2402V17.4375C15.2402 17.7188 15.4688 17.9473 15.75 17.9473C16.0312 17.9473 16.2598 17.7188 16.2598 17.4375V13.623H17.4375C17.7188 13.623 17.9473 13.3945 17.9473 13.1133V1.125C17.9473 0.84375 17.7188 0.615234 17.4375 0.615234ZM16.9277 1.63477V12.6035H1.07227V1.63477H16.9277Z" fill="#40C7F5"/>
<path d="M5.30164 10.5789C6.31765 11.2046 7.23523 11.0007 8.04382 10.8179C8.7364 10.6632 9.39031 10.5156 10.1251 10.8812C10.7719 11.1906 11.4575 11.4542 12.1923 11.4542C12.579 11.4542 12.9798 11.3804 13.3981 11.2011C14.5477 10.6738 14.9485 9.51011 15.068 9.0355C15.2368 8.36753 15.0962 7.6644 14.6989 7.15464C14.3368 6.69058 13.7919 6.43394 13.1661 6.43394C12.5403 6.43394 12.3786 6.54995 12.0411 6.65542C11.7141 6.75737 11.4048 6.8523 11.1868 6.79956C10.9618 6.74331 10.7438 6.47612 10.5434 6.00503C9.93523 4.58823 8.76804 3.02378 7.30906 2.88667C6.54265 2.81636 5.74812 3.06597 5.12585 3.57573C4.37703 4.19097 3.87078 5.16831 3.66687 6.4023C3.48757 7.48511 3.76882 8.40972 4.03601 8.99331C4.35593 9.6894 4.83054 10.28 5.30867 10.5753L5.30164 10.5789ZM5.83953 9.71401C5.31921 9.39409 4.41218 8.10386 4.66882 6.57456L4.67585 6.53589C5.03796 4.45112 6.26492 3.8148 7.21414 3.90269C8.03679 3.98003 8.99656 4.9855 9.60476 6.40933C10.0899 7.54136 10.7262 7.83316 11.3274 7.83316C11.693 7.83316 12.0481 7.72417 12.3434 7.63276C12.6352 7.54136 12.913 7.45698 13.1696 7.45698C13.5423 7.44995 13.7673 7.62925 13.8903 7.78394C14.0977 8.04409 14.1716 8.43081 14.0802 8.79292C14.0169 9.05308 13.7427 9.92495 12.9727 10.28C12.361 10.5613 11.5559 10.4593 10.5821 9.97066C10.1005 9.72456 9.62234 9.63667 9.15476 9.63667C8.68718 9.63667 8.25125 9.72105 7.82234 9.823C7.11218 9.9812 6.50046 10.1183 5.83953 9.7105V9.71401Z" fill="#40C7F5"/>
<path d="M12.2832 6.05078C13.1832 6.05078 13.918 5.31602 13.918 4.41602C13.918 3.51602 13.1832 2.78125 12.2832 2.78125C11.3832 2.78125 10.6484 3.51602 10.6484 4.41602C10.6484 5.31602 11.3832 6.05078 12.2832 6.05078ZM12.2832 3.80078C12.6207 3.80078 12.8984 4.07852 12.8984 4.41602C12.8984 4.75352 12.6207 5.03125 12.2832 5.03125C11.9457 5.03125 11.668 4.75352 11.668 4.41602C11.668 4.07852 11.9457 3.80078 12.2832 3.80078Z" fill="#40C7F5"/>
</g>
<defs>
<clipPath id="clip0_1214_4520">
<rect width="18" height="18" fill="white"/>
</clipPath>
</defs>
</svg>
