<svg width="18" height="18" viewBox="0 0 18 18" fill="none" xmlns="http://www.w3.org/2000/svg">
<g clip-path="url(#clip0_1214_4932)">
<path d="M9 8.99941C9.59334 8.99941 10.1734 8.82346 10.6667 8.49382C11.1601 8.16417 11.5446 7.69564 11.7716 7.14746C11.9987 6.59928 12.0581 5.99608 11.9424 5.41414C11.8266 4.83219 11.5409 4.29764 11.1213 3.87809C10.7018 3.45853 10.1672 3.17281 9.58527 3.05705C9.00333 2.9413 8.40013 3.00071 7.85195 3.22777C7.30377 3.45483 6.83524 3.83935 6.50559 4.3327C6.17595 4.82604 6 5.40606 6 5.99941C6 6.79506 6.31607 7.55812 6.87868 8.12073C7.44129 8.68334 8.20435 8.99941 9 8.99941ZM9 4.49941C9.29667 4.49941 9.58668 4.58738 9.83336 4.7522C10.08 4.91702 10.2723 5.15129 10.3858 5.42538C10.4994 5.69947 10.5291 6.00107 10.4712 6.29204C10.4133 6.58301 10.2704 6.85029 10.0607 7.06007C9.85088 7.26985 9.58361 7.41271 9.29264 7.47059C9.00166 7.52846 8.70006 7.49876 8.42598 7.38523C8.15189 7.2717 7.91762 7.07944 7.7528 6.83276C7.58797 6.58609 7.5 6.29608 7.5 5.99941C7.5 5.60158 7.65804 5.22005 7.93934 4.93875C8.22065 4.65744 8.60218 4.49941 9 4.49941ZM12 16.5219L18 17.9829V10.1117C17.9998 9.62856 17.8442 9.15835 17.5561 8.77057C17.268 8.38278 16.8627 8.09802 16.4003 7.95841L14.8253 7.43341C14.9404 6.9656 14.9991 6.48568 15 6.00391C15 4.41261 14.3679 2.88648 13.2426 1.76127C12.1174 0.636047 10.5913 0.00390625 9 0.00390625C7.4087 0.00390625 5.88258 0.636047 4.75736 1.76127C3.63214 2.88648 3 4.41261 3 6.00391C3.00222 6.30836 3.02729 6.61221 3.075 6.91291C2.7344 6.77712 2.36572 6.72687 2.0012 6.76654C1.63669 6.80621 1.28745 6.9346 0.984035 7.14048C0.680622 7.34636 0.43228 7.62345 0.260734 7.94751C0.0891893 8.27158 -0.000332408 8.63274 9.27481e-07 8.99941V16.3134L5.98725 18.0242L12 16.5219ZM5.81775 2.82241C6.66318 1.98897 7.80371 1.52338 8.99087 1.52707C10.178 1.53075 11.3156 2.0034 12.1559 2.84207C12.9961 3.68073 13.4709 4.81745 13.4769 6.0046C13.4828 7.19176 13.0193 8.33315 12.1875 9.18016L9 12.2994L5.81775 9.18616C4.9739 8.34225 4.49984 7.19771 4.49984 6.00428C4.49984 4.81086 4.9739 3.66631 5.81775 2.82241ZM1.5 8.99941C1.49905 8.87571 1.52918 8.75375 1.58763 8.64473C1.64607 8.5357 1.73096 8.4431 1.8345 8.37541C1.94281 8.30432 2.06758 8.26229 2.19683 8.25336C2.32607 8.24443 2.45544 8.2689 2.5725 8.32441L3.648 8.71291C3.93575 9.28272 4.31219 9.80321 4.76325 10.2549L9 14.3994L13.2428 10.2497C13.6599 9.83307 14.0137 9.3575 14.2928 8.83816L15.9555 9.39391C16.1121 9.4387 16.2499 9.53326 16.348 9.6633C16.4461 9.79333 16.4992 9.95177 16.4993 10.1147V16.0764L12 14.9769L6.015 16.4769L1.5 15.1839V8.99941Z" fill="#90B8FF"/>
</g>
<defs>
<clipPath id="clip0_1214_4932">
<rect width="18" height="18" fill="white"/>
</clipPath>
</defs>
</svg>
