<svg width="21" height="20" viewBox="0 0 21 20" fill="none" xmlns="http://www.w3.org/2000/svg">
<g clip-path="url(#clip0_915_41842)">
<path d="M19.9656 7.82608C20.2057 7.82608 20.4004 7.63141 20.4004 7.39129C20.4004 7.15116 20.2057 6.95649 19.9656 6.95649H18.6612V2.60869H19.9656C20.2057 2.60869 20.4004 2.41402 20.4004 2.1739C20.4004 1.93378 20.2057 1.73914 19.9656 1.73914H18.6612V0.434796C18.6612 0.194674 18.4666 0 18.2265 0C17.9863 0 17.7917 0.194674 17.7917 0.434796V1.73914H13.4439V0.434796C13.4439 0.194674 13.2492 0 13.0091 0C12.7689 0 12.5743 0.194674 12.5743 0.434796V1.73914H8.22647V0.434796C8.22647 0.194674 8.0318 0 7.79168 0C7.55155 0 7.35688 0.194674 7.35688 0.434796V1.73914H3.00908V0.434796C3.00908 0.194674 2.81441 0 2.57429 0C2.33417 0 2.13953 0.194674 2.13953 0.434796V1.73914H0.835187C0.595064 1.73914 0.400391 1.93378 0.400391 2.1739C0.400391 2.41402 0.595064 2.60869 0.835187 2.60869H2.13953V6.95653H0.835187C0.595064 6.95653 0.400391 7.15116 0.400391 7.39129C0.400391 7.63141 0.595064 7.82608 0.835187 7.82608H2.13953V12.1739H0.835187C0.595064 12.1739 0.400391 12.3686 0.400391 12.6087C0.400391 12.8488 0.595064 13.0435 0.835187 13.0435H2.13953V17.3913H0.835187C0.595064 17.3913 0.400391 17.5859 0.400391 17.8261C0.400391 18.0662 0.595064 18.2609 0.835187 18.2609H2.13953V19.5652C2.13953 19.8053 2.33421 20 2.57433 20C2.81445 20 3.00908 19.8053 3.00908 19.5652V18.2609H7.35692V19.5652C7.35692 19.8053 7.55159 20 7.79172 20C8.03184 20 8.22651 19.8053 8.22651 19.5652V18.2609H12.5743V19.5652C12.5743 19.8053 12.769 20 13.0091 20C13.2493 20 13.4439 19.8053 13.4439 19.5652V18.2609H17.7917V19.5652C17.7917 19.8053 17.9864 20 18.2265 20C18.4666 20 18.6612 19.8053 18.6612 19.5652V18.2609H19.9656C20.2057 18.2609 20.4004 18.0662 20.4004 17.8261C20.4004 17.5859 20.2057 17.3913 19.9656 17.3913H18.6612V13.0435H19.9656C20.2057 13.0435 20.4004 12.8488 20.4004 12.6087C20.4004 12.3686 20.2057 12.1739 19.9656 12.1739H18.6612V7.82608H19.9656ZM17.7917 2.60869V6.95653H13.4439V2.60869H17.7917ZM12.5743 2.60869V6.95653H8.22647V2.60869H12.5743ZM12.5743 7.82608V12.1739H8.22647V7.82608H12.5743ZM3.00908 2.60869H7.35692V6.95653H3.00908V2.60869ZM3.00908 7.82608H7.35692V12.1739H3.00908V7.82608ZM3.00908 17.3913V13.0435H7.35692V17.3913H3.00908ZM8.22647 17.3913V13.0435H12.5743V17.3913H8.22647ZM17.7917 17.3913H13.4439V13.0435H17.7917V17.3913ZM17.7917 12.1739H13.4439V7.82608H17.7917V12.1739Z" fill="#455A64"/>
<path d="M2.57347 20C2.33335 20 2.13867 19.8053 2.13867 19.5652V0.434796C2.13871 0.194674 2.33335 0 2.57347 0C2.81359 0 3.00826 0.194674 3.00826 0.434796V19.5652C3.00826 19.8053 2.81359 20 2.57347 20Z" fill="#444444"/>
<path d="M7.79222 20C7.5521 20 7.35742 19.8053 7.35742 19.5652V0.434796C7.35746 0.194674 7.5521 0 7.79222 0C8.03234 0 8.22701 0.194674 8.22701 0.434796V19.5652C8.22701 19.8053 8.03234 20 7.79222 20Z" fill="#444444"/>
<path d="M13.009 20C12.7689 20 12.5742 19.8053 12.5742 19.5652V0.434796C12.5743 0.194674 12.7689 0 13.009 0C13.2491 0 13.4438 0.194674 13.4438 0.434796V19.5652C13.4438 19.8053 13.2491 20 13.009 20Z" fill="#444444"/>
<path d="M18.2258 20C17.9857 20 17.791 19.8053 17.791 19.5652V0.434796C17.7911 0.194674 17.9857 0 18.2258 0C18.4659 0 18.6606 0.194674 18.6606 0.434796V19.5652C18.6606 19.8053 18.4659 20 18.2258 20Z" fill="#444444"/>
<path d="M19.9656 18.2602H0.835187C0.595064 18.2602 0.400391 18.0655 0.400391 17.8254C0.400391 17.5853 0.595064 17.3906 0.835187 17.3906H19.9656C20.2057 17.3906 20.4004 17.5853 20.4004 17.8254C20.4004 18.0655 20.2057 18.2602 19.9656 18.2602Z" fill="#444444"/>
<path d="M19.9656 13.0434H0.835187C0.595064 13.0434 0.400391 12.8487 0.400391 12.6086C0.400391 12.3685 0.595064 12.1738 0.835187 12.1738H19.9656C20.2057 12.1738 20.4004 12.3685 20.4004 12.6086C20.4004 12.8487 20.2057 13.0434 19.9656 13.0434Z" fill="#444444"/>
<path d="M19.9656 7.82662H0.835187C0.595064 7.82662 0.400391 7.63195 0.400391 7.39183C0.400391 7.1517 0.595064 6.95703 0.835187 6.95703H19.9656C20.2057 6.95703 20.4004 7.1517 20.4004 7.39183C20.4004 7.63195 20.2057 7.82662 19.9656 7.82662Z" fill="#444444"/>
<path d="M19.9656 2.60787H0.835187C0.595064 2.60787 0.400391 2.4132 0.400391 2.17308C0.400391 1.93296 0.595064 1.73828 0.835187 1.73828H19.9656C20.2057 1.73828 20.4004 1.93296 20.4004 2.17308C20.4004 2.4132 20.2057 2.60787 19.9656 2.60787Z" fill="#444444"/>
</g>
<defs>
<clipPath id="clip0_915_41842">
<rect width="20" height="20" fill="white" transform="translate(0.400391)"/>
</clipPath>
</defs>
</svg>
