<svg width="18" height="18" viewBox="0 0 18 18" fill="none" xmlns="http://www.w3.org/2000/svg">
<g clip-path="url(#clip0_1238_29243)">
<path d="M2.25 9.0293C2.25 12.7515 5.2785 15.7793 9 15.7793C12.7215 15.7793 15.75 12.7515 15.75 9.0293C15.75 5.30705 12.7215 2.2793 9 2.2793C7.2045 2.2793 5.49225 3.0113 4.23525 4.26455L6 6.0293H1.56825C1.11675 6.0293 0.75 5.6633 0.75 5.21105V0.779297L2.64675 2.67605C4.32225 1.00655 6.60525 0.0292969 9 0.0292969C13.9628 0.0292969 18 4.06655 18 9.0293C18 13.992 13.9628 18.0293 9 18.0293C4.03725 18.0293 0 13.9928 0 9.0293H2.25Z" fill="#FF9193"/>
</g>
<defs>
<clipPath id="clip0_1238_29243">
<rect width="18" height="18" fill="white"/>
</clipPath>
</defs>
</svg>
