<svg width="20" height="20" viewBox="0 0 20 20" fill="none" xmlns="http://www.w3.org/2000/svg">
<path fill-rule="evenodd" clip-rule="evenodd" d="M15.4138 2.01206C15.7702 1.94252 16.1156 2.17511 16.1851 2.53157L16.8779 6.08275C16.9069 6.23148 16.8833 6.37827 16.8201 6.5039C16.7232 6.69732 16.533 6.83898 16.302 6.86379L12.8919 7.22993C12.5308 7.2687 12.2067 7.0074 12.1679 6.64629C12.1291 6.28519 12.3904 5.96103 12.7515 5.92226L14.7056 5.71245C14.2886 5.30966 13.8066 4.93179 13.2383 4.60368C10.143 2.81659 6.18844 3.87621 4.40136 6.97153C2.60992 10.0744 3.67021 14.0287 6.7651 15.8156C9.86042 17.6027 13.815 16.5431 15.602 13.4477C16.2663 12.2973 16.5367 11.0235 16.457 9.7876C16.4336 9.42517 16.7085 9.11242 17.0709 9.08904C17.4333 9.06567 17.7461 9.34053 17.7694 9.70295C17.8652 11.1881 17.5399 12.7216 16.741 14.1053C14.5908 17.8297 9.83187 19.1048 6.1075 16.9546C2.38271 14.8041 1.10824 10.045 3.26237 6.31393C5.41263 2.58957 10.1715 1.31443 13.8959 3.46469C14.3858 3.74751 14.8202 4.06126 15.2082 4.39282L14.8943 2.7834C14.8247 2.42694 15.0573 2.0816 15.4138 2.01206Z" fill="#2A45AE"/>
</svg>
