<svg width="18" height="18" viewBox="0 0 18 18" fill="none" xmlns="http://www.w3.org/2000/svg">
<path d="M17.8899 15.5213L12.3516 4.81066C12.2864 4.71349 12.199 4.63358 12.0969 4.57768C11.9948 4.52178 11.8809 4.49151 11.7648 4.48943C11.6481 4.49016 11.5335 4.52071 11.4316 4.57823C11.3297 4.63575 11.2438 4.71837 11.182 4.81843L8.10549 9.79608C8.05731 9.87405 8.02478 9.96085 8.00977 10.0515C7.99476 10.1422 7.99757 10.235 8.01802 10.3246C8.03847 10.4141 8.07617 10.4988 8.12897 10.5736C8.18177 10.6485 8.24864 10.7121 8.32574 10.7608C8.40285 10.8095 8.4887 10.8424 8.57837 10.8576C8.66805 10.8727 8.75981 10.8699 8.84841 10.8492C9.02733 10.8075 9.18252 10.6955 9.27983 10.5381L11.7772 6.49701L16.0396 15.2H1.94141L7.61534 4.02079L8.56656 5.56021C8.61396 5.63977 8.67655 5.70899 8.75067 5.76384C8.82479 5.8187 8.90897 5.85809 8.9983 5.87972C9.08763 5.90135 9.18032 5.9048 9.27098 5.88985C9.36163 5.8749 9.44844 5.84186 9.52635 5.79265C9.60425 5.74345 9.67169 5.67905 9.72474 5.60323C9.77778 5.52741 9.81538 5.44167 9.83533 5.35101C9.85528 5.26035 9.85718 5.16659 9.84094 5.07517C9.82469 4.98376 9.79062 4.89653 9.7407 4.81857L8.20248 2.32911C8.14026 2.2284 8.05372 2.14536 7.95101 2.08778C7.84829 2.03021 7.73278 2 7.61534 2C7.4979 2 7.38239 2.03021 7.27968 2.08778C7.17697 2.14536 7.09043 2.2284 7.02821 2.32911L0.105231 15.529C0.0397312 15.635 0.00347884 15.7567 0.000238119 15.8817C-0.00300261 16.0066 0.0268864 16.1301 0.0868017 16.2394C0.146717 16.3487 0.234474 16.4397 0.340962 16.5032C0.447449 16.5666 0.568784 16.6 0.692368 16.6H17.3075C17.4319 16.6 17.5539 16.5662 17.6609 16.502C17.7679 16.4379 17.8558 16.3458 17.9153 16.2354C17.9749 16.1251 18.004 16.0005 17.9996 15.8748C17.9951 15.7492 17.9572 15.6271 17.8899 15.5213Z" fill="#76DE50"/>
</svg>
