<svg width="16" height="20" viewBox="0 0 16 20" fill="none" xmlns="http://www.w3.org/2000/svg">
<path d="M8 0C3.86375 0 0.5 3.36375 0.5 7.5C0.5 12.6987 7.27 19.5287 7.5575 19.8175C7.68 19.9387 7.84 20 8 20C8.16 20 8.32 19.9387 8.4425 19.8175C8.73 19.5287 15.5 12.6987 15.5 7.5C15.5 3.36375 12.1362 0 8 0Z" fill="#FFC107"/>
<path d="M8 11.25C10.0711 11.25 11.75 9.57107 11.75 7.5C11.75 5.42893 10.0711 3.75 8 3.75C5.92893 3.75 4.25 5.42893 4.25 7.5C4.25 9.57107 5.92893 11.25 8 11.25Z" fill="#222222"/>
</svg>
