<svg width="16" height="16" viewBox="0 0 16 16" fill="none" xmlns="http://www.w3.org/2000/svg">
<path fill-rule="evenodd" clip-rule="evenodd" d="M0 5V1H1.4V2.19995H14.6V1H16V2.19995V3.59995V5H14.6V3.59995H1.4V5H0ZM7.39999 7.90012V12.0001H8.79999V7.90012H10L10 10.4001H11.4V7.90012H12.4L12.4 10.4001H13.8V7.90012H14.6V13.7001H1.40001V7.90012H2.39999V10.4001H3.79999L3.79999 7.90012H4.79999V10.4001H6.19999V7.90012H7.39999ZM0.700006 6.50012C0.313407 6.50012 6.25452e-06 6.81352 6.25452e-06 7.20012V14.4001C6.25452e-06 14.7867 0.313407 15.1001 0.700006 15.1001H15.3C15.6866 15.1001 16 14.7867 16 14.4001V7.20012C16 6.81352 15.6866 6.50012 15.3 6.50012H0.700006Z" fill="#333333"/>
</svg>
