<svg width="16" height="16" viewBox="0 0 16 16" fill="none" xmlns="http://www.w3.org/2000/svg">
<path fill-rule="evenodd" clip-rule="evenodd" d="M1.49961 2.39961C1.49961 1.90255 1.90255 1.49961 2.39961 1.49961C2.89667 1.49961 3.29961 1.90255 3.29961 2.39961C3.29961 2.89667 2.89667 3.29961 2.39961 3.29961C1.90255 3.29961 1.49961 2.89667 1.49961 2.39961ZM2.39961 0.0996094C1.12935 0.0996094 0.0996094 1.12935 0.0996094 2.39961C0.0996094 3.38854 0.723747 4.2317 1.5996 4.55666V11.4425C0.723747 11.7675 0.0996094 12.6106 0.0996094 13.5996C0.0996094 14.8698 1.12935 15.8996 2.39961 15.8996C3.38852 15.8996 4.23166 15.2755 4.55663 14.3996H11.4426C11.7676 15.2755 12.6107 15.8996 13.5996 15.8996C14.8699 15.8996 15.8996 14.8698 15.8996 13.5996C15.8996 12.5369 15.1789 11.6425 14.1996 11.3786V4.62057C15.1789 4.35665 15.8996 3.4623 15.8996 2.39961C15.8996 1.12935 14.8699 0.0996094 13.5996 0.0996094C12.537 0.0996094 11.6426 0.820289 11.3787 1.79956H4.62055C4.35662 0.820289 3.46228 0.0996094 2.39961 0.0996094ZM12.7996 4.55666C12.1729 4.32413 11.6751 3.82629 11.4426 3.19956H4.55668C4.29993 3.89161 3.71967 4.42651 2.9996 4.62056V11.3786C3.78764 11.591 4.40824 12.2116 4.62058 12.9996H11.3786C11.5727 12.2796 12.1076 11.6993 12.7996 11.4425V4.55666ZM1.49961 13.5996C1.49961 13.1025 1.90255 12.6996 2.39961 12.6996C2.89667 12.6996 3.29961 13.1025 3.29961 13.5996C3.29961 14.0966 2.89667 14.4996 2.39961 14.4996C1.90255 14.4996 1.49961 14.0966 1.49961 13.5996ZM13.5996 1.49961C13.1026 1.49961 12.6996 1.90255 12.6996 2.39961C12.6996 2.89667 13.1026 3.29961 13.5996 3.29961C14.0967 3.29961 14.4996 2.89667 14.4996 2.39961C14.4996 1.90255 14.0967 1.49961 13.5996 1.49961ZM12.6996 13.5996C12.6996 13.1025 13.1026 12.6996 13.5996 12.6996C14.0967 12.6996 14.4996 13.1025 14.4996 13.5996C14.4996 14.0966 14.0967 14.4996 13.5996 14.4996C13.1026 14.4996 12.6996 14.0966 12.6996 13.5996Z" fill="#333333"/>
</svg>
