<svg width="18" height="18" viewBox="0 0 18 18" fill="none" xmlns="http://www.w3.org/2000/svg">
<g clip-path="url(#clip0_1214_32809)">
<path d="M17.5944 1.12089C17.3439 0.968731 17.0265 0.95953 16.7657 1.09713L11.8242 3.71326L6.88624 1.09878C6.86427 1.08697 6.84175 1.07681 6.81813 1.06788C6.79011 1.05607 6.76059 1.04564 6.72886 1.03616L6.72062 1.03369C6.70126 1.02792 6.6819 1.0227 6.6624 1.01844L6.65416 1.0168C6.60046 1.00608 6.55363 1.00306 6.52328 1.00183C6.50502 1.00073 6.48263 0.999768 6.45489 1.00073L6.44597 1.00128C6.39474 1.00402 6.35093 1.01199 6.3199 1.01872C6.31289 1.01996 6.30356 1.02174 6.29216 1.02421L6.26703 1.02806L0.575547 2.92526C0.231263 3.03966 0 3.36046 0 3.72342V16.217C0 16.4866 0.1306 16.7417 0.351151 16.9008C0.495072 17.0038 0.664537 17.0581 0.841005 17.0581C0.932878 17.0581 1.02324 17.0432 1.10687 17.0147L6.45833 15.231L11.5022 17.3079C11.5285 17.3189 11.5553 17.3277 11.583 17.3344C11.6652 17.3596 11.7444 17.3719 11.8242 17.3719C11.8975 17.3719 11.9728 17.3615 12.0478 17.3408L12.0523 17.3395C12.0787 17.332 12.0997 17.3241 12.1178 17.3167C12.1372 17.3101 12.174 17.2972 12.2178 17.2742L17.5525 14.45C17.8285 14.3039 18 14.019 18 13.7066V1.8405C18 1.54799 17.8446 1.27237 17.5944 1.12089ZM1.05455 15.9208V3.87709L5.94774 2.24603L5.95034 14.2888L1.05455 15.9208ZM11.297 16.083L7.00476 14.3157L7.00229 2.35342L11.297 4.62732V16.083ZM16.9455 13.5782L12.3515 16.0103V4.62732L16.9455 2.19508V13.5782Z" fill="#FFB412"/>
</g>
<defs>
<clipPath id="clip0_1214_32809">
<rect width="18" height="18" fill="white"/>
</clipPath>
</defs>
</svg>
