<svg width="16" height="20" viewBox="0 0 16 20" fill="none" xmlns="http://www.w3.org/2000/svg">
<path d="M8.19922 0C4.06297 0 0.699219 3.36375 0.699219 7.5C0.699219 12.6987 7.46922 19.5287 7.75672 19.8175C7.87922 19.9387 8.03922 20 8.19922 20C8.35922 20 8.51922 19.9387 8.64172 19.8175C8.92922 19.5287 15.6992 12.6987 15.6992 7.5C15.6992 3.36375 12.3355 0 8.19922 0Z" fill="#EC5050"/>
<path d="M8.19922 11.25C10.2703 11.25 11.9492 9.57107 11.9492 7.5C11.9492 5.42893 10.2703 3.75 8.19922 3.75C6.12815 3.75 4.44922 5.42893 4.44922 7.5C4.44922 9.57107 6.12815 11.25 8.19922 11.25Z" fill="white"/>
</svg>
