<svg width="26" height="14" viewBox="0 0 26 14" fill="none" xmlns="http://www.w3.org/2000/svg">
<path d="M10.75 5.46875H12.7129V6.99219H10.75V13.877H8.875V0.517578H10.75V5.46875ZM7.01465 3.25684H2.62012V9.10156C3.66992 9.0918 4.60742 9.05518 5.43262 8.9917C6.25781 8.92822 7.08789 8.82324 7.92285 8.67676L8.12793 10.2441C7.23438 10.3955 6.35303 10.5005 5.48389 10.5591C4.61963 10.6128 3.62598 10.6396 2.50293 10.6396H1.8877H0.759766V1.74805H7.01465V3.25684ZM23.7139 5.55664H25.6768V7.09473H23.7139V13.877H21.8682V0.517578H23.7139V5.55664ZM19.9053 6.80176H15.6133V9.21875C16.6436 9.21387 17.5762 9.18213 18.4111 9.12354C19.2461 9.06494 20.0859 8.96484 20.9307 8.82324L21.0918 10.3174C20.125 10.4932 19.1631 10.6128 18.2061 10.6763C17.249 10.7397 16.1406 10.7715 14.8809 10.7715H13.7529V5.32227H18.0449V3.13965H13.7383V1.63086H19.9053V6.80176Z" fill="white"/>
</svg>
