<svg width="18" height="18" viewBox="0 0 18 18" fill="none" xmlns="http://www.w3.org/2000/svg">
<g clip-path="url(#clip0_1214_37335)">
<path d="M14.3274 2.20957C12.9095 0.785629 11.0206 0.00141734 9.00856 0.00141734H8.99988C4.94819 -0.0815106 1.39361 3.48668 1.47703 7.53689C1.58308 10.3968 4.3344 14.0289 6.47696 16.8193C7.10618 17.571 8.02299 18 9.00793 18C10.0274 18 10.9739 17.5406 11.6048 16.7397C13.1943 14.7645 16.6264 10.0139 16.5228 7.53682C16.5228 5.52331 15.7431 3.6314 14.3274 2.20957ZM10.5002 15.8696C9.77361 16.828 8.24516 16.8297 7.51828 15.8712C4.61307 12.1719 2.88311 9.09111 2.88311 7.53685C2.88311 4.15716 5.62708 1.40761 8.99988 1.40761H9.00856C12.3766 1.40761 15.1166 4.1572 15.1166 7.53685C15.1166 9.10802 13.434 12.1452 10.5002 15.8696ZM9.03939 10.5123C7.39177 10.5123 6.05131 9.17186 6.05131 7.52423C6.21545 3.56015 11.8639 3.56131 12.0275 7.52427C12.0275 9.1719 10.687 10.5123 9.03939 10.5123ZM9.03939 5.94231C8.16712 5.94231 7.45747 6.65196 7.45747 7.52423C7.54437 9.62288 10.5347 9.62225 10.6213 7.52423C10.6213 6.65196 9.9117 5.94231 9.03939 5.94231Z" fill="#FF5A5A"/>
</g>
<defs>
<clipPath id="clip0_1214_37335">
<rect width="18" height="18" fill="white"/>
</clipPath>
</defs>
</svg>
