<svg width="18" height="18" viewBox="0 0 18 18" fill="none" xmlns="http://www.w3.org/2000/svg">
<path fill-rule="evenodd" clip-rule="evenodd" d="M8.79552 7.09642C8.99972 7.20297 9.24945 7.16466 9.41232 7.0018L12.2617 4.15274C12.394 4.02048 12.4463 3.82806 12.3992 3.64703C12.3521 3.46601 12.2126 3.32349 12.0327 3.27248L4.15839 1.04041C3.97452 0.988283 3.77683 1.03973 3.64169 1.17487L2.02556 2.791C1.90683 2.90973 1.85173 3.0779 1.8772 3.24387C1.90266 3.40983 2.00564 3.55375 2.15451 3.63142L8.79552 7.09642ZM3.27939 3.02872L4.16858 2.13953L10.8807 4.04217L8.94027 5.98233L3.27939 3.02872Z" fill="#E291FF"/>
<path fill-rule="evenodd" clip-rule="evenodd" d="M14.7561 16.1228C14.9221 16.1483 15.0903 16.0932 15.209 15.9744L16.8251 14.3583C16.9603 14.2232 17.0117 14.0255 16.9596 13.8416L14.7275 5.96731C14.6765 5.78735 14.534 5.64788 14.353 5.60078C14.1719 5.55367 13.9795 5.60599 13.8473 5.73826L10.9982 8.58768C10.8353 8.75055 10.797 9.00028 10.9036 9.20448L14.3686 15.8455C14.4462 15.9944 14.5902 16.0973 14.7561 16.1228ZM14.9713 14.7206L12.0177 9.05973L13.9578 7.11932L15.8605 13.8314L14.9713 14.7206Z" fill="#E291FF"/>
<path fill-rule="evenodd" clip-rule="evenodd" d="M7.73921 17.9948C7.90332 18.018 8.06881 17.9627 8.18602 17.8455L9.57293 16.4586C9.70725 16.3243 9.75895 16.1281 9.70827 15.945L8.71625 12.3614L11.7438 9.33386L11.7439 9.33384L16.5349 4.54241C17.3273 3.74999 17.8377 2.71928 17.9871 1.60853C17.9963 1.542 18 1.47778 18 1.41644C18 0.573721 17.2556 -0.103146 16.3921 0.0127697L16.3918 0.0128078C15.8366 0.0876408 15.3012 0.252234 14.8053 0.497669L14.8051 0.497744C14.3097 0.743095 13.8539 1.06881 13.4576 1.46507L5.63856 9.28375L2.05495 8.29173C1.87188 8.24105 1.6757 8.29275 1.54138 8.42707L0.154461 9.81398C0.0372562 9.93119 -0.0180226 10.0967 0.0052119 10.2608C0.0284464 10.4249 0.12749 10.5685 0.272623 10.6486L4.83468 13.1653L7.35139 17.7274C7.43145 17.8725 7.57509 17.9716 7.73921 17.9948ZM7.93613 16.6039L5.68456 12.5225C5.63648 12.4353 5.5647 12.3635 5.47754 12.3154L1.39612 10.0639L2.06981 9.39019L5.65342 10.3822C5.83649 10.4329 6.03267 10.3812 6.167 10.2469L14.2034 2.21085C14.518 1.89626 14.8798 1.63767 15.2732 1.44287C15.6666 1.24819 16.0916 1.1175 16.5327 1.05804C16.7533 1.02859 16.9453 1.20175 16.9453 1.41644C16.9453 1.43487 16.9442 1.45109 16.9422 1.46568L16.9419 1.46747C16.8234 2.34917 16.4183 3.16747 15.7891 3.79664L13.8471 5.73867L13.8471 5.73869L7.75313 11.833C7.61881 11.9673 7.56711 12.1635 7.61779 12.3466L8.60981 15.9302L7.93613 16.6039Z" fill="#E291FF"/>
</svg>
