<svg width="114" height="26" viewBox="0 0 114 26" fill="none" xmlns="http://www.w3.org/2000/svg">
<g clip-path="url(#clip0_924_41275)">
<path d="M53.3633 21.1244H74.9238C74.9238 21.1244 77.1251 21.1179 77.1251 18.4114C77.1251 15.7049 74.8566 15.7081 74.8566 15.7081H62.1166C62.1166 15.7081 54.6566 15.938 54.6566 8.02241C54.6566 0.106836 61.2085 0 61.2085 0H82.0169V5.14755H62.7708C62.7708 5.14755 60.753 5.18317 60.753 8.04184C60.753 10.9005 62.9298 10.7225 62.9298 10.7225H76.801C76.801 10.7225 83.2826 10.8293 83.2826 18.2269C83.2826 25.6245 76.1957 26 76.1957 26H50.5322L53.3633 21.1212V21.1244Z" fill="#5382E2"/>
<path d="M79.4786 21.1244H105.503C105.503 21.1244 107.704 21.0435 107.704 18.3369C107.704 15.6304 105.436 15.7114 105.436 15.7114H92.6955C92.6955 15.7114 85.2356 15.9412 85.2356 8.02565C85.2356 0.110074 91.7875 0 91.7875 0H112.596V5.14755H93.3498C93.3498 5.14755 91.3319 5.18317 91.3319 8.04184C91.3319 10.9005 93.5088 10.7225 93.5088 10.7225H107.38C107.38 10.7225 113.862 10.8293 113.862 18.2269C113.862 25.6245 106.775 26 106.775 26H76.3906L79.4786 21.1212V21.1244Z" fill="#5382E2"/>
<path d="M0.302678 26H5.41764C5.58579 26 5.72031 25.8576 5.72031 25.6795V5.36123C5.72031 5.18317 5.85484 5.04072 6.02299 5.04072H18.9495C18.974 5.04072 18.9984 5.04072 19.0198 5.05043C19.3164 5.12489 21.2609 5.68821 21.2609 7.66953C21.2609 9.65085 19.0534 10.0037 18.8455 10.0264C18.8333 10.0264 18.8272 10.0264 18.815 10.0264H10.0312C10.0312 10.0264 10.019 10.0264 10.0128 10.0264C9.86303 10.0393 8.04696 10.2206 8.04696 12.2246C8.04696 14.2286 9.36468 15.5204 9.36468 15.5204L21.1783 25.9255C21.2333 25.9741 21.3006 26 21.3709 26H30.705C30.8151 26 30.9129 25.9385 30.968 25.8381L40.0453 9.0584C40.0453 9.0584 40.5528 7.93177 41.1092 9.11344C41.632 10.2239 49.2846 24.1935 50.1865 25.8414C50.2415 25.9417 50.3394 26 50.4494 26H56.1942C56.4235 26 56.5703 25.7378 56.4602 25.5241L44.1971 1.71585C44.1971 1.71585 43.338 0 41.6657 0H39.0241C38.9935 0 38.966 0.00323746 38.9385 0.0129498C38.7061 0.0841738 37.6391 0.479143 37.0093 1.71585C36.3 3.11119 26.174 22.6784 26.174 22.6784C26.174 22.6784 25.7429 23.4036 24.9603 22.5715C24.1776 21.7395 18.5306 16.4592 18.5306 16.4592C18.5306 16.4592 17.5492 15.7178 18.1913 15.0412C18.2432 14.9862 18.3197 14.957 18.3961 14.957H21.9916C22.013 14.957 22.0344 14.957 22.0558 14.9506C22.5083 14.8405 27.6935 13.4646 27.6935 7.77313C27.6935 2.08168 24.0492 0 21.2119 0H2.21047C2.18601 0 2.16461 0 2.14321 0.00971237C1.86804 0.0776989 0 0.615117 0 2.30507V25.6795C0 25.8576 0.134524 26 0.302678 26Z" fill="white"/>
</g>
<defs>
<clipPath id="clip0_924_41275">
<rect width="113.862" height="26" fill="white"/>
</clipPath>
</defs>
</svg>
