<svg width="20" height="20" viewBox="0 0 20 20" fill="none" xmlns="http://www.w3.org/2000/svg">
<path d="M18.2563 7.39999C17.8916 7.34702 17.5435 7.21245 17.238 7.00632C16.9326 6.80018 16.6775 6.52779 16.4919 6.20942C16.3063 5.89106 16.1949 5.53492 16.166 5.16753C16.1371 4.80014 16.1915 4.43096 16.325 4.08749C16.4099 3.86295 16.4224 3.61746 16.3608 3.38545C16.2991 3.15343 16.1664 2.94653 15.9813 2.79374C15.1638 2.10728 14.2333 1.56802 13.2313 1.19999C13.0031 1.11523 12.754 1.10464 12.5194 1.16973C12.2849 1.23482 12.0769 1.37227 11.925 1.56249C11.6964 1.85478 11.4043 2.09117 11.0708 2.25375C10.7372 2.41633 10.3711 2.50082 10 2.50082C9.62897 2.50082 9.26279 2.41633 8.92926 2.25375C8.59572 2.09117 8.30359 1.85478 8.07501 1.56249C7.92315 1.37227 7.71513 1.23482 7.48059 1.16973C7.24604 1.10464 6.99694 1.11523 6.76876 1.19999C5.84356 1.53977 4.97851 2.02504 4.20626 2.63749C4.0116 2.7916 3.87139 3.00397 3.80616 3.24352C3.74093 3.48308 3.75411 3.73722 3.84376 3.96874C3.98799 4.3213 4.04757 4.70275 4.01775 5.08249C3.98792 5.46224 3.86951 5.8297 3.67201 6.15542C3.47452 6.48114 3.20343 6.75603 2.88051 6.95806C2.55758 7.16008 2.1918 7.28361 1.81251 7.31874C1.56627 7.34507 1.33498 7.44977 1.15271 7.61741C0.970433 7.78506 0.846801 8.0068 0.800014 8.24999C0.683637 8.82606 0.625014 9.41229 0.625014 9.99999C0.624158 10.492 0.663876 10.9833 0.743764 11.4687C0.783523 11.7197 0.904855 11.9506 1.089 12.1257C1.27315 12.3008 1.50985 12.4104 1.76251 12.4375C2.15014 12.4739 2.5234 12.6026 2.85108 12.8128C3.17875 13.0231 3.4513 13.3087 3.64591 13.6459C3.84052 13.9831 3.95152 14.362 3.96963 14.7509C3.98775 15.1398 3.91244 15.5274 3.75001 15.8812C3.64372 16.1114 3.61735 16.3705 3.6751 16.6173C3.73285 16.8641 3.8714 17.0846 4.06876 17.2437C4.88133 17.9177 5.80287 18.4483 6.79376 18.8125C6.92048 18.8564 7.05343 18.8796 7.18751 18.8812C7.37137 18.8808 7.55245 18.8364 7.71557 18.7515C7.87869 18.6667 8.0191 18.544 8.12501 18.3937C8.34777 18.0692 8.64638 17.8039 8.99491 17.6209C9.34344 17.4379 9.73137 17.3428 10.125 17.3437C10.5064 17.3442 10.8825 17.4338 11.2232 17.6052C11.5639 17.7766 11.8598 18.0252 12.0875 18.3312C12.239 18.5348 12.4535 18.6826 12.6977 18.7515C12.9418 18.8205 13.202 18.8068 13.4375 18.7125C14.3436 18.3478 15.1871 17.8438 15.9375 17.2187C16.126 17.0629 16.2603 16.8513 16.3209 16.6143C16.3815 16.3773 16.3655 16.1272 16.275 15.9C16.128 15.552 16.0639 15.1746 16.0878 14.7975C16.1117 14.4205 16.2228 14.0542 16.4125 13.7275C16.6023 13.4008 16.8653 13.1227 17.1809 12.9151C17.4966 12.7075 17.8561 12.5761 18.2313 12.5312C18.4745 12.4976 18.7007 12.3874 18.8771 12.2166C19.0536 12.0458 19.171 11.8233 19.2125 11.5812C19.3129 11.0599 19.3673 10.5308 19.375 9.99999C19.3751 9.44008 19.3228 8.8814 19.2188 8.33124C19.1766 8.09455 19.0609 7.87718 18.8881 7.71001C18.7153 7.54283 18.4942 7.43436 18.2563 7.39999ZM13.125 9.99999C13.125 10.6181 12.9417 11.2222 12.5984 11.7361C12.255 12.2501 11.7669 12.6506 11.1959 12.8871C10.6249 13.1236 9.99655 13.1855 9.39036 13.0649C8.78417 12.9444 8.22734 12.6467 7.79031 12.2097C7.35327 11.7727 7.05564 11.2158 6.93506 10.6096C6.81448 10.0035 6.87637 9.37513 7.11289 8.80411C7.34941 8.23309 7.74995 7.74503 8.26386 7.40165C8.77776 7.05827 9.38195 6.87499 10 6.87499C10.8288 6.87499 11.6237 7.20423 12.2097 7.79028C12.7958 8.37633 13.125 9.17119 13.125 9.99999Z" fill="#fff"/>
</svg>
