<svg width="28" height="28" viewBox="0 0 28 28" fill="none" xmlns="http://www.w3.org/2000/svg">
<g filter="url(#filter0_d_1423_41502)">
<path fill-rule="evenodd" clip-rule="evenodd" d="M14 20C19.5228 20 24 15.5228 24 10C24 4.47715 19.5228 0 14 0C8.47715 0 4 4.47715 4 10C4 15.5228 8.47715 20 14 20ZM14 14C16.2091 14 18 12.2091 18 10C18 7.79086 16.2091 6 14 6C11.7909 6 10 7.79086 10 10C10 12.2091 11.7909 14 14 14Z" fill="url(#paint0_linear_1423_41502)"/>
</g>
<defs>
<filter id="filter0_d_1423_41502" x="0" y="0" width="28" height="28" filterUnits="userSpaceOnUse" color-interpolation-filters="sRGB">
<feFlood flood-opacity="0" result="BackgroundImageFix"/>
<feColorMatrix in="SourceAlpha" type="matrix" values="0 0 0 0 0 0 0 0 0 0 0 0 0 0 0 0 0 0 127 0" result="hardAlpha"/>
<feOffset dy="4"/>
<feGaussianBlur stdDeviation="2"/>
<feComposite in2="hardAlpha" operator="out"/>
<feColorMatrix type="matrix" values="0 0 0 0 0 0 0 0 0 0 0 0 0 0 0 0 0 0 0.1 0"/>
<feBlend mode="normal" in2="BackgroundImageFix" result="effect1_dropShadow_1423_41502"/>
<feBlend mode="normal" in="SourceGraphic" in2="effect1_dropShadow_1423_41502" result="shape"/>
</filter>
<linearGradient id="paint0_linear_1423_41502" x1="5.45669" y1="3.08966e-07" x2="15.4161" y2="19.149" gradientUnits="userSpaceOnUse">
<stop stop-color="#09A2B7"/>
<stop offset="1" stop-color="#15B6BF"/>
</linearGradient>
</defs>
</svg>
