<svg width="23" height="22" viewBox="0 0 23 22" fill="none" xmlns="http://www.w3.org/2000/svg">
<path fill-rule="evenodd" clip-rule="evenodd" d="M11.6458 22C5.85366 22 1.14575 17.2921 1.14575 11.5C1.14575 5.70791 5.85366 1 11.6458 1C17.4378 1 22.1458 5.70791 22.1458 11.5C22.1458 17.2921 17.4378 22 11.6458 22ZM11.6458 2.46512C10.8881 2.46512 10.152 2.55887 9.44832 2.7354C9.44568 2.80535 9.43276 2.87541 9.40901 2.94368C9.01165 4.1379 8.70027 5.35819 8.47488 6.59336C10.5815 6.36004 12.7121 6.36019 14.8176 6.59384C14.5921 5.35569 14.2804 4.132 13.8825 2.934C13.8607 2.8686 13.8487 2.80204 13.8457 2.73602C13.1412 2.5591 12.4042 2.46512 11.6458 2.46512ZM15.0483 8.09823C12.7915 7.81575 10.5007 7.81532 8.24381 8.09693C7.96133 10.3534 7.96113 12.6438 8.24323 14.9018C10.5 15.1843 12.7908 15.1847 15.0477 14.9031C15.3302 12.6467 15.3304 10.3562 15.0483 8.09823ZM6.74369 8.32671C6.511 10.4336 6.51094 12.5647 6.74351 14.6715C5.5066 14.4461 4.28475 14.1345 3.08948 13.7368C3.02121 13.7131 2.95113 13.7001 2.88117 13.6975C2.70463 12.9938 2.61087 12.2576 2.61087 11.5C2.61087 10.7414 2.70486 10.0044 2.88182 9.29991C2.94737 9.29663 3.01381 9.28467 3.07971 9.26325C4.27818 8.86447 5.50338 8.55229 6.74369 8.32671ZM6.9533 6.8033C5.78722 6.99621 4.63228 7.26165 3.49701 7.59962C4.36274 5.79843 5.80848 4.32649 7.59049 3.42754C7.63214 3.43588 7.67516 3.44074 7.71925 3.44182C7.39564 4.54661 7.14032 5.66967 6.9533 6.8033ZM16.5535 8.32952C17.7885 8.55488 19.0085 8.86612 20.202 9.26325C20.2714 9.28927 20.3408 9.29988 20.4102 9.30193C20.5868 10.0058 20.6806 10.7422 20.6806 11.5C20.6806 12.2578 20.5868 12.9941 20.4102 13.6979C20.3436 13.7014 20.2769 13.7142 20.2118 13.7368C19.0143 14.1353 17.79 14.4473 16.5507 14.6728C16.7852 12.5673 16.7861 10.4364 16.5535 8.32952ZM19.7959 7.60254C18.6624 7.26412 17.5088 6.99825 16.3436 6.80492C16.1513 5.64031 15.8865 4.4868 15.5495 3.35288C17.402 4.24422 18.9059 5.74923 19.7959 7.60254ZM7.71925 19.5581C7.39563 18.4533 7.1403 17.3301 6.95327 16.1965C5.81836 16.0092 4.69426 15.7528 3.58762 15.4266C3.58653 15.4702 3.58153 15.513 3.57296 15.5546C4.44596 17.2855 5.85954 18.6992 7.59036 19.5724C7.63206 19.564 7.67512 19.5592 7.71925 19.5581ZM11.6458 16.5791C10.5852 16.5791 9.52619 16.5214 8.47381 16.4055C8.69928 17.6439 9.01102 18.8678 9.40901 20.066C9.43165 20.1311 9.44445 20.1978 9.44789 20.2645C10.1517 20.4411 10.888 20.5349 11.6458 20.5349C12.4028 20.5349 13.1385 20.4413 13.8417 20.265C13.8445 20.1955 13.8577 20.1252 13.8825 20.0563C14.28 18.8618 14.5914 17.6412 14.8168 16.4056C13.7643 16.5215 12.7058 16.5791 11.6458 16.5791ZM15.5398 19.6518C15.879 18.5173 16.1456 17.3627 16.3394 16.1966C17.4759 16.0093 18.6027 15.7529 19.7137 15.4266C19.7146 15.4657 19.7186 15.504 19.7253 15.5413C18.8259 17.3318 17.3486 18.7841 15.5398 19.6518Z" fill="white"/>
</svg>
