<svg width="18" height="18" viewBox="0 0 18 18" fill="none" xmlns="http://www.w3.org/2000/svg">
<g clip-path="url(#clip0_70_1358)">
<path d="M17.7005 16.2493L14.5444 13.025C15.7931 11.5965 16.4773 9.79922 16.4773 7.92817C16.4773 3.55665 12.7813 0 8.23863 0C3.69592 0 0 3.55665 0 7.92817C0 12.2997 3.69592 15.8563 8.23863 15.8563C9.94403 15.8563 11.5692 15.3614 12.9587 14.4217L16.1516 17.6829C16.3561 17.8873 16.6312 18 16.926 18C17.2051 18 17.4698 17.8976 17.6707 17.7115C18.0977 17.3161 18.1113 16.6605 17.7005 16.2493ZM8.23863 2.06822C11.5964 2.06822 14.3281 4.69693 14.3281 7.92817C14.3281 11.1594 11.5964 13.7881 8.23863 13.7881C4.88085 13.7881 2.14921 11.1594 2.14921 7.92817C2.14921 4.69693 4.88085 2.06822 8.23863 2.06822Z" fill="#F8F9FC"/>
</g>
<defs>
<clipPath id="clip0_70_1358">
<rect width="18" height="18" fill="white"/>
</clipPath>
</defs>
</svg>
