<svg width="29" height="28" viewBox="0 0 29 28" fill="none" xmlns="http://www.w3.org/2000/svg">
<g clip-path="url(#clip0_825_34358)">
<path d="M0.67882 7L0.398438 7.50504V22.1057C0.398438 23.0692 1.17948 23.8502 2.14297 23.8502H26.6539C27.6174 23.8502 28.3984 23.0692 28.3984 22.1057V7.50504L28.1181 7H0.67882Z" fill="#DDEAFB"/>
<path d="M6.0001 15H20.7968C21.1302 15 21.3984 14.7804 21.3984 14.5074V14.4926C21.3984 14.2196 21.1302 14 20.7968 14H6.0001C5.66665 14 5.39844 14.2196 5.39844 14.4926V14.5074C5.39844 14.7804 5.66665 15 6.0001 15Z" fill="#A2C6F8"/>
<path d="M6.0001 18H20.7968C21.1302 18 21.3984 17.7804 21.3984 17.5074V17.4926C21.3984 17.2196 21.1302 17 20.7968 17H6.0001C5.66665 17 5.39844 17.2196 5.39844 17.4926V17.5074C5.39844 17.7804 5.66665 18 6.0001 18Z" fill="#A2C6F8"/>
<path d="M17.8641 11.8156H10.6125L10.2188 10.9078L10.5687 10H17.8641C17.9898 10 18.0883 10.0984 18.0883 10.2242V11.5859C18.0883 11.7117 17.9898 11.8102 17.8641 11.8102V11.8156Z" fill="#FE99A0"/>
<path d="M11.0336 11.816H9.62266C9.49687 11.816 9.39844 11.7176 9.39844 11.5918V10.2301C9.39844 10.1043 9.49687 10.0059 9.62266 10.0059H11.0336C10.9078 10.0059 10.8094 10.1043 10.8094 10.2301V11.5918C10.8094 11.7176 10.9078 11.816 11.0336 11.816Z" fill="#FD8087"/>
<path d="M25.5418 6.83105V19.0801C25.5418 20.0436 24.7608 20.8247 23.7973 20.8247H0.398438V21.9367C0.398438 22.9002 1.17948 23.6813 2.14297 23.6813H26.6539C27.6174 23.6813 28.3984 22.9002 28.3984 21.9367V7.33609L28.1181 6.83105H25.5418Z" fill="#CBE2FF"/>
<path d="M26.6539 2.52148H2.14297C1.17948 2.52148 0.398438 3.30253 0.398438 4.26602V7.33595H28.3984V4.26602C28.3984 3.30253 27.6174 2.52148 26.6539 2.52148Z" fill="#698ED5"/>
<path d="M26.655 2.52148H25.543V7.33595H28.3996V4.26602C28.3996 3.30253 27.6185 2.52148 26.655 2.52148Z" fill="#4073C8"/>
<path d="M3.56003 5.71186C3.9923 5.71186 4.34272 5.36144 4.34272 4.92917C4.34272 4.49691 3.9923 4.14648 3.56003 4.14648C3.12776 4.14648 2.77734 4.49691 2.77734 4.92917C2.77734 5.36144 3.12776 5.71186 3.56003 5.71186Z" fill="#DD636E"/>
<path d="M5.96628 5.71186C6.39855 5.71186 6.74897 5.36144 6.74897 4.92917C6.74897 4.49691 6.39855 4.14648 5.96628 4.14648C5.53401 4.14648 5.18359 4.49691 5.18359 4.92917C5.18359 5.36144 5.53401 5.71186 5.96628 5.71186Z" fill="#FFE07D"/>
<path d="M8.37644 5.71186C8.8087 5.71186 9.15913 5.36144 9.15913 4.92917C9.15913 4.49691 8.8087 4.14648 8.37644 4.14648C7.94417 4.14648 7.59375 4.49691 7.59375 4.92917C7.59375 5.36144 7.94417 5.71186 8.37644 5.71186Z" fill="#86F1A7"/>
</g>
<defs>
<clipPath id="clip0_825_34358">
<rect width="28" height="28" fill="white" transform="translate(0.398438)"/>
</clipPath>
</defs>
</svg>
