<svg width="29" height="28" viewBox="0 0 29 28" fill="none" xmlns="http://www.w3.org/2000/svg">
<g clip-path="url(#clip0_822_37235)">
<path d="M27.9426 28.0002H4.17578V4.97363H27.9426C28.3885 4.97363 28.7501 5.33516 28.7501 5.78108V27.1927C28.7501 27.6387 28.3886 28.0002 27.9426 28.0002Z" fill="#DDEAFB"/>
<path d="M28.7501 26.208V27.193C28.7501 27.6385 28.3885 28.0001 27.943 28.0001H4.17578V4.97363H7.51569L9.00803 6.46598L27.1573 24.6152L28.7501 26.208Z" fill="url(#paint0_linear_822_37235)"/>
<path d="M28.7496 5.78108C28.7496 5.33516 28.3881 4.97363 27.9422 4.97363H17.5188C17.4959 5.17172 17.4828 5.37294 17.4808 5.57695C17.4643 7.21797 18.1501 8.69835 19.2553 9.73813L28.7496 19.2324V5.78108Z" fill="url(#paint1_linear_822_37235)"/>
<path d="M26.4557 26.5076H5.76953V6.46582H26.4557C26.8438 6.46582 27.1584 6.78046 27.1584 7.16857V25.8048C27.1584 26.1929 26.8438 26.5076 26.4557 26.5076Z" fill="url(#paint2_linear_822_37235)"/>
<path d="M26.4557 8.15137H5.76953V26.5074H26.4557C26.8438 26.5074 27.1584 26.1928 27.1584 25.8046V8.85417C27.1584 8.46601 26.8438 8.15137 26.4557 8.15137Z" fill="#74D860"/>
<path d="M17.1797 21.9125H18.717V19.4261C18.717 18.2379 19.1797 17.1208 20.0199 16.2806C20.86 15.4405 21.9771 14.9777 23.1653 14.9777H27.1556V13.4404H23.1653C21.5665 13.4404 20.0634 14.0631 18.9329 15.1936C17.8023 16.3241 17.1797 17.8273 17.1797 19.4261V21.9125H17.1797Z" fill="#E9EDF5"/>
<path d="M18.0051 21.9123H16.4679V16.0198C16.4679 14.8316 16.0052 13.7145 15.165 12.8743C14.3248 12.0341 13.2077 11.5714 12.0196 11.5714H5.16406V10.0342H12.0195C13.6184 10.0342 15.1215 10.6568 16.252 11.7874C17.3825 12.9179 18.0051 14.421 18.0051 16.0198V21.9123Z" fill="#E9EDF5"/>
<path d="M4.94531 16.4863H27.1574V19.8578H4.94531V16.4863Z" fill="url(#paint3_linear_822_37235)"/>
<path d="M4.94531 17.3281H27.1574V19.8578H4.94531V17.3281Z" fill="url(#paint4_linear_822_37235)"/>
<path d="M5.76953 19.8584H16.4639V26.5076H5.76953V19.8584Z" fill="url(#paint5_linear_822_37235)"/>
<path d="M19.2188 19.8584V26.5078H26.4541C26.8422 26.5078 27.1569 26.1932 27.1569 25.805V19.8584H19.2188Z" fill="#6DA6E0"/>
<path d="M16.4609 19.8584H19.2172V26.5078H16.4609V19.8584Z" fill="#E9EDF5"/>
<path d="M7.50915 4.96701C7.47489 4.15051 5.9759 3.49316 4.13042 3.49316C2.285 3.49316 0.785961 4.15051 0.751702 4.96701H0.75V26.4981C0.75 27.3274 2.26343 28 4.13042 28C5.99742 28 7.51085 27.3274 7.51085 26.4981V4.96701H7.50915Z" fill="#DDEAFB"/>
<path d="M7.51085 26.4977C7.51085 27.3269 5.99742 27.9995 4.13042 27.9995C2.26343 27.9995 0.75 27.3269 0.75 26.4977C0.75 25.6677 2.26343 24.9951 4.13042 24.9951C5.99742 24.9951 7.51085 25.6677 7.51085 26.4977Z" fill="#A1BCDE"/>
<path d="M7.51048 26.4986C7.51048 27.3278 5.99706 28.0004 4.13006 28.0004C3.91753 28.0004 3.70967 27.9915 3.50786 27.975C3.45273 27.9661 3.39948 27.9558 3.34716 27.9441C3.28364 27.9297 3.22198 27.9139 3.16263 27.8967C3.12338 27.885 3.08511 27.8727 3.04822 27.8596C3.02955 27.8528 3.01132 27.8465 2.99359 27.8397C2.7423 27.7449 2.55267 27.6185 2.45456 27.4749C2.41251 27.4137 2.38681 27.3484 2.38028 27.2818C2.37935 27.2708 2.37891 27.2592 2.37891 27.2482V25.2132C2.88993 25.0758 3.48919 24.9961 4.13006 24.9961C4.14499 24.9961 4.16042 24.9961 4.17535 24.9968C6.02138 25.007 7.51048 25.6755 7.51048 26.4986Z" fill="#A1BCDE"/>
<path d="M28.7496 5.63459C28.7496 2.52269 26.2269 0 23.1151 0C20.0167 0 17.5118 2.4786 17.4808 5.57678C17.4573 7.9167 18.8604 9.93144 20.8736 10.8053C21.2105 10.9515 21.4987 11.1908 21.7051 11.4945L22.7133 12.9777C22.9061 13.2612 23.324 13.2612 23.5168 12.9777L24.5249 11.4945C24.7307 11.1918 25.0174 10.9522 25.3533 10.8066C27.3516 9.94071 28.7496 7.95107 28.7496 5.63459Z" fill="#FF7044"/>
<path d="M23.1154 8.5042C24.7 8.5042 25.9847 7.21957 25.9847 5.63491C25.9847 4.05025 24.7 2.76562 23.1154 2.76562C21.5307 2.76562 20.2461 4.05025 20.2461 5.63491C20.2461 7.21957 21.5307 8.5042 23.1154 8.5042Z" fill="url(#paint6_linear_822_37235)"/>
</g>
<defs>
<linearGradient id="paint0_linear_822_37235" x1="17.0831" y1="16.4869" x2="-11.1711" y2="16.4869" gradientUnits="userSpaceOnUse">
<stop stop-color="#F0DDFC" stop-opacity="0"/>
<stop offset="0.2889" stop-color="#C8B7E0" stop-opacity="0.289"/>
<stop offset="0.5915" stop-color="#A595C8" stop-opacity="0.592"/>
<stop offset="0.8395" stop-color="#8F81B8" stop-opacity="0.84"/>
<stop offset="1" stop-color="#8779B3"/>
</linearGradient>
<linearGradient id="paint1_linear_822_37235" x1="27.057" y1="14.2236" x2="23.2533" y2="6.55272" gradientUnits="userSpaceOnUse">
<stop stop-color="#F0DDFC" stop-opacity="0"/>
<stop offset="0.2889" stop-color="#C8B7E0" stop-opacity="0.289"/>
<stop offset="0.5915" stop-color="#A595C8" stop-opacity="0.592"/>
<stop offset="0.8395" stop-color="#8F81B8" stop-opacity="0.84"/>
<stop offset="1" stop-color="#8779B3"/>
</linearGradient>
<linearGradient id="paint2_linear_822_37235" x1="8.03808" y1="9.2449" x2="32.467" y2="30.7999" gradientUnits="userSpaceOnUse">
<stop stop-color="#92F37F"/>
<stop offset="1" stop-color="#4AB272"/>
</linearGradient>
<linearGradient id="paint3_linear_822_37235" x1="19.8844" y1="18.2267" x2="-8.12498" y2="17.8277" gradientUnits="userSpaceOnUse">
<stop stop-color="#FFDA45"/>
<stop offset="1" stop-color="#FFA425"/>
</linearGradient>
<linearGradient id="paint4_linear_822_37235" x1="15.2293" y1="21.8813" x2="16.6271" y2="16.29" gradientUnits="userSpaceOnUse">
<stop stop-color="#FFDA45" stop-opacity="0"/>
<stop offset="1" stop-color="#FFEE83"/>
</linearGradient>
<linearGradient id="paint5_linear_822_37235" x1="17.1988" y1="25.2683" x2="0.935139" y2="19.6922" gradientUnits="userSpaceOnUse">
<stop stop-color="#7E8595"/>
<stop offset="1" stop-color="#555A66"/>
</linearGradient>
<linearGradient id="paint6_linear_822_37235" x1="22.413" y1="4.56372" x2="24.1085" y2="7.14938" gradientUnits="userSpaceOnUse">
<stop stop-color="#F9F7FC"/>
<stop offset="1" stop-color="#F0DDFC"/>
</linearGradient>
<clipPath id="clip0_822_37235">
<rect width="28" height="28" fill="white" transform="translate(0.75)"/>
</clipPath>
</defs>
</svg>
