<svg width="29" height="28" viewBox="0 0 29 28" fill="none" xmlns="http://www.w3.org/2000/svg">
<path d="M23.2194 12.3461V25.9607C23.2194 27.087 22.3063 28.0001 21.1799 28.0001H4.43788C3.31154 28.0001 2.39844 27.087 2.39844 25.9607V4.63124C2.39844 3.5049 3.31154 2.5918 4.43788 2.5918H13.4705L23.2194 12.3407V12.3461Z" fill="#BED8FB"/>
<path d="M7.02773 25.3974C5.90138 25.3974 4.98828 24.4843 4.98828 23.3579V2.03945C4.98828 0.913103 5.90138 0 7.02773 0H16.0603C17.6132 0 25.8092 8.19606 25.8092 9.74888V23.3634C25.8092 24.4897 24.8961 25.4029 23.7698 25.4029H7.02773V25.3974Z" fill="#DDEAFB"/>
<path d="M25.812 9.74888V10.6128C25.812 8.7975 24.3412 7.32669 22.5259 7.32669H20.5247C19.3984 7.32669 18.4853 6.41359 18.4853 5.28725V3.28608C18.4853 1.47081 17.0145 0 15.1992 0H16.0631C17.6159 0 19.1031 0.617848 20.2021 1.71685L24.1006 5.61531C25.1996 6.71431 25.8175 8.20152 25.8175 9.75434L25.812 9.74888Z" fill="#BED8FB"/>
<path d="M8.71232 8.05355H15.9679C16.471 8.05355 16.8756 7.64894 16.8756 7.14591V7.11857C16.8756 6.61555 16.471 6.21094 15.9679 6.21094H8.71232C8.2093 6.21094 7.80469 6.61555 7.80469 7.11857V7.14591C7.80469 7.64894 8.2093 8.05355 8.71232 8.05355Z" fill="#A2C6F8"/>
<path d="M8.71232 12.8963H21.9824C22.4854 12.8963 22.89 12.4917 22.89 11.9887V11.9613C22.89 11.4583 22.4854 11.0537 21.9824 11.0537H8.71232C8.2093 11.0537 7.80469 11.4583 7.80469 11.9613V11.9887C7.80469 12.4917 8.2093 12.8963 8.71232 12.8963Z" fill="#A2C6F8"/>
<path d="M8.71232 17.7381H21.9824C22.4854 17.7381 22.89 17.3335 22.89 16.8305V16.8031C22.89 16.3001 22.4854 15.8955 21.9824 15.8955H8.71232C8.2093 15.8955 7.80469 16.3001 7.80469 16.8031V16.8305C7.80469 17.3335 8.2093 17.7381 8.71232 17.7381Z" fill="#A2C6F8"/>
</svg>
