<svg width="29" height="28" viewBox="0 0 29 28" fill="none" xmlns="http://www.w3.org/2000/svg">
<path d="M23.4205 12.3442V25.9587C23.4205 27.0851 22.5074 27.9982 21.3811 27.9982H4.63905C3.51271 27.9982 2.59961 27.0851 2.59961 25.9587V4.62929C2.59961 3.50295 3.51271 2.58984 4.63905 2.58984H13.6717L23.4205 12.3387V12.3442Z" fill="#BED8FB"/>
<path d="M7.23085 25.3974C6.10451 25.3974 5.19141 24.4843 5.19141 23.3579V2.03945C5.19141 0.913103 6.10451 0 7.23085 0H16.2635C17.8163 0 26.0123 8.19606 26.0123 9.74888V23.3634C26.0123 24.4897 25.0992 25.4029 23.9729 25.4029H7.23085V25.3974Z" fill="#DDEAFB"/>
<path d="M26.0132 9.74888V10.6128C26.0132 8.7975 24.5424 7.32669 22.7271 7.32669H20.7259C19.5996 7.32669 18.6865 6.41359 18.6865 5.28725V3.28608C18.6865 1.47081 17.2157 0 15.4004 0H16.2643C17.8171 0 19.3043 0.617848 20.4033 1.71685L24.3018 5.61531C25.4008 6.71431 26.0186 8.20152 26.0186 9.75434L26.0132 9.74888Z" fill="#BED8FB"/>
<path d="M8.91349 8.05355H16.1691C16.6721 8.05355 17.0767 7.64894 17.0767 7.14591V7.11857C17.0767 6.61555 16.6721 6.21094 16.1691 6.21094H8.91349C8.41047 6.21094 8.00586 6.61555 8.00586 7.11857V7.14591C8.00586 7.64894 8.41047 8.05355 8.91349 8.05355Z" fill="#A2C6F8"/>
<path d="M8.91349 12.8973H22.1836C22.6866 12.8973 23.0912 12.4927 23.0912 11.9897V11.9623C23.0912 11.4593 22.6866 11.0547 22.1836 11.0547H8.91349C8.41047 11.0547 8.00586 11.4593 8.00586 11.9623V11.9897C8.00586 12.4927 8.41047 12.8973 8.91349 12.8973Z" fill="#A2C6F8"/>
<path d="M8.91349 17.7371H22.1836C22.6866 17.7371 23.0912 17.3325 23.0912 16.8295V16.8022C23.0912 16.2991 22.6866 15.8945 22.1836 15.8945H8.91349C8.41047 15.8945 8.00586 16.2991 8.00586 16.8022V16.8295C8.00586 17.3325 8.41047 17.7371 8.91349 17.7371Z" fill="#A2C6F8"/>
</svg>
