<svg width="20" height="20" viewBox="0 0 20 20" fill="none" xmlns="http://www.w3.org/2000/svg">
<g clip-path="url(#clip0_1_830)">
<path d="M20 6.04252C20 4.86335 19.53 3.74252 18.6725 2.88502C14.8625 -0.92498 5.13583 -0.924147 1.3275 2.88502C0.47 3.74252 0 4.86335 0 6.04169V9.16669H2.7775L1.275 11.985C0.440833 13.5475 0 15.3109 0 17.0834V20H20V17.0834C20 15.3109 19.5592 13.5475 18.7258 11.985L17.2225 9.16669H20V6.04252ZM18.3333 17.0834V18.3334H1.66667V17.0834C1.66667 15.5834 2.03917 14.0917 2.74583 12.77L4.895 8.74002L6.02083 6.86335C6.50833 6.59669 8.07083 5.83335 10 5.83335C11.9292 5.83335 13.4942 6.59752 13.9792 6.86335L15.105 8.74002L17.255 12.7709C17.9608 14.0925 18.3333 15.5825 18.3333 17.0834ZM18.3333 7.50002H16.305L15.1967 5.65252C15.1967 5.65252 12.8283 4.16669 10 4.16669C7.17167 4.16669 4.80333 5.65252 4.80333 5.65252L3.695 7.50002H1.66667V6.04085C1.66667 5.30752 1.96333 4.60502 2.50583 4.06335C5.72833 0.84252 14.2733 0.84252 17.4942 4.06335C18.0358 4.60502 18.3342 5.30752 18.3333 6.04169V7.50002ZM10 8.33335C7.7025 8.33335 5.83333 10.2025 5.83333 12.5C5.83333 14.7975 7.7025 16.6667 10 16.6667C12.2975 16.6667 14.1667 14.7975 14.1667 12.5C14.1667 10.2025 12.2975 8.33335 10 8.33335ZM10 15C8.62167 15 7.5 13.8784 7.5 12.5C7.5 11.1217 8.62167 10 10 10C11.3783 10 12.5 11.1217 12.5 12.5C12.5 13.8784 11.3783 15 10 15Z" fill="white" fill-opacity="0.85"/>
</g>
<defs>
<clipPath id="clip0_1_830">
<rect width="20" height="20" fill="white"/>
</clipPath>
</defs>
</svg>
