<svg width="20" height="20" viewBox="0 0 20 20" fill="none" xmlns="http://www.w3.org/2000/svg">
<g clip-path="url(#clip0_1_787)">
<path d="M15.8333 1.66667H15V0.833333C15 0.373333 14.6275 0 14.1667 0C13.7058 0 13.3333 0.373333 13.3333 0.833333V1.66667H6.66667V0.833333C6.66667 0.373333 6.29417 0 5.83333 0C5.3725 0 5 0.373333 5 0.833333V1.66667H4.16667C1.86917 1.66667 0 3.53583 0 5.83333V15.8333C0 18.1308 1.86917 20 4.16667 20H7.5C7.96083 20 8.33333 19.6267 8.33333 19.1667C8.33333 18.7067 7.96083 18.3333 7.5 18.3333H4.16667C2.78833 18.3333 1.66667 17.2117 1.66667 15.8333V8.33333H19.1667C19.6275 8.33333 20 7.96 20 7.5V5.83333C20 3.53583 18.1308 1.66667 15.8333 1.66667ZM18.3333 6.66667H1.66667V5.83333C1.66667 4.455 2.78833 3.33333 4.16667 3.33333H15.8333C17.2117 3.33333 18.3333 4.455 18.3333 5.83333V6.66667ZM15.7325 10.7325L10.9767 15.4883C10.3467 16.1175 10 16.955 10 17.845V19.1667C10 19.6267 10.3725 20 10.8333 20H12.155C13.045 20 13.8825 19.6525 14.5117 19.0233L19.2675 14.2675C19.7392 13.795 20 13.1675 20 12.4992C20 11.8308 19.7392 11.2033 19.2675 10.7317C18.2925 9.75667 16.7075 9.7575 15.7325 10.7325ZM18.0892 13.0892L13.3333 17.845C13.0183 18.16 12.6 18.3333 12.155 18.3333H11.6667V17.845C11.6667 17.4067 11.845 16.9767 12.155 16.6667L16.9108 11.9108C17.2367 11.5858 17.7633 11.5858 18.0892 11.9108C18.2467 12.0675 18.3333 12.2767 18.3333 12.5C18.3333 12.7233 18.2467 12.9317 18.0892 13.0892Z" fill="#2F468D"/>
</g>
<defs>
<clipPath id="clip0_1_787">
<rect width="20" height="20" fill="white"/>
</clipPath>
</defs>
</svg>
