<svg width="20" height="20" viewBox="0 0 20 20" fill="none" xmlns="http://www.w3.org/2000/svg">
<g clip-path="url(#clip0_1_841)">
<path d="M17.5 1.66667H10.1967L6.86333 0H2.5C1.12167 0 0 1.12167 0 2.5V18.3333H9.2325C8.93333 17.8175 8.70417 17.2583 8.55167 16.6667H1.66667V6.66667H18.3333V9.2325C18.9617 9.59667 19.5233 10.0592 20 10.6008V4.16667C20 2.78833 18.8783 1.66667 17.5 1.66667ZM1.66667 5V2.5C1.66667 2.04083 2.04 1.66667 2.5 1.66667H6.47L9.80333 3.33333H17.5C17.96 3.33333 18.3333 3.7075 18.3333 4.16667V5H1.66667ZM18.9167 11.7825L17.7408 12.46C17.2367 11.9167 16.58 11.5217 15.8325 11.3508V10H14.1658V11.3508C13.4192 11.5217 12.7617 11.9167 12.2575 12.46L11.0817 11.7825L10.25 13.2258L11.43 13.9058C11.3225 14.2542 11.2483 14.6167 11.2483 15C11.2483 15.3833 11.3225 15.7458 11.43 16.0942L10.25 16.7742L11.0817 18.2175L12.2575 17.54C12.7617 18.0833 13.4183 18.4783 14.1658 18.6492V20H15.8325V18.6492C16.5792 18.4783 17.2367 18.0833 17.7408 17.54L18.9167 18.2175L19.7483 16.7742L18.5683 16.0942C18.6758 15.7458 18.75 15.3833 18.75 15C18.75 14.6167 18.6758 14.2542 18.5683 13.9058L19.7483 13.2258L18.9167 11.7825ZM15 17.0833C13.8508 17.0833 12.9167 16.1492 12.9167 15C12.9167 13.8508 13.8508 12.9167 15 12.9167C16.1492 12.9167 17.0833 13.8508 17.0833 15C17.0833 16.1492 16.1492 17.0833 15 17.0833Z" fill="#2F468D" fill-opacity="0.85"/>
</g>
<defs>
<clipPath id="clip0_1_841">
<rect width="20" height="20" fill="white"/>
</clipPath>
</defs>
</svg>
