<svg width="20" height="20" viewBox="0 0 20 20" fill="none" xmlns="http://www.w3.org/2000/svg">
<g clip-path="url(#clip0_1_820)">
<path d="M10 0C8.02219 0 6.08879 0.58649 4.4443 1.6853C2.79981 2.78412 1.51809 4.3459 0.761209 6.17317C0.00433286 8.00043 -0.193701 10.0111 0.192152 11.9509C0.578004 13.8907 1.53041 15.6725 2.92894 17.0711C4.32746 18.4696 6.10929 19.422 8.0491 19.8079C9.98891 20.1937 11.9996 19.9957 13.8268 19.2388C15.6541 18.4819 17.2159 17.2002 18.3147 15.5557C19.4135 13.9112 20 11.9778 20 10C19.9971 7.34872 18.9426 4.80684 17.0679 2.9321C15.1932 1.05736 12.6513 0.00286757 10 0ZM10.8333 18.2908V15.8333H9.16667V18.2908C7.25515 18.0962 5.46932 17.248 4.11068 15.8893C2.75204 14.5307 1.9038 12.7449 1.70917 10.8333H4.16667V9.16667H1.70917C1.9038 7.25514 2.75204 5.46932 4.11068 4.11068C5.46932 2.75203 7.25515 1.9038 9.16667 1.70917V4.16667H10.8333V1.70917C12.7449 1.9038 14.5307 2.75203 15.8893 4.11068C17.248 5.46932 18.0962 7.25514 18.2908 9.16667H15.8333V10.8333H18.2908C18.0962 12.7449 17.248 14.5307 15.8893 15.8893C14.5307 17.248 12.7449 18.0962 10.8333 18.2908ZM10.8333 9.16667H12.5V10.8333H10.8333V12.5H9.16667V10.8333H7.5V9.16667H9.16667V7.5H10.8333V9.16667Z" fill="white" fill-opacity="0.85"/>
</g>
<defs>
<clipPath id="clip0_1_820">
<rect width="20" height="20" fill="white"/>
</clipPath>
</defs>
</svg>
