<svg width="80" height="80" viewBox="0 0 80 80" fill="none" xmlns="http://www.w3.org/2000/svg">
<path d="M35.2915 54.8652H33.3535V57.832H35.2418C36.5559 57.832 37.1466 57.3093 37.1466 56.4332C37.1466 55.4725 36.4381 54.8652 35.2932 54.8652H35.2915Z" fill="#ECECEC"/>
<path d="M36.742 51.5954C36.742 50.7691 36.1182 50.248 35.0911 50.248H33.3555V52.9941H35.0579C36.0352 52.9941 36.7437 52.4715 36.7437 51.5954H36.742Z" fill="#ECECEC"/>
<path d="M52.3437 0H20.2119C15.5178 0 11.6982 3.82296 11.6982 8.51537V40H10.8669C8.97203 40 7.43555 41.5348 7.43555 43.4314V64.2386C7.43555 66.1351 8.97203 67.67 10.8669 67.67H11.6982V71.4846C11.6982 76.1804 15.5178 80 20.2136 80H64.0548C68.7455 80 72.5668 76.182 72.5668 71.4846V20.1518L52.3437 0ZM64.0531 74.7849H20.2119C18.395 74.7849 16.915 73.3048 16.915 71.4846V67.67H57.7844C59.6793 67.67 61.2158 66.1351 61.2158 64.2386V43.4314C61.2158 41.5348 59.6793 40 57.7844 40H16.915V8.51537C16.915 6.70013 18.395 5.22006 20.2119 5.22006L50.3924 5.18853V16.3438C50.3924 19.6026 53.0356 22.2491 56.2977 22.2491L67.2256 22.2176L67.3484 71.4846C67.3484 73.3048 65.8717 74.7849 64.0531 74.7849ZM18.3054 60.1568V47.9562H22.7705C26.4956 47.9562 28.787 50.2476 28.787 54.0573C28.787 57.867 26.4956 60.1585 22.7705 60.1585H18.3054V60.1568ZM40.1447 56.752C40.1447 58.7232 38.6116 60.1568 35.9152 60.1568H30.4894V47.9562H35.5286C38.2581 47.9562 39.6735 49.204 39.6735 51.0574C39.6735 52.4561 38.7294 53.4168 37.3986 53.6856V53.8035C38.8654 53.8715 40.1447 54.9832 40.1447 56.752ZM49.2956 52.8759V55.2188H44.4256V60.1568H41.5601V47.9562H49.8348V50.2991H44.4256V52.8776H49.2956V52.8759Z" fill="#ECECEC"/>
<path d="M22.6367 50.3984H21.1699V57.6959H22.6699C24.7589 57.6959 25.9055 56.702 25.9055 54.0555C25.9055 51.4089 24.7589 50.3984 22.6367 50.3984Z" fill="#ECECEC"/>
</svg>
