<svg width="113" height="187" viewBox="0 0 113 187" fill="none" xmlns="http://www.w3.org/2000/svg">
<path d="M14.7129 164H11.9199L5.08789 154.117H4.95898V164H1.73633V148.445H4.57227L11.3613 158.328H11.5117V148.445H14.7129V164ZM31.5781 156.223C31.5781 157.87 31.263 159.299 30.6328 160.509C30.0026 161.712 29.1361 162.632 28.0332 163.27C26.9375 163.9 25.6986 164.215 24.3164 164.215C22.9271 164.215 21.681 163.896 20.5781 163.259C19.4753 162.621 18.6087 161.701 17.9785 160.498C17.3483 159.288 17.0332 157.863 17.0332 156.223C17.0332 154.576 17.3483 153.15 17.9785 151.947C18.6087 150.737 19.4753 149.817 20.5781 149.187C21.681 148.549 22.9271 148.23 24.3164 148.23C25.6986 148.23 26.9375 148.549 28.0332 149.187C29.1361 149.817 30.0026 150.737 30.6328 151.947C31.263 153.15 31.5781 154.576 31.5781 156.223ZM28.291 156.223C28.291 155.127 28.1263 154.196 27.7969 153.43C27.4746 152.663 27.0163 152.083 26.4219 151.689C25.8275 151.288 25.1257 151.088 24.3164 151.088C23.5072 151.088 22.8018 151.288 22.2002 151.689C21.6058 152.083 21.1439 152.667 20.8145 153.44C20.485 154.207 20.3203 155.134 20.3203 156.223C20.3203 157.311 20.485 158.242 20.8145 159.016C21.1439 159.782 21.6058 160.366 22.2002 160.767C22.8018 161.16 23.5072 161.357 24.3164 161.357C25.1257 161.357 25.8275 161.16 26.4219 160.767C27.0163 160.366 27.4746 159.782 27.7969 159.016C28.1263 158.249 28.291 157.318 28.291 156.223ZM39.6348 148.445H48.3145V151.109H45.5859V161.336H48.3145V164H39.6348V161.336H42.3633V151.109H39.6348V148.445ZM54.3301 148.445L58.6484 158.994H58.8203L63.1387 148.445H67.1348V164H63.998V153.816H63.8691L59.8086 163.936H57.6602L53.5996 153.773H53.4707V164H50.334V148.445H54.3301ZM68.875 164L74.2676 148.445H78.4141L83.7852 164H80.3262L79.1553 160.412H73.5264L72.3555 164H68.875ZM78.3389 157.898L76.3945 151.947H76.2871L74.3428 157.898H78.3389ZM95.1504 153.451C94.9355 152.714 94.5381 152.137 93.958 151.722C93.3851 151.299 92.6797 151.088 91.8418 151.088C91.0397 151.088 90.3343 151.288 89.7256 151.689C89.1169 152.09 88.6442 152.678 88.3076 153.451C87.971 154.217 87.8027 155.134 87.8027 156.201C87.8027 157.283 87.9674 158.21 88.2969 158.983C88.6335 159.757 89.1061 160.348 89.7148 160.756C90.3236 161.157 91.0397 161.357 91.8633 161.357C92.5938 161.357 93.224 161.229 93.7539 160.971C94.291 160.706 94.7028 160.33 94.9893 159.843C95.2829 159.356 95.4368 158.786 95.4512 158.135H92.0781V155.707H98.5664V157.641C98.5664 158.98 98.2799 160.147 97.707 161.143C97.1413 162.131 96.3499 162.89 95.333 163.42C94.3161 163.95 93.1523 164.215 91.8418 164.215C90.3952 164.215 89.1169 163.893 88.0068 163.248C86.904 162.596 86.0446 161.673 85.4287 160.477C84.82 159.273 84.5156 157.863 84.5156 156.244C84.5156 154.604 84.8307 153.179 85.4609 151.969C86.0911 150.758 86.9577 149.835 88.0605 149.197C89.1634 148.553 90.4023 148.23 91.7773 148.23C92.9303 148.23 93.9831 148.452 94.9355 148.896C95.8952 149.333 96.6794 149.949 97.2881 150.744C97.8968 151.532 98.2728 152.434 98.416 153.451H95.1504ZM100.93 148.445H111.371V151.109H104.152V154.891H110.834V157.555H104.152V161.336H111.393V164H100.93V148.445ZM7.47461 187L11.8867 174.273H15.2793L19.6738 187H16.8438L15.8857 184.064H11.2803L10.3223 187H7.47461ZM15.2178 182.008L13.627 177.139H13.5391L11.9482 182.008H15.2178ZM24.877 183.977H25L28.1113 174.273H31.0293L26.6348 187H23.2422L18.8301 174.273H21.7832L24.877 183.977ZM30.0801 187L34.4922 174.273H37.8848L42.2793 187H39.4492L38.4912 184.064H33.8857L32.9277 187H30.0801ZM37.8232 182.008L36.2324 177.139H36.1445L34.5537 182.008H37.8232ZM43.2285 174.273H50.3301V176.453H48.0977V184.82H50.3301V187H43.2285V184.82H45.4609V176.453H43.2285V174.273ZM51.9824 174.273H54.6191V184.82H60.1035V187H51.9824V174.273ZM61.4219 187L65.834 174.273H69.2266L73.6211 187H70.791L69.833 184.064H65.2275L64.2695 187H61.4219ZM69.165 182.008L67.5742 177.139H67.4863L65.8955 182.008H69.165ZM75.0625 174.273H80.125C81.0391 174.273 81.8125 174.411 82.4453 174.687C83.0781 174.962 83.5527 175.346 83.8691 175.838C84.1855 176.324 84.3438 176.893 84.3438 177.543C84.3438 178.264 84.1328 178.858 83.7109 179.327C83.2949 179.796 82.7441 180.109 82.0586 180.268V180.391C82.5508 180.414 83.0078 180.555 83.4297 180.812C83.8574 181.07 84.2002 181.431 84.458 181.894C84.7217 182.351 84.8535 182.881 84.8535 183.484C84.8535 184.17 84.6836 184.776 84.3438 185.304C84.0098 185.831 83.5117 186.247 82.8496 186.552C82.1934 186.851 81.3965 187 80.459 187H75.0625V174.273ZM79.9316 184.82C80.6699 184.82 81.2178 184.683 81.5752 184.407C81.9326 184.126 82.1113 183.736 82.1113 183.238C82.1113 182.881 82.0234 182.564 81.8477 182.289C81.6777 182.014 81.4346 181.8 81.1182 181.647C80.8018 181.489 80.4297 181.41 80.002 181.41H77.6992V184.82H79.9316ZM79.7383 179.6C80.1074 179.6 80.4385 179.535 80.7314 179.406C81.0244 179.271 81.2529 179.081 81.417 178.835C81.5869 178.589 81.6719 178.299 81.6719 177.965C81.6719 177.496 81.5049 177.121 81.1709 176.84C80.8428 176.559 80.3828 176.418 79.791 176.418H77.6992V179.6H79.7383ZM86.5234 174.273H89.1602V184.82H94.6445V187H86.5234V174.273ZM96.3496 174.273H104.893V176.453H98.9863V179.547H104.453V181.727H98.9863V184.82H104.91V187H96.3496V174.273Z" fill="#ECECEC"/>
<g clip-path="url(#clip0_250_2746)">
<path d="M13.5169 96.2127L69.6296 40.592L70.5705 39.6576L76.1212 34.1555C76.1212 34.1555 76.1186 34.1504 76.1161 34.1479L87.9844 22.3615C87.9844 22.3615 87.9947 22.3742 87.9998 22.3793L93.4635 16.9635C93.4635 16.9635 93.4507 16.9482 93.4431 16.9381L104.938 5.52246L99.4974 0.121875L88.0023 11.5375C79.5216 4.34687 68.5302 0 56.5315 0C29.7727 0 8.00462 21.6201 8.00462 48.1939C7.84611 58.109 11.7784 70.8449 17.5489 81.5039L8.12735 90.8604L13.5169 96.2127ZM42.495 56.7277C38.6139 50.4334 39.4116 42.0773 44.8906 36.6336C48.0993 33.4471 52.3154 31.8525 56.5315 31.8525C59.5152 31.8525 62.4989 32.6549 65.1272 34.252L42.495 56.7277ZM15.7004 48.1939C15.7004 25.835 34.0169 7.64258 56.5315 7.64258C66.4056 7.64258 75.4743 11.1414 82.5411 16.9584L70.6728 28.7447C61.2359 21.968 47.9408 22.7957 39.4499 31.2305C30.9564 39.6652 30.1255 52.8658 36.9469 62.2375L23.2607 75.8291C18.7608 66.818 15.6978 57.327 15.6978 48.1939H15.7004Z" fill="#ECECEC"/>
<path d="M68.1727 59.7519C64.5652 63.3345 59.6844 64.9011 54.9646 64.4542L48.5396 70.8222C51.1219 71.7185 53.8269 72.1705 56.5319 72.1705C62.7192 72.1705 68.904 69.832 73.6135 65.155C80.3709 58.4443 82.2731 48.7146 79.3329 40.2976L72.9104 46.663C73.3501 51.3425 71.7726 56.1744 68.1727 59.7494V59.7519Z" fill="#ECECEC"/>
<path d="M91.9606 27.7849C111.893 60.5388 70.8215 105.8 56.5319 119.544C51.513 114.641 40.1381 102.895 30.6654 88.5421L25.1045 94.0544C26.9684 96.8245 28.9754 99.6226 31.1282 102.438C45.3001 120.44 51.8607 125.595 56.5344 130C80.6751 108.26 122.005 59.5663 97.4985 22.2954L91.9631 27.7823L91.9606 27.7849Z" fill="#ECECEC"/>
</g>
<defs>
<clipPath id="clip0_250_2746">
<rect width="97" height="130" fill="white" transform="translate(8)"/>
</clipPath>
</defs>
</svg>
