<svg width="86" height="109" viewBox="0 0 86 109" fill="none" xmlns="http://www.w3.org/2000/svg">
<path fill-rule="evenodd" clip-rule="evenodd" d="M55.3437 0H23.2119C18.5178 0 14.6982 3.82296 14.6982 8.51537V40H13.8669C11.972 40 10.4355 41.5348 10.4355 43.4314V64.2386C10.4355 66.1351 11.972 67.67 13.8669 67.67H14.6982V71.4846C14.6982 76.1804 18.5178 80 23.2136 80H67.0548C71.7455 80 75.5668 76.182 75.5668 71.4846V20.1518L55.3437 0ZM67.0531 74.7849H23.2119C21.395 74.7849 19.915 73.3048 19.915 71.4846V67.67H60.7844C62.6793 67.67 64.2158 66.1351 64.2158 64.2386V43.4314C64.2158 41.5348 62.6793 40 60.7844 40H19.915V8.51537C19.915 6.70013 21.395 5.22006 23.2119 5.22006L53.3924 5.18853V16.3438C53.3924 19.6026 56.0356 22.2491 59.2977 22.2491L70.2256 22.2176L70.3484 71.4846C70.3484 73.3048 68.8717 74.7849 67.0531 74.7849ZM22.6706 57.9997H20.9383L17.4256 52.9207H17.3659V57.9997H15.3349V49.3483H17.0921L20.5699 54.4273H20.6413V49.3483H22.6722V57.9997H22.6706ZM23.8768 53.674C23.8768 56.518 25.6589 58.1192 27.9885 58.1192C30.3082 58.1192 32.1002 56.5296 32.1002 53.674C32.1002 50.8184 30.3198 49.2288 27.9885 49.2288C25.6572 49.2288 23.8768 50.83 23.8768 53.674ZM25.9576 53.674C25.9576 51.9533 26.7225 51.0208 27.9885 51.0208C29.2545 51.0208 30.0195 51.9533 30.0195 53.674C30.0195 55.3947 29.2545 56.3272 27.9885 56.3272C26.7225 56.3272 25.9576 55.3947 25.9576 53.674ZM36.0426 49.3466H41.9098V51.0075H38.0736V52.8361H41.5265V54.497H38.0736V57.9981H36.0426V49.3466ZM42.9618 57.9997H44.9927V49.3483H42.9618V57.9997ZM46.3069 49.3466H48.3378V56.3371H51.9699V57.9981H46.3052V49.3466H46.3069ZM59.0218 49.3466H53.0352V57.9981H59.0334V56.3371H55.0661V54.497H58.7099V52.8361H55.0661V51.0075H59.0218V49.3466Z" fill="#ECECEC"/>
<path d="M31.116 32.4417C30.5635 32.4417 30.0126 32.231 29.5912 31.8095C28.7483 30.9666 28.7483 29.601 29.5912 28.7598L42.4522 15.8988C43.2951 15.0559 44.6606 15.0559 45.5019 15.8988C46.3448 16.7417 46.3448 18.1073 45.5019 18.9485L32.6409 31.8095C32.2194 32.231 31.6669 32.4417 31.116 32.4417Z" fill="#ECECEC"/>
<path d="M43.977 32.4421C43.4245 32.4421 42.8736 32.2313 42.4522 31.8099L29.5912 18.9489C28.7483 18.106 28.7483 16.7404 29.5912 15.8991C30.4341 15.0579 31.7997 15.0562 32.6409 15.8991L45.5019 28.7601C46.3448 29.603 46.3448 30.9686 45.5019 31.8099C45.0804 32.2313 44.5279 32.4421 43.977 32.4421Z" fill="#ECECEC"/>
<path d="M14.3184 92.4453V108H11.5254L4.69336 98.1172H4.56445V108H1.3418V92.4453H4.17773L10.9668 102.328H11.1172V92.4453H14.3184ZM31.1836 100.223C31.1836 105.293 28.0254 108.215 23.9219 108.215C19.7754 108.215 16.6387 105.271 16.6387 100.223C16.6387 95.1523 19.7754 92.2305 23.9219 92.2305C28.0254 92.2305 31.1836 95.1523 31.1836 100.223ZM27.8965 100.223C27.8965 96.8926 26.3281 95.0879 23.9219 95.0879C21.5156 95.0879 19.9258 96.8926 19.9258 100.223C19.9258 103.553 21.5156 105.357 23.9219 105.357C26.3281 105.357 27.8965 103.553 27.8965 100.223ZM39.8418 108V92.4453H50.0898V95.1094H43.0645V98.8906H49.4238V101.555H43.0645V108H39.8418ZM51.6152 95.1094V92.4453H60.2949V95.1094H57.5664V105.336H60.2949V108H51.6152V105.336H54.3438V95.1094H51.6152ZM62.3145 108V92.4453H65.5371V105.336H72.2402V108H62.3145ZM74.3242 108V92.4453H84.7656V95.1094H77.5469V98.8906H84.2285V101.555H77.5469V105.336H84.7871V108H74.3242Z" fill="#ECECEC"/>
</svg>
