<svg width="65" height="66" viewBox="0 0 65 66" fill="none" xmlns="http://www.w3.org/2000/svg">
<rect y="0.5" width="65" height="65" rx="32.5" fill="#415DCB"/>
<g clip-path="url(#clip0_844_40170)">
<path d="M32.5 25.7083V16.1708C33.8315 16.6754 35.0565 17.4527 36.0948 18.4896L41.1756 23.5733C42.214 24.6102 42.9913 25.8352 43.4958 27.1667H33.9583C33.1533 27.1667 32.5 26.5119 32.5 25.7083ZM27.5183 43.2083H22.2917C21.4867 43.2083 20.8333 42.555 20.8333 41.75C20.8333 40.945 21.4867 40.2917 22.2917 40.2917H26.7688C26.709 39.8133 26.6667 39.3292 26.6667 38.8333C26.6667 38.3375 26.6987 37.8533 26.7585 37.375H22.2917C21.4867 37.375 20.8333 36.7217 20.8333 35.9167C20.8333 35.1117 21.4867 34.4583 22.2917 34.4583H27.5315C27.9631 33.3967 28.5508 32.4196 29.2596 31.5417H22.2917C21.4867 31.5417 20.8333 30.8883 20.8333 30.0833C20.8333 29.2783 21.4867 28.625 22.2917 28.625H30.7121C30.0135 27.8506 29.5833 26.8313 29.5833 25.7083V15.535C29.3485 15.519 29.1138 15.5 28.876 15.5H22.2917C18.271 15.5 15 18.771 15 22.7917V43.2083C15 47.229 18.271 50.5 22.2917 50.5H36.875C37.0413 50.5 37.1973 50.4621 37.3606 50.4504C32.8894 50.08 29.1342 47.1925 27.5183 43.2083ZM45.4952 43.9331C46.8646 42.0096 47.4858 39.5173 46.8952 36.8704C46.1748 33.646 43.5746 31.0429 40.3473 30.3356C33.9817 28.9415 28.4429 34.4817 29.8356 40.8473C30.5429 44.0746 33.146 46.6748 36.3704 47.3952C39.0188 47.9873 41.511 47.3646 43.4331 45.9952L47.5106 50.0727C48.0794 50.6415 49.004 50.6415 49.5727 50.0727C50.1415 49.504 50.1415 48.5794 49.5727 48.0106L45.4952 43.9331ZM39.465 42.4267L39.4592 42.4325C38.3742 43.5175 36.4579 43.5204 35.3423 42.4048L33.1329 40.1079C32.5904 39.5435 32.5904 38.651 33.1329 38.0867C33.706 37.4902 34.6598 37.4902 35.2329 38.0867L37.4131 40.3515L41.6423 36.0187C42.214 35.4325 43.156 35.4325 43.7277 36.0187C44.2819 36.5846 44.2819 37.4902 43.7277 38.056L39.4621 42.4267H39.465Z" fill="white"/>
</g>
<defs>
<clipPath id="clip0_844_40170">
<rect width="35" height="35" fill="white" transform="translate(15 15.5)"/>
</clipPath>
</defs>
</svg>
