<svg width="65" height="66" viewBox="0 0 65 66" fill="none" xmlns="http://www.w3.org/2000/svg">
<rect y="0.5" width="65" height="65" rx="32.5" fill="#415DCB"/>
<g clip-path="url(#clip0_844_40229)">
<path d="M41.2505 34.458C39.9678 34.4536 38.7196 34.8735 37.7003 35.6522C36.6811 36.431 35.948 37.5249 35.6152 38.7637C35.2823 40.0025 35.3685 41.3166 35.8602 42.5013C36.3519 43.686 37.2216 44.6749 38.3338 45.3139V49.4453C38.3337 49.6534 38.3953 49.8568 38.5108 50.0298C38.6264 50.2028 38.7906 50.3376 38.9828 50.4172C39.175 50.4969 39.3865 50.5177 39.5905 50.4771C39.7946 50.4365 39.9819 50.3362 40.129 50.1891L41.2505 49.0691L42.3719 50.1891C42.519 50.3362 42.7064 50.4365 42.9104 50.4771C43.1144 50.5177 43.3259 50.4969 43.5181 50.4172C43.7103 50.3376 43.8746 50.2028 43.9901 50.0298C44.1056 49.8568 44.1672 49.6534 44.1671 49.4453V45.3139C45.2793 44.6749 46.149 43.686 46.6407 42.5013C47.1324 41.3166 47.2186 40.0025 46.8858 38.7637C46.5529 37.5249 45.8198 36.431 44.8006 35.6522C43.7813 34.8735 42.5332 34.4536 41.2505 34.458Z" fill="white"/>
<path d="M32.5 40.2917C32.4982 38.7552 32.9015 37.2453 33.6693 35.9144C34.4371 34.5834 35.5421 33.4784 36.8731 32.7107C38.2041 31.943 39.714 31.5398 41.2505 31.5417C42.787 31.5436 44.2959 31.9505 45.625 32.7215V22.7917C45.6227 20.8585 44.8537 19.0052 43.4868 17.6382C42.1198 16.2713 40.2665 15.5023 38.3333 15.5L26.6667 15.5C24.7335 15.5023 22.8802 16.2713 21.5132 17.6382C20.1463 19.0052 19.3773 20.8585 19.375 22.7917V40.2917C19.3773 42.2248 20.1463 44.0781 21.5132 45.4451C22.8802 46.8121 24.7335 47.581 26.6667 47.5833H35.4167V46.7958C34.4995 45.9786 33.7655 44.9766 33.2628 43.8556C32.7602 42.7347 32.5002 41.5202 32.5 40.2917ZM26.6667 21.3333H38.3333C38.7201 21.3333 39.091 21.487 39.3645 21.7605C39.638 22.034 39.7917 22.4049 39.7917 22.7917C39.7917 23.1784 39.638 23.5494 39.3645 23.8229C39.091 24.0964 38.7201 24.25 38.3333 24.25H26.6667C26.2799 24.25 25.909 24.0964 25.6355 23.8229C25.362 23.5494 25.2083 23.1784 25.2083 22.7917C25.2083 22.4049 25.362 22.034 25.6355 21.7605C25.909 21.487 26.2799 21.3333 26.6667 21.3333ZM26.6667 27.1667H38.3333C38.7201 27.1667 39.091 27.3203 39.3645 27.5938C39.638 27.8673 39.7917 28.2382 39.7917 28.625C39.7917 29.0118 39.638 29.3827 39.3645 29.6562C39.091 29.9297 38.7201 30.0833 38.3333 30.0833H26.6667C26.2799 30.0833 25.909 29.9297 25.6355 29.6562C25.362 29.3827 25.2083 29.0118 25.2083 28.625C25.2083 28.2382 25.362 27.8673 25.6355 27.5938C25.909 27.3203 26.2799 27.1667 26.6667 27.1667ZM31.0417 35.9167H26.6667C26.2799 35.9167 25.909 35.763 25.6355 35.4895C25.362 35.216 25.2083 34.8451 25.2083 34.4583C25.2083 34.0716 25.362 33.7006 25.6355 33.4271C25.909 33.1536 26.2799 33 26.6667 33H31.0417C31.4284 33 31.7994 33.1536 32.0729 33.4271C32.3464 33.7006 32.5 34.0716 32.5 34.4583C32.5 34.8451 32.3464 35.216 32.0729 35.4895C31.7994 35.763 31.4284 35.9167 31.0417 35.9167Z" fill="white"/>
</g>
<defs>
<clipPath id="clip0_844_40229">
<rect width="35" height="35" fill="white" transform="translate(15 15.5)"/>
</clipPath>
</defs>
</svg>
