<svg width="65" height="66" viewBox="0 0 65 66" fill="none" xmlns="http://www.w3.org/2000/svg">
<rect y="0.5" width="65" height="65" rx="32.5" fill="#09A2B7"/>
<path d="M32.5007 48.3121C36.5908 48.3121 40.4364 46.719 43.3283 43.8271C49.2985 37.8569 49.2985 28.1422 43.3283 22.1714C40.4364 19.2796 36.5913 17.6865 32.5007 17.6865C28.4101 17.6865 24.565 19.2796 21.6726 22.1714C15.7029 28.1417 15.7029 37.8569 21.6726 43.8271C24.5645 46.719 28.4101 48.3121 32.5007 48.3121ZM41.7713 26.8254C41.9376 26.845 42.0858 26.9402 42.1733 27.0835C44.9197 31.575 44.2421 37.3084 40.5255 41.0255C38.3823 43.1687 35.532 44.3494 32.5002 44.3494C30.3985 44.3494 28.3488 43.7725 26.5737 42.6814C26.4309 42.5939 26.3363 42.4457 26.3166 42.2795C26.297 42.1132 26.3544 41.9475 26.473 41.8289L41.3191 26.9823C41.4372 26.8636 41.6012 26.8073 41.7702 26.8259L41.7713 26.8254ZM24.4753 24.9742C26.6196 22.831 29.4694 21.6503 32.5007 21.6503C34.6023 21.6503 36.652 22.2272 38.4272 23.3182C38.5699 23.4057 38.6645 23.5539 38.6842 23.7202C38.7039 23.8864 38.6465 24.0521 38.5278 24.1708L23.6813 39.0174C23.5784 39.1202 23.439 39.1776 23.2946 39.1776C23.2733 39.1776 23.252 39.1765 23.2301 39.1738C23.0638 39.1541 22.9156 39.0589 22.8281 38.9157C20.0817 34.4242 20.7593 28.6907 24.4759 24.9736L24.4753 24.9742Z" fill="white"/>
</svg>
