<svg width="65" height="66" viewBox="0 0 65 66" fill="none" xmlns="http://www.w3.org/2000/svg">
<rect y="0.5" width="65" height="65" rx="32.5" fill="#415DCB"/>
<path d="M16.4004 20.5402V45.3202C16.4004 47.7002 18.3604 49.6602 20.7404 49.6602H39.3604C41.7404 49.6602 43.7004 47.7002 43.7004 45.3202V39.3002L42.7204 40.2802C41.7404 41.2602 40.3404 41.9602 38.9404 42.3802L36.0004 42.9402C34.7404 43.2202 33.3404 42.8002 32.6404 41.8202C31.9404 40.9802 31.6604 40.0002 31.9404 38.8802L32.6404 35.8002C32.9204 34.4002 33.6204 33.1402 34.7404 32.0202L41.7404 25.0202C42.3004 24.4602 43.1404 23.9002 43.8404 23.6202V20.5402C43.8404 18.1602 41.8804 16.2002 39.5004 16.2002H20.7404C18.3604 16.2002 16.4004 18.1602 16.4004 20.5402ZM23.2604 21.1002H36.7004C37.5404 21.1002 38.1004 21.6602 38.1004 22.5002C38.1004 23.3402 37.5404 23.9002 36.7004 23.9002H23.2604C22.4204 23.9002 21.8604 23.3402 21.8604 22.5002C21.8604 21.8002 22.5604 21.1002 23.2604 21.1002ZM23.2604 26.8402H31.1004C31.9404 26.8402 32.5004 27.4002 32.5004 28.2402C32.5004 29.0802 31.9404 29.6402 31.1004 29.6402H23.2604C22.4204 29.6402 21.8604 29.0802 21.8604 28.2402C21.8604 27.4002 22.5604 26.8402 23.2604 26.8402Z" fill="white"/>
<path d="M47.7597 27.1203C46.6397 26.0003 44.6797 26.0003 43.5597 27.1203L36.5597 34.1203C35.8597 34.8203 35.4397 35.5203 35.2997 36.5003L34.5997 39.4403C34.4597 39.8603 34.8797 40.2803 35.2997 40.1403L38.3797 39.4403C39.2197 39.3003 40.0597 38.7403 40.7597 38.1803L47.7597 31.1803C48.8797 30.0603 48.8797 28.2403 47.7597 27.1203Z" fill="white"/>
</svg>
