<svg width="65" height="66" viewBox="0 0 65 66" fill="none" xmlns="http://www.w3.org/2000/svg">
<rect y="0.5" width="65" height="65" rx="32.5" fill="#415DCB"/>
<g clip-path="url(#clip0_844_40189)">
<path d="M44.5866 39.6849C43.5838 38.8297 42.1448 38.6718 40.9492 39.1223L38.2278 36.4009C39.9259 34.2079 40.9369 31.4564 40.9369 28.4685C40.9369 21.3064 35.1305 15.5 27.9685 15.5C20.8064 15.5 15 21.3064 15 28.4685C15 35.6305 20.8064 41.4369 27.9685 41.4369C30.9564 41.4369 33.7079 40.4259 35.9009 38.7278L38.6223 41.4492C38.1718 42.6441 38.3297 44.0838 39.1849 45.0866C40.6225 46.7163 42.1605 48.2537 43.7896 49.6913C45.1779 50.8753 47.4044 50.7235 48.6588 49.4685L48.9685 49.1588C50.2235 47.9044 50.3746 45.6779 49.1913 44.2896C47.7537 42.6599 46.2156 41.1225 44.5866 39.6849ZM34.8112 35.3112C32.9833 37.1392 30.5531 38.1454 27.9685 38.1454C25.3838 38.1454 22.9536 37.1385 21.1257 35.3112C19.2978 33.4833 18.2915 31.0531 18.2915 28.4685C18.2915 25.8838 19.2984 23.4536 21.1257 21.6257C22.9529 19.7978 25.3838 18.7915 27.9685 18.7915C30.5531 18.7915 32.9833 19.7984 34.8112 21.6257C36.6392 23.4536 37.6454 25.8838 37.6454 28.4685C37.6454 31.0531 36.6385 33.4833 34.8112 35.3112Z" fill="white"/>
</g>
<defs>
<clipPath id="clip0_844_40189">
<rect width="35" height="35" fill="white" transform="translate(15 15.5)"/>
</clipPath>
</defs>
</svg>
