<svg width="65" height="66" viewBox="0 0 65 66" fill="none" xmlns="http://www.w3.org/2000/svg">
<rect y="0.5" width="65" height="65" rx="32.5" fill="#09A2B7"/>
<path d="M19.6192 43.4998H27.3192L26.6192 46.2998H23.5392C22.6992 46.2998 22.1392 46.8598 22.1392 47.6998C22.1392 48.3998 22.6992 49.0998 23.5392 49.0998H41.4592C42.2992 49.0998 42.8592 48.3998 42.8592 47.6998C42.8592 46.8598 42.2992 46.2998 41.4592 46.2998H38.5192L37.8192 43.4998H45.5192C47.6192 43.4998 49.4392 41.6798 49.4392 39.5798C49.4392 32.8598 49.4392 27.8198 49.4392 20.9598C49.4392 18.8598 47.6192 17.0398 45.5192 17.0398H19.6192C17.5192 16.8998 15.6992 18.7198 15.6992 20.8198V39.4398C15.6992 41.6798 17.3792 43.4998 19.6192 43.4998ZM18.4992 20.8198C18.4992 20.2598 19.0592 19.6998 19.6192 19.6998H45.3792C45.9392 19.6998 46.4992 20.2598 46.4992 20.8198V35.0998H18.4992V20.8198Z" fill="white"/>
<path d="M40.8992 30.0594C40.1992 30.0594 39.7792 29.6394 39.4992 29.2194C39.2192 28.6594 39.3592 28.0994 39.7792 27.6794L39.9192 27.5394C40.4792 26.9794 40.4792 26.1394 39.9192 25.5794L38.9392 24.5994C38.3792 24.0394 37.5392 24.0394 36.9792 24.5994L36.8392 24.7394C36.5592 25.2994 35.9992 25.2994 35.4392 25.1594C35.4392 25.1594 35.4392 25.1594 35.2992 25.1594C34.7392 25.0194 34.4592 24.4594 34.4592 23.8994V23.7594C34.4592 23.0594 33.8992 22.3594 33.0592 22.3594H31.7992C31.0992 22.3594 30.3992 22.9194 30.3992 23.7594V23.8994C30.3992 24.4594 30.1192 25.0194 29.5592 25.1594C29.5592 25.1594 29.5592 25.1594 29.4192 25.1594C28.9992 25.2994 28.4392 25.2994 28.0192 24.8794V24.7394C27.4592 24.1794 26.6192 24.1794 26.0592 24.7394L25.0792 25.7194C24.5192 26.2794 24.5192 27.1194 25.0792 27.6794L25.2192 27.8194C25.6392 28.0994 25.7792 28.6594 25.4992 29.2194C25.2192 29.7794 24.7992 30.0594 24.2392 30.0594H24.0992C23.3992 30.0594 22.6992 30.6194 22.6992 31.4594V32.2994H28.2992V32.1594C28.2992 29.7794 30.1192 27.9594 32.4992 27.9594C34.8792 27.9594 36.6992 29.7794 36.6992 32.1594V32.2994H42.2992V31.4594C42.2992 30.7594 41.5992 30.0594 40.8992 30.0594Z" fill="white"/>
</svg>
