<svg width="65" height="66" viewBox="0 0 65 66" fill="none" xmlns="http://www.w3.org/2000/svg">
<rect y="0.5" width="65" height="65" rx="32.5" fill="#09A2B7"/>
<g clip-path="url(#clip0_844_40161)">
<path d="M37.6048 19.875H33.959V15.5H31.0423V19.875H27.3965C25.6566 19.8769 23.9885 20.569 22.7582 21.7992C21.5279 23.0295 20.8359 24.6976 20.834 26.4375V38.8333C20.834 41.9275 22.0631 44.895 24.2511 47.0829C26.439 49.2708 29.4065 50.5 32.5007 50.5C35.5948 50.5 38.5623 49.2708 40.7502 47.0829C42.9382 44.895 44.1673 41.9275 44.1673 38.8333V26.4375C44.1654 24.6976 43.4734 23.0295 42.2431 21.7992C41.0128 20.569 39.3447 19.8769 37.6048 19.875ZM33.959 31.5417H31.0423V25.7083H33.959V31.5417Z" fill="white"/>
</g>
<defs>
<clipPath id="clip0_844_40161">
<rect width="35" height="35" fill="white" transform="translate(15 15.5)"/>
</clipPath>
</defs>
</svg>
