<svg width="65" height="66" viewBox="0 0 65 66" fill="none" xmlns="http://www.w3.org/2000/svg">
<rect y="0.5" width="65" height="65" rx="32.5" fill="#09A2B7"/>
<path d="M49.2984 46.4402V19.5602C49.2984 17.7402 47.7584 16.2002 45.9384 16.2002H37.2584C35.4384 16.2002 33.8984 17.7402 33.8984 19.5602V46.5802C33.8984 48.4002 35.4384 49.9402 37.2584 49.9402H45.9384C47.7584 49.8002 49.2984 48.2602 49.2984 46.4402ZM41.5984 45.6002C40.0584 45.6002 38.7984 44.3402 38.7984 42.8002C38.7984 41.2602 40.0584 40.0002 41.5984 40.0002C43.1384 40.0002 44.3984 41.2602 44.3984 42.8002C44.3984 44.3402 43.1384 45.6002 41.5984 45.6002ZM45.7984 33.8402C45.7984 34.5402 45.2384 35.2402 44.3984 35.2402H38.7984C38.0984 35.2402 37.3984 34.6802 37.3984 33.8402V21.9402C37.3984 21.1002 38.0984 20.4002 38.9384 20.4002H44.1184C45.0984 20.4002 45.7984 21.1002 45.7984 21.9402V33.8402Z" fill="white"/>
<path d="M19.0592 49.8002H27.7392C29.5592 49.8002 31.0992 48.2602 31.0992 46.4402V19.5602C31.0992 17.7402 29.5592 16.2002 27.7392 16.2002H19.0592C17.2392 16.2002 15.6992 17.7402 15.6992 19.5602V46.5802C15.6992 48.2602 17.2392 49.8002 19.0592 49.8002ZM23.3992 45.6002C21.8592 45.6002 20.5992 44.3402 20.5992 42.8002C20.5992 41.2602 21.8592 40.0002 23.3992 40.0002C24.9392 40.0002 26.1992 41.2602 26.1992 42.8002C26.1992 44.3402 24.9392 45.6002 23.3992 45.6002ZM19.1992 21.9402C19.1992 21.1002 19.8992 20.4002 20.7392 20.4002H25.9192C26.7592 20.4002 27.4592 21.1002 27.4592 21.9402V33.8402C27.4592 34.5402 26.8992 35.2402 26.0592 35.2402H20.5992C19.8992 35.2402 19.1992 34.6802 19.1992 33.8402V21.9402Z" fill="white"/>
</svg>
