<svg width="140" height="32" viewBox="0 0 140 32" fill="none" xmlns="http://www.w3.org/2000/svg">
<g clip-path="url(#clip0_105_112)">
<path d="M65.6131 25.9993H92.123C92.123 25.9993 94.8296 25.9913 94.8296 22.6602C94.8296 19.3291 92.0403 19.3331 92.0403 19.3331H76.3757C76.3757 19.3331 67.2032 19.616 67.2032 9.87374C67.2032 0.13149 75.2592 0 75.2592 0H100.844V6.33545H77.1801C77.1801 6.33545 74.6991 6.37928 74.6991 9.89765C74.6991 13.416 77.3756 13.1969 77.3756 13.1969H94.4311C94.4311 13.1969 102.401 13.3284 102.401 22.4331C102.401 31.5378 93.6868 32 93.6868 32H62.1321L65.6131 25.9953V25.9993Z" fill="#51D4C1"/>
<path d="M97.724 25.9993H129.722C129.722 25.9993 132.429 25.8996 132.429 22.5685C132.429 19.2375 129.64 19.3371 129.64 19.3371H113.975C113.975 19.3371 104.803 19.62 104.803 9.87772C104.803 0.135475 112.859 0 112.859 0H138.444V6.33545H114.78C114.78 6.33545 112.298 6.37928 112.298 9.89765C112.298 13.416 114.975 13.1969 114.975 13.1969H132.03C132.03 13.1969 140 13.3284 140 22.4331C140 31.5378 131.286 32 131.286 32H93.9272L97.724 25.9953V25.9993Z" fill="#51D4C1"/>
<path d="M0.37216 32H6.6613C6.86805 32 7.03346 31.8247 7.03346 31.6055V6.59843C7.03346 6.37928 7.19886 6.20396 7.40562 6.20396H23.2995C23.3296 6.20396 23.3596 6.20396 23.386 6.21591C23.7506 6.30756 26.1415 7.00087 26.1415 9.43942C26.1415 11.878 23.4273 12.3123 23.1717 12.3402C23.1567 12.3402 23.1491 12.3402 23.1341 12.3402H12.3339C12.3339 12.3402 12.3189 12.3402 12.3114 12.3402C12.1272 12.3561 9.8942 12.5793 9.8942 15.0457C9.8942 17.5121 11.5144 19.102 11.5144 19.102L26.04 31.9084C26.1076 31.9681 26.1903 32 26.2768 32H37.7536C37.8889 32 38.0092 31.9243 38.0769 31.8008L49.238 11.1488C49.238 11.1488 49.862 9.76217 50.5462 11.2165C51.189 12.5832 60.5982 29.7766 61.7072 31.8048C61.7749 31.9283 61.8952 32 62.0305 32H69.094C69.376 32 69.5564 31.6773 69.4211 31.4143L54.3429 2.11182C54.3429 2.11182 53.2866 0 51.2303 0H47.9824C47.9448 0 47.911 0.00398456 47.8771 0.0159382C47.5914 0.103599 46.2795 0.589715 45.5051 2.11182C44.6329 3.82916 32.1825 27.9118 32.1825 27.9118C32.1825 27.9118 31.6524 28.8044 30.6901 27.7804C29.7277 26.7563 22.7845 20.2575 22.7845 20.2575C22.7845 20.2575 21.5778 19.345 22.3672 18.5123C22.4311 18.4445 22.5251 18.4087 22.6191 18.4087H27.0399C27.0662 18.4087 27.0925 18.4087 27.1188 18.4007C27.6752 18.2652 34.0508 16.5718 34.0508 9.56693C34.0508 2.56207 29.5698 0 26.0813 0H2.7179C2.68783 0 2.66151 0 2.6352 0.0119537C2.29687 0.0956294 0 0.757067 0 2.83701V31.6055C0 31.8247 0.165405 32 0.37216 32Z" fill="white"/>
</g>
<defs>
<clipPath id="clip0_105_112">
<rect width="140" height="32" fill="white"/>
</clipPath>
</defs>
</svg>
