<svg width="490" height="36" viewBox="0 0 490 36" fill="none" xmlns="http://www.w3.org/2000/svg">
<g clip-path="url(#clip0_70_1300)">
<path d="M74.049 29.2492H103.967C103.967 29.2492 107.022 29.2402 107.022 25.4927C107.022 21.7452 103.874 21.7497 103.874 21.7497H86.1953C86.1953 21.7497 75.8436 22.068 75.8436 11.108C75.8436 0.147927 84.9353 0 84.9353 0H113.81V7.12738H87.1032C87.1032 7.12738 84.3031 7.17669 84.3031 11.1349C84.3031 15.093 87.3238 14.8465 87.3238 14.8465H106.572C106.572 14.8465 115.566 14.9944 115.566 25.2372C115.566 35.48 105.732 36 105.732 36H70.1204L74.049 29.2447V29.2492Z" fill="white"/>
<path d="M110.289 29.2492H146.401C146.401 29.2492 149.456 29.1371 149.456 25.3896C149.456 21.6421 146.308 21.7542 146.308 21.7542H128.629C128.629 21.7542 118.277 22.0725 118.277 11.1124C118.277 0.15241 127.369 0 127.369 0H156.244V7.12738H129.537C129.537 7.12738 126.737 7.17669 126.737 11.1349C126.737 15.093 129.758 14.8465 129.758 14.8465H149.006C149.006 14.8465 158 14.9944 158 25.2372C158 35.48 148.166 36 148.166 36H106.004L110.289 29.2447V29.2492Z" fill="white"/>
<path d="M0.42001 36H7.51775C7.75109 36 7.93776 35.8028 7.93776 35.5562V7.42323C7.93776 7.17669 8.12443 6.97946 8.35777 6.97946H26.2951C26.3291 6.97946 26.363 6.97946 26.3927 6.9929C26.8043 7.096 29.5025 7.87598 29.5025 10.6194C29.5025 13.3627 26.4394 13.8513 26.1509 13.8827C26.1339 13.8827 26.1254 13.8827 26.1085 13.8827H13.9197C13.9197 13.8827 13.9027 13.8827 13.8943 13.8827C13.6864 13.9006 11.1663 14.1517 11.1663 16.9264C11.1663 19.7012 12.9948 21.4897 12.9948 21.4897L29.3879 35.8969C29.4643 35.9641 29.5577 36 29.6552 36H42.6076C42.7604 36 42.8961 35.9148 42.9725 35.7759L55.5685 12.5424C55.5685 12.5424 56.2728 10.9824 57.045 12.6186C57.7704 14.1561 68.3894 33.4987 69.641 35.7804C69.7174 35.9193 69.8531 36 70.0058 36H77.9775C78.2957 36 78.4994 35.6369 78.3467 35.3411L61.3299 2.37579C61.3299 2.37579 60.1377 0 57.8171 0H54.1515C54.1091 0 54.0709 0.00448263 54.0328 0.0179305C53.7103 0.116548 52.2297 0.663429 51.3557 2.37579C50.3715 4.30781 36.3202 31.4008 36.3202 31.4008C36.3202 31.4008 35.722 32.4049 34.6359 31.2529C33.5499 30.1009 25.7139 22.7897 25.7139 22.7897C25.7139 22.7897 24.3521 21.7632 25.243 20.8263C25.3151 20.7501 25.4212 20.7098 25.5273 20.7098H30.5165C30.5462 20.7098 30.5759 20.7098 30.6056 20.7008C31.2334 20.5484 38.4288 18.6433 38.4288 10.7628C38.4288 2.88233 33.3717 0 29.4346 0H3.06734C3.0334 0 3.00371 0 2.97401 0.0134479C2.59218 0.107583 0 0.8517 0 3.19163V35.5562C0 35.8028 0.186671 36 0.42001 36Z" fill="white"/>
</g>
<path d="M202.477 19.6562V23.6406H188.648V35.5938H183.727V23.6406H170.055V19.6562H202.477ZM199.586 1.92188V5.82812H189.234C189.723 9.30469 193.648 12.8008 200.953 13.6797L199.156 17.5859C192.906 16.7461 188.434 14.0703 186.305 10.3984C184.117 14.0703 179.684 16.7461 173.492 17.5859L171.656 13.6797C178.844 12.8008 182.809 9.30469 183.375 5.82812H172.984V1.92188H199.586ZM236.164 27.3516V31.3359H203.625V27.3516H217.219V19.3047H222.18V27.3516H236.164ZM222.336 4.61719C222.336 9.69531 226.906 15.0469 235.031 16.2969L232.922 20.4375C226.672 19.3047 222.023 15.9648 219.68 11.5312C217.336 15.9453 212.727 19.3242 206.516 20.4375L204.406 16.2969C212.453 15.0469 216.984 9.65625 217.023 4.61719V2.07812H222.336V4.61719ZM267.156 0.046875V21.1406H262.195V12.7422H256.648V8.71875H262.195V0.046875H267.156ZM255.008 21.9219C262.586 21.9609 267.234 24.4609 267.273 28.7969C267.234 33.0938 262.586 35.6328 255.008 35.6328C247.43 35.6328 242.781 33.0938 242.781 28.7969C242.781 24.4609 247.43 21.9609 255.008 21.9219ZM255.008 25.75C250.281 25.75 247.742 26.7266 247.742 28.7969C247.742 30.8281 250.281 31.8438 255.008 31.8438C259.734 31.8438 262.312 30.8281 262.312 28.7969C262.312 26.7266 259.734 25.75 255.008 25.75ZM257.703 2.19531V6.17969H250.633C250.75 10.3203 253.25 14.5 258.797 16.3359L256.336 20.2422C252.41 18.9727 249.715 16.3945 248.172 13.1719C246.59 16.8047 243.758 19.7344 239.539 21.1797L236.961 17.2344C242.801 15.2812 245.418 10.6328 245.555 6.17969H238.406V2.19531H257.703ZM303.305 27.3906V31.4531H270.766V27.3906H284.477V20.8281H274.203V2.3125H279.203V7.82031H294.711V2.3125H299.672V20.8281H289.438V27.3906H303.305ZM279.203 16.8438H294.711V11.8047H279.203V16.8438ZM328.648 9.73438C328.648 15.4766 331.578 21.6094 337.555 24.1094L334.859 28.0156C330.66 26.2383 327.77 22.7031 326.188 18.3672C324.566 23.0742 321.617 26.9805 317.438 28.9141L314.586 24.9688C320.484 22.3516 323.531 15.75 323.531 9.73438V7.54688H315.992V3.48438H336.07V7.54688H328.648V9.73438ZM344.625 0.046875V35.5938H339.586V0.046875H344.625ZM378.547 0.0859375V26.9219H373.547V24.1094H366.75V20.7109H373.547V0.0859375H378.547ZM379.328 30.9844V34.9688H352.844V24.3438H357.805V19.6172C354.621 19.7539 351.594 19.7734 348.898 19.7734L348.312 15.8281C354.836 15.7891 363.625 15.7109 371.125 14.7734L371.398 18.3281C368.586 18.7969 365.676 19.1289 362.805 19.3438V26.1016H357.805V30.9844H379.328ZM359.875 1.29688C365.031 1.25781 368.742 3.875 368.742 7.66406C368.742 11.4531 365.031 13.9141 359.875 13.9141C354.602 13.9141 350.93 11.4531 350.93 7.66406C350.93 3.875 354.562 1.25781 359.875 1.29688ZM359.875 4.92969C357.336 4.92969 355.617 5.90625 355.656 7.66406C355.617 9.38281 357.336 10.3203 359.875 10.3203C362.258 10.3203 363.977 9.38281 364.016 7.66406C363.977 5.90625 362.258 4.92969 359.875 4.92969ZM395.828 8.09375C395.828 14.6172 398.797 21.1797 404.812 23.7188L401.883 27.7031C397.82 25.8672 395.008 22.332 393.406 17.9375C391.785 22.7227 388.875 26.5898 384.539 28.5625L381.531 24.4219C387.742 21.8047 390.75 15.0078 390.789 8.09375V2.78125H395.828V8.09375ZM411.766 0.046875V35.6719H406.727V0.046875H411.766ZM434.281 4.73438C434.281 9.92969 438.891 15.5156 446.938 16.8828L444.75 21.0234C438.559 19.793 433.949 16.3164 431.664 11.7266C429.301 16.2773 424.691 19.7734 418.539 21.0234L416.391 16.8828C424.281 15.4766 428.93 9.89062 428.969 4.73438V2.15625H434.281V4.73438ZM448.109 27.1172V31.2188H415.57V27.1172H448.109ZM464.102 2.15625V6.17969H455.312V8.99219H462.773V12.8203H455.312V15.9062C459.199 15.8477 462.031 15.6914 465.312 15.1641L465.82 19.0312C461.719 19.7344 458.32 19.8516 452.969 19.8516H450.547V2.15625H464.102ZM479.688 0.046875V21.2578H474.961V0.046875H479.688ZM472.617 0.59375V21.0234H467.891V12.5859H464.297V8.60156H467.891V0.59375H472.617ZM479.688 22.6641V35.2031H455.43V22.6641H479.688ZM460.391 26.5703V31.2188H474.766V26.5703H460.391Z" fill="white"/>
<defs>
<clipPath id="clip0_70_1300">
<rect width="158" height="36" fill="white"/>
</clipPath>
</defs>
</svg>
