<svg width="18" height="19" viewBox="0 0 18 19" fill="none" xmlns="http://www.w3.org/2000/svg">
<g clip-path="url(#clip0_1464_105682)">
<g clip-path="url(#clip1_1464_105682)">
<path d="M10.8924 7.91469C10.674 7.91469 10.4488 7.89133 10.2781 7.72059C10.0774 7.51995 10.0815 7.24641 10.0849 7.00527C10.0855 6.97287 10.0858 6.94078 10.0858 6.909V4.01404C10.0858 3.65887 10.3662 3.47287 10.6435 3.47287C10.9208 3.47287 11.2018 3.65856 11.2018 4.01404V6.00736L14.1881 3.02112C14.2955 2.91364 14.4248 2.85693 14.5625 2.85693C14.7872 2.85693 15.0081 3.01115 15.0997 3.23204C15.1844 3.43673 15.1399 3.64734 14.9772 3.80998L11.991 6.79622H13.9843C14.3395 6.79622 14.5255 7.07661 14.5255 7.3539C14.5255 7.63118 14.3395 7.9122 13.9843 7.9122H11.0893C11.0576 7.9122 11.0255 7.91282 10.9931 7.91313C10.9594 7.91376 10.9258 7.91407 10.8921 7.91407L10.8924 7.91469Z" fill="#2D2D2D"/>
<path d="M14.5624 2.91961C14.9432 2.91961 15.2818 3.41747 14.9329 3.76641L11.8404 6.85889H13.9842C14.6232 6.85889 14.6219 7.85026 13.9842 7.85026H11.0892C11.0247 7.85026 10.9584 7.85212 10.892 7.85212C10.6858 7.85212 10.4786 7.83312 10.3219 7.67641C10.1147 7.46923 10.148 7.17356 10.148 6.90905V4.0141C10.148 3.69476 10.3957 3.53524 10.6434 3.53524C10.8914 3.53524 11.1394 3.69507 11.1394 4.0141V6.1579C12.1703 5.12697 13.2013 4.09604 14.2319 3.06542C14.3347 2.96261 14.4503 2.91961 14.5621 2.91961M14.5624 2.79499C14.4079 2.79499 14.2633 2.85792 14.144 2.97725L11.5669 5.55442L11.264 5.85725V4.0141C11.264 3.61811 10.9518 3.41062 10.6434 3.41062C10.4839 3.41062 10.334 3.46389 10.2216 3.56048C10.092 3.67201 10.0234 3.82872 10.0234 4.0141V6.90905C10.0234 6.94052 10.0228 6.9723 10.0225 7.00439C10.0187 7.25799 10.0144 7.54524 10.2337 7.76458C10.4203 7.9512 10.6602 7.97675 10.892 7.97675C10.926 7.97675 10.9603 7.97612 10.9939 7.97581C11.026 7.97519 11.0578 7.97488 11.0892 7.97488H13.9842C14.3805 7.97488 14.5877 7.6627 14.5877 7.35426C14.5877 7.04582 14.3805 6.73427 13.9842 6.73427H12.141L15.021 3.85427C15.1999 3.67544 15.2507 3.43399 15.1572 3.20842C15.0563 2.96479 14.8117 2.79468 14.5624 2.79468V2.79499Z" fill="#2D2D2D"/>
<path d="M3.43269 15.1443C3.20806 15.1443 2.98717 14.9901 2.89558 14.7692C2.81083 14.5645 2.85539 14.3539 3.01802 14.1913L6.00426 11.205H4.01094C3.65577 11.205 3.46977 10.9246 3.46977 10.6473C3.46977 10.37 3.65577 10.089 4.01094 10.089H6.90589C6.93767 10.089 6.96976 10.0884 7.00216 10.0881C7.03581 10.0875 7.06946 10.0872 7.1031 10.0872C7.30655 10.0872 7.53834 10.1021 7.71749 10.2813C7.91813 10.4819 7.91408 10.7554 7.91065 10.9966C7.91003 11.029 7.90972 11.0611 7.90972 11.0929V13.9878C7.90972 14.1545 7.84865 14.295 7.73338 14.3941C7.63212 14.481 7.49691 14.5287 7.35235 14.5287C7.07506 14.5287 6.79404 14.3427 6.79404 13.9875V11.9942L3.8078 14.9804C3.70032 15.0879 3.57102 15.1446 3.43332 15.1446L3.43269 15.1443Z" fill="#2D2D2D"/>
<path d="M7.10315 10.1495C7.30939 10.1495 7.51658 10.1685 7.67329 10.3252C7.88047 10.5324 7.84714 10.8281 7.84714 11.0926V13.9876C7.84714 14.3069 7.59945 14.4664 7.35177 14.4664C7.10408 14.4664 6.85577 14.3066 6.85577 13.9876V11.8438C5.82484 12.8747 4.79391 13.9056 3.76329 14.9362C3.66048 15.039 3.54489 15.082 3.43305 15.082C3.05233 15.082 2.71367 14.5842 3.06261 14.2352C4.09354 13.2043 5.12447 12.1734 6.15509 11.1428H4.01129C3.37229 11.1428 3.37354 10.1514 4.01129 10.1514H6.90624C6.97074 10.1514 7.0371 10.1495 7.10346 10.1495M7.10315 10.0249C7.06919 10.0249 7.03492 10.0255 7.00127 10.0258C6.96918 10.0265 6.9374 10.0268 6.90593 10.0268H4.01098C3.61468 10.0268 3.4075 10.3389 3.4075 10.6474C3.4075 10.9558 3.61468 11.2674 4.01098 11.2674H5.85413L4.69235 12.4292L2.97413 14.1474C2.7953 14.3262 2.74451 14.5677 2.83798 14.7932C2.93892 15.0369 3.18349 15.207 3.43274 15.207C3.58727 15.207 3.73183 15.144 3.85115 15.0247L5.47341 13.4025L6.73084 12.145V13.9882C6.73084 14.3845 7.04302 14.5917 7.35145 14.5917C7.65989 14.5917 7.97145 14.3845 7.97145 13.9882V11.0932C7.97145 11.0618 7.97207 11.03 7.97238 10.9979C7.97612 10.7443 7.98048 10.457 7.76115 10.2377C7.57453 10.0511 7.33463 10.0255 7.10284 10.0255L7.10315 10.0249Z" fill="#2D2D2D"/>
<path d="M4.1914 17.9557C3.45364 17.9557 2.80873 17.9485 2.21958 17.9336C1.31327 17.9105 0.548097 17.3955 0.222523 16.5895C0.0776508 16.2306 0.0655003 15.8605 0.0655003 15.5415V4.56701C0.0655003 4.31434 0.0648771 4.06198 0.0639425 3.80931C0.0623847 3.31207 0.0611385 2.79832 0.0655003 2.29267C0.0767162 1.01156 1.02228 0.0759642 2.31336 0.0681754C2.95921 0.0641252 3.66581 0.0622559 4.47305 0.0622559C5.19305 0.0622559 5.92489 0.0638136 6.63274 0.0650598C7.34058 0.0666176 8.07242 0.0678638 8.7918 0.0678638H15.574C16.2083 0.0678638 16.7919 0.273178 17.2175 0.645795C17.6692 1.04147 17.9156 1.59043 17.9306 2.23347C17.9409 2.68242 17.9375 3.13947 17.934 3.58125C17.9325 3.80152 17.9306 4.02958 17.9306 4.25327V15.4044C17.9306 15.4436 17.9306 15.4829 17.9312 15.5222C17.9325 15.6867 17.9334 15.8568 17.9147 16.0247C17.8561 16.5459 17.6212 17.0064 17.2355 17.3563C16.8635 17.6937 16.3744 17.8974 15.8578 17.9295C15.8366 17.932 15.8139 17.9333 15.7915 17.9333H8.1338C7.47798 17.9333 6.81032 17.9389 6.16447 17.9445C5.51769 17.9501 4.84909 17.9557 4.19109 17.9557H4.1914ZM2.57132 1.17575C1.95569 1.17575 1.49896 1.2795 1.27152 1.78546C1.11512 2.13346 1.14192 2.63195 1.1656 3.07155C1.1737 3.22297 1.18148 3.36597 1.18148 3.49589V14.6056C1.18148 14.7184 1.17557 14.8433 1.16965 14.9754C1.14784 15.4477 1.12042 16.0353 1.36592 16.3805C1.64757 16.7762 2.1096 16.8307 2.56727 16.8307C2.67756 16.8307 2.78879 16.8273 2.89659 16.8238C3.00345 16.8204 3.10439 16.8173 3.20378 16.8173H15.7918C16.3784 16.7967 16.8 16.3581 16.8152 15.7505C16.847 14.4719 16.8361 13.1687 16.8258 11.9085C16.8205 11.2785 16.8152 10.6273 16.8152 9.98741V2.85128C16.8152 2.78336 16.8159 2.71513 16.8165 2.6469C16.8177 2.51356 16.819 2.37585 16.8152 2.24126C16.799 1.64183 16.3763 1.20721 15.7868 1.18416C15.6254 1.17793 15.4481 1.17481 15.2453 1.17481C15.064 1.17481 14.8792 1.17731 14.7004 1.17949C14.5219 1.18167 14.3371 1.18416 14.1558 1.18416H3.11405C3.02837 1.18416 2.94176 1.18229 2.85048 1.18011C2.75919 1.17793 2.66479 1.17606 2.57164 1.17606L2.57132 1.17575Z" fill="#2D2D2D"/>
<path d="M4.47301 0.124621C5.9127 0.124621 7.35239 0.130541 8.79177 0.130541H15.574C16.818 0.130541 17.8383 0.929364 17.8683 2.2354C17.8838 2.90742 17.8683 3.58162 17.8683 4.25364V15.4048C17.8683 15.6091 17.8754 15.8145 17.8527 16.0179C17.7352 17.0622 16.8784 17.8037 15.8537 17.8676C15.8335 17.8698 15.8129 17.871 15.7914 17.871H8.13377C6.82119 17.871 5.50581 17.8931 4.19137 17.8931C3.5343 17.8931 2.87724 17.8875 2.2211 17.871C1.36807 17.8492 0.604143 17.3679 0.280127 16.5659C0.145847 16.2332 0.127466 15.8923 0.127466 15.5412V4.56706C0.127466 3.80905 0.120923 3.05104 0.127466 2.29303C0.13837 1.04277 1.07085 0.138018 2.31364 0.130541C3.03332 0.126179 3.75301 0.124621 4.47301 0.124621ZM3.11371 1.1219C2.94079 1.1219 2.75604 1.1138 2.57098 1.1138C2.02296 1.1138 1.47213 1.1864 1.21416 1.76028C0.9967 2.24381 1.11883 2.98655 1.11883 3.49625V14.6059C1.11883 15.1362 0.987976 15.9578 1.31448 16.417C1.60766 16.8292 2.08683 16.8934 2.56662 16.8934C2.78439 16.8934 3.00248 16.88 3.20312 16.88H15.7911C16.427 16.8575 16.8613 16.3756 16.8769 15.7525C16.9246 13.8336 16.8769 11.9073 16.8769 9.98778V2.85134C16.8769 2.64758 16.8825 2.4432 16.8769 2.23945C16.8601 1.6154 16.4211 1.14652 15.7886 1.12159C15.6076 1.11443 15.4263 1.11225 15.2447 1.11225C14.8814 1.11225 14.5172 1.12159 14.1552 1.12159H3.11371M4.47301 0C3.66547 0 2.95886 0.00186932 2.31301 0.00591952C1.67713 0.00965816 1.09422 0.241142 0.671438 0.657066C0.245856 1.07548 0.00845241 1.65622 0.00284445 2.2921C-0.0015173 2.79806 4.04682e-05 3.31244 0.00159824 3.80968C0.00222134 4.05798 0.003156 4.3147 0.003156 4.56737V15.5418C0.003156 15.8665 0.0156181 16.2438 0.164852 16.6133C0.499772 17.4426 1.28676 17.9726 2.21799 17.9963C2.80745 18.0112 3.45299 18.0187 4.19137 18.0187C4.84937 18.0187 5.51828 18.0131 6.16506 18.0075C6.8106 18.0019 7.47826 17.9963 8.13377 17.9963H15.7914C15.8151 17.9963 15.8391 17.995 15.8643 17.9922C16.394 17.9586 16.8956 17.7495 17.2772 17.4031C17.6689 17.0479 17.9172 16.5609 17.9767 16.0322C17.996 15.8606 17.9947 15.6889 17.9938 15.5225C17.9938 15.4833 17.9932 15.4443 17.9932 15.4051V4.25364C17.9932 4.03026 17.9951 3.80251 17.9966 3.58224C18 3.13984 18.0035 2.68248 17.9932 2.23259C17.9779 1.57179 17.724 1.00694 17.2589 0.599429C16.8217 0.21653 16.2236 0.00591952 15.574 0.00591952H8.79177C8.07208 0.00591952 7.34055 0.00436175 6.6327 0.00311553C5.92485 0.00155777 5.1927 0.000311553 4.47301 0.000311553V0ZM3.11371 1.24653H14.1552C14.3368 1.24653 14.5215 1.24403 14.7004 1.24185C14.8789 1.23967 15.0637 1.23718 15.2447 1.23718C15.4469 1.23718 15.6232 1.24029 15.784 1.24653C16.3391 1.26833 16.7373 1.67803 16.7526 2.24318C16.756 2.37684 16.7551 2.51392 16.7538 2.64665C16.7532 2.71488 16.7526 2.78342 16.7526 2.85165V9.98809C16.7526 10.6283 16.7579 11.2795 16.7632 11.9098C16.7735 13.1697 16.7844 14.4723 16.7526 15.7496C16.7382 16.3217 16.3423 16.7351 15.7893 16.7557H3.20343C3.10311 16.7557 3.00186 16.7588 2.89437 16.7622C2.7872 16.7656 2.67628 16.7691 2.56693 16.7691C2.12608 16.7691 1.68149 16.7176 1.41636 16.345C1.18332 16.0176 1.21011 15.4415 1.23161 14.9789C1.23784 14.8458 1.24376 14.7206 1.24376 14.6062V3.49625C1.24376 3.36478 1.23597 3.22084 1.22787 3.06849C1.20451 2.63574 1.17802 2.14567 1.32819 1.81137C1.54192 1.33594 1.97965 1.23842 2.57129 1.23842C2.66382 1.23842 2.75791 1.24061 2.84889 1.24248C2.93674 1.24434 3.02741 1.24653 3.11402 1.24653H3.11371Z" fill="#2D2D2D"/>
</g>
</g>
<defs>
<clipPath id="clip0_1464_105682">
<rect width="18" height="18.0181" fill="white" transform="translate(0 0.0180664)"/>
</clipPath>
<clipPath id="clip1_1464_105682">
<rect width="18" height="18.0181" fill="white"/>
</clipPath>
</defs>
</svg>
