<svg width="18" height="18" viewBox="0 0 18 18" fill="none" xmlns="http://www.w3.org/2000/svg">
<path d="M12.8375 13.8527V15.1559C12.8281 15.5316 12.6723 15.8887 12.4033 16.151C12.1342 16.4133 11.7733 16.5601 11.3975 16.5599H2.87994C2.50419 16.5601 2.14327 16.4133 1.87423 16.151C1.60519 15.8887 1.44934 15.5316 1.43994 15.1559V2.87994C1.43994 2.49803 1.59166 2.13176 1.86171 1.86171C2.13176 1.59166 2.49803 1.43994 2.87994 1.43994H11.3975C11.7795 1.43994 12.1457 1.59166 12.4158 1.86171C12.6858 2.13176 12.8375 2.49803 12.8375 2.87994V4.14714C12.8375 4.3381 12.7617 4.52123 12.6267 4.65626C12.4916 4.79128 12.3085 4.86714 12.1175 4.86714C11.9266 4.86714 11.7435 4.79128 11.6084 4.65626C11.4734 4.52123 11.3975 4.3381 11.3975 4.14714V2.87994H2.87994V15.1559L11.3975 15.1199V13.8527C11.3975 13.6618 11.4734 13.4787 11.6084 13.3436C11.7435 13.2086 11.9266 13.1327 12.1175 13.1327C12.3085 13.1327 12.4916 13.2086 12.6267 13.3436C12.7617 13.4787 12.8375 13.6618 12.8375 13.8527ZM16.3799 8.52474L14.2559 6.08394C14.195 6.0092 14.1197 5.94745 14.0345 5.90236C13.9493 5.85727 13.8559 5.82976 13.7598 5.82145C13.6637 5.81315 13.567 5.82423 13.4753 5.85402C13.3836 5.88382 13.2988 5.93174 13.226 5.99492C13.1531 6.05811 13.0937 6.13527 13.0513 6.22185C13.0089 6.30843 12.9842 6.40265 12.9789 6.49892C12.9736 6.59519 12.9876 6.69155 13.0202 6.78229C13.0528 6.87303 13.1033 6.95629 13.1687 7.02714L14.2559 8.27994H8.63994C8.44899 8.27994 8.26585 8.3558 8.13082 8.49082C7.9958 8.62585 7.91994 8.80899 7.91994 8.99994C7.91994 9.1909 7.9958 9.37403 8.13082 9.50906C8.26585 9.64408 8.44899 9.71994 8.63994 9.71994H14.2559L13.1687 10.9727C13.0505 11.1178 12.9934 11.3032 13.0096 11.4896C13.0257 11.676 13.1137 11.8488 13.2551 11.9714C13.3964 12.0941 13.5799 12.1568 13.7667 12.1465C13.9536 12.1361 14.129 12.0534 14.2559 11.9159L16.3799 9.47514C16.4954 9.34375 16.559 9.17483 16.559 8.99994C16.559 8.82505 16.4954 8.65613 16.3799 8.52474Z" fill="#2F468D"/>
</svg>
