<svg width="18" height="19" viewBox="0 0 18 19" fill="none" xmlns="http://www.w3.org/2000/svg">
<g clip-path="url(#clip0_1464_105637)">
<path d="M10.6641 7.91346C10.4395 7.91346 10.2186 7.75924 10.127 7.53835C10.0423 7.33366 10.0868 7.12305 10.2495 6.96042L13.2357 3.97418H11.2424C10.8872 3.97418 10.7012 3.69378 10.7012 3.4165C10.7012 3.13921 10.8872 2.85819 11.2424 2.85819H14.1373C14.1691 2.85819 14.2012 2.85757 14.2336 2.85726C14.2669 2.85663 14.3009 2.85632 14.3346 2.85632C14.538 2.85632 14.7698 2.87128 14.9489 3.05042C15.1496 3.25106 15.1455 3.52461 15.1421 3.76575C15.1415 3.79815 15.1412 3.83024 15.1412 3.86202V6.75697C15.1412 6.92365 15.0801 7.06416 14.9648 7.16324C14.8636 7.25016 14.7284 7.29783 14.5838 7.29783C14.3065 7.29783 14.0255 7.11183 14.0255 6.75666V4.76334L11.0392 7.74958C10.9318 7.85707 10.8025 7.91377 10.6648 7.91377L10.6641 7.91346Z" fill="#2D2D2D"/>
<path d="M14.3346 2.91832C14.5408 2.91832 14.748 2.93733 14.9047 3.09404C15.1119 3.30122 15.0786 3.59689 15.0786 3.86139V6.75635C15.0786 7.07569 14.8309 7.23521 14.5832 7.23521C14.3355 7.23521 14.0872 7.07538 14.0872 6.75635V4.61255C13.0563 5.64348 12.0254 6.67441 10.9947 7.70503C10.8919 7.80784 10.7763 7.85084 10.6645 7.85084C10.2838 7.85084 9.94511 7.35297 10.2941 7.00403C11.325 5.9731 12.3559 4.94217 13.3865 3.91156H11.2427C10.6037 3.91156 10.605 2.92019 11.2427 2.92019H14.1377C14.2022 2.92019 14.2685 2.91832 14.3349 2.91832M14.3346 2.7937C14.3006 2.7937 14.2664 2.79432 14.2327 2.79464C14.2006 2.79526 14.1688 2.79557 14.1374 2.79557H11.2424C10.8461 2.79557 10.6389 3.10775 10.6389 3.41619C10.6389 3.72462 10.8461 4.03618 11.2424 4.03618H13.0856L11.6901 5.43162L10.2056 6.91618C10.0267 7.09501 9.97596 7.33646 10.0694 7.56203C10.1704 7.80566 10.4149 7.97577 10.6642 7.97577C10.8187 7.97577 10.9633 7.91284 11.0826 7.79351L12.6288 6.24727L13.9623 4.91382V6.75697C13.9623 7.15327 14.2745 7.36045 14.5829 7.36045C14.8913 7.36045 15.2029 7.15327 15.2029 6.75697V3.86202C15.2029 3.83055 15.2035 3.79877 15.2038 3.76668C15.2076 3.51308 15.2119 3.22583 14.9926 3.00649C14.806 2.81987 14.5661 2.79432 14.3343 2.79432L14.3346 2.7937Z" fill="#2D2D2D"/>
<path d="M3.66147 15.1459C3.44307 15.1459 3.21781 15.1225 3.04739 14.9518C2.84675 14.7512 2.8508 14.4776 2.85454 14.2365C2.85517 14.2041 2.85548 14.172 2.85548 14.1402V11.2452C2.85548 10.8901 3.13588 10.7041 3.41316 10.7041C3.69044 10.7041 3.97146 10.8901 3.97146 11.2452V13.2386L6.9577 10.2523C7.06519 10.1448 7.19448 10.0881 7.33219 10.0881C7.55713 10.0881 7.77802 10.2424 7.86931 10.4632C7.95405 10.6679 7.9095 10.8785 7.74687 11.0412L4.76063 14.0274H6.75395C7.10912 14.0274 7.29511 14.3078 7.29511 14.5851C7.29511 14.8624 7.10912 15.1434 6.75395 15.1434H3.85899C3.82721 15.1434 3.79512 15.144 3.76272 15.1443C3.72907 15.145 3.69543 15.1453 3.66178 15.1453L3.66147 15.1459Z" fill="#2D2D2D"/>
<path d="M7.33166 10.1508C7.71238 10.1508 8.05104 10.6486 7.7021 10.9976C6.67116 12.0285 5.64023 13.0594 4.60962 14.09H6.75342C7.39241 14.09 7.39116 15.0814 6.75342 15.0814H3.85846C3.79397 15.0814 3.72761 15.0833 3.66125 15.0833C3.455 15.0833 3.24782 15.0643 3.0911 14.9076C2.88392 14.7004 2.91726 14.4047 2.91726 14.1402V11.2452C2.91726 10.9259 3.16494 10.7664 3.41263 10.7664C3.66062 10.7664 3.90862 10.9262 3.90862 11.2452V13.389C4.93955 12.3581 5.97048 11.3272 7.0011 10.2966C7.10391 10.1938 7.2195 10.1508 7.33135 10.1508M7.33166 10.0261C7.17713 10.0261 7.03257 10.0891 6.91324 10.2084L5.367 11.7546L4.03355 13.0881V11.2449C4.03355 10.8489 3.72138 10.6415 3.41294 10.6415C3.25342 10.6415 3.10357 10.6947 2.9911 10.7913C2.86149 10.9028 2.79295 11.0596 2.79295 11.2449V14.1399C2.79295 14.1714 2.79232 14.2031 2.79201 14.2352C2.78827 14.4888 2.78391 14.7761 3.00325 14.9954C3.18987 15.182 3.42976 15.2076 3.66156 15.2076C3.69552 15.2076 3.72979 15.207 3.76344 15.2066C3.79553 15.206 3.8273 15.2057 3.85877 15.2057H6.75373C7.14971 15.2057 7.35721 14.8935 7.35721 14.5851C7.35721 14.2767 7.15002 13.9651 6.75373 13.9651H4.91058L7.79058 11.0851C7.96941 10.9063 8.02019 10.6648 7.92673 10.4393C7.82578 10.1956 7.58121 10.0255 7.33197 10.0255L7.33166 10.0261Z" fill="#2D2D2D"/>
<path d="M4.1914 17.9557C3.45364 17.9557 2.80873 17.9485 2.21958 17.9336C1.31327 17.9105 0.548097 17.3955 0.222523 16.5895C0.0776508 16.2306 0.0655003 15.8605 0.0655003 15.5415V4.56701C0.0655003 4.31434 0.0648771 4.06198 0.0639425 3.80931C0.0623847 3.31207 0.0611385 2.79832 0.0655003 2.29267C0.0767162 1.01156 1.02228 0.0759642 2.31336 0.0681754C2.95921 0.0641252 3.66581 0.0622559 4.47305 0.0622559C5.19305 0.0622559 5.92489 0.0638136 6.63274 0.0650598C7.34058 0.0666176 8.07242 0.0678638 8.7918 0.0678638H15.574C16.2083 0.0678638 16.7919 0.273178 17.2175 0.645795C17.6692 1.04147 17.9156 1.59043 17.9306 2.23347C17.9409 2.68242 17.9375 3.13947 17.934 3.58125C17.9325 3.80152 17.9306 4.02958 17.9306 4.25327V15.4044C17.9306 15.4436 17.9306 15.4829 17.9312 15.5222C17.9325 15.6867 17.9334 15.8568 17.9147 16.0247C17.8561 16.5459 17.6212 17.0064 17.2355 17.3563C16.8635 17.6937 16.3744 17.8974 15.8578 17.9295C15.8366 17.932 15.8139 17.9333 15.7915 17.9333H8.1338C7.47798 17.9333 6.81032 17.9389 6.16447 17.9445C5.51769 17.9501 4.84909 17.9557 4.19109 17.9557H4.1914ZM2.57164 1.17575C1.95601 1.17575 1.49927 1.2795 1.27152 1.78546C1.11512 2.13346 1.14192 2.63195 1.1656 3.07155C1.1737 3.22297 1.18148 3.36597 1.18148 3.49589V14.6056C1.18148 14.7184 1.17557 14.8433 1.16965 14.9754C1.14784 15.4477 1.12042 16.0353 1.36592 16.3805C1.64726 16.7762 2.1096 16.8307 2.56727 16.8307C2.67756 16.8307 2.78879 16.8273 2.89659 16.8238C3.00345 16.8204 3.10439 16.8173 3.20378 16.8173H15.7918C16.3784 16.7967 16.8 16.3581 16.8152 15.7505C16.847 14.4719 16.8361 13.1687 16.8258 11.9085C16.8205 11.2785 16.8152 10.6273 16.8152 9.98741V2.85128C16.8152 2.78336 16.8159 2.71513 16.8165 2.6469C16.8177 2.51356 16.819 2.37585 16.8152 2.24126C16.799 1.64183 16.3763 1.20721 15.7868 1.18416C15.6254 1.17793 15.4481 1.17481 15.2453 1.17481C15.064 1.17481 14.8792 1.17731 14.7004 1.17949C14.5219 1.18167 14.3371 1.18416 14.1558 1.18416H3.11405C3.02837 1.18416 2.94176 1.18229 2.85048 1.18011C2.75919 1.17793 2.66479 1.17575 2.57164 1.17575Z" fill="#2D2D2D"/>
<path d="M4.47301 0.124621C5.9127 0.124621 7.35239 0.130541 8.79177 0.130541H15.574C16.818 0.130541 17.8383 0.929364 17.8683 2.2354C17.8838 2.90742 17.8683 3.58162 17.8683 4.25364V15.4048C17.8683 15.6091 17.8754 15.8145 17.8527 16.0179C17.7352 17.0622 16.8784 17.8037 15.8537 17.8676C15.8335 17.8698 15.8129 17.871 15.7914 17.871H8.13377C6.82119 17.871 5.50581 17.8931 4.19137 17.8931C3.5343 17.8931 2.87724 17.8875 2.2211 17.871C1.36807 17.8492 0.604143 17.3679 0.280127 16.5659C0.145847 16.2332 0.127466 15.8923 0.127466 15.5412V4.56706C0.127466 3.80905 0.120923 3.05104 0.127466 2.29303C0.13837 1.04277 1.07085 0.138018 2.31364 0.130541C3.03332 0.126179 3.75301 0.124621 4.47301 0.124621ZM3.11371 1.1219C2.94079 1.1219 2.75604 1.1138 2.57098 1.1138C2.02296 1.1138 1.47213 1.1864 1.21416 1.76028C0.9967 2.24381 1.11883 2.98655 1.11883 3.49625V14.6059C1.11883 15.1362 0.987976 15.9578 1.31448 16.417C1.60766 16.8292 2.08683 16.8934 2.56662 16.8934C2.78439 16.8934 3.00248 16.88 3.20312 16.88H15.7911C16.427 16.8575 16.8613 16.3756 16.8769 15.7525C16.9246 13.8336 16.8769 11.9073 16.8769 9.98778V2.85134C16.8769 2.64758 16.8825 2.4432 16.8769 2.23945C16.8601 1.6154 16.4211 1.14652 15.7886 1.12159C15.6076 1.11443 15.4263 1.11225 15.2447 1.11225C14.8814 1.11225 14.5172 1.12159 14.1552 1.12159H3.11371M4.47301 0C3.66547 0 2.95886 0.00186932 2.31301 0.00591952C1.67713 0.00965816 1.09422 0.241142 0.671438 0.657066C0.245856 1.07548 0.00845241 1.65622 0.00284445 2.2921C-0.0015173 2.79806 4.04682e-05 3.31244 0.00159824 3.80968C0.00222134 4.05798 0.003156 4.3147 0.003156 4.56737V15.5418C0.003156 15.8665 0.0156181 16.2438 0.164852 16.6133C0.499772 17.4426 1.28676 17.9726 2.21799 17.9963C2.80776 18.0112 3.4533 18.0187 4.19137 18.0187C4.84937 18.0187 5.51828 18.0131 6.16506 18.0075C6.8106 18.0019 7.47826 17.9963 8.13377 17.9963H15.7914C15.8154 17.9963 15.8391 17.995 15.8643 17.9922C16.394 17.9586 16.8956 17.7495 17.2772 17.4031C17.6689 17.0479 17.9172 16.5609 17.9767 16.0322C17.996 15.8606 17.9947 15.6889 17.9938 15.5225C17.9938 15.4833 17.9932 15.4443 17.9932 15.4051V4.25364C17.9932 4.03026 17.9951 3.80251 17.9966 3.58224C18 3.13984 18.0035 2.68248 17.9932 2.23259C17.9779 1.57179 17.724 1.00694 17.2589 0.599429C16.8217 0.21653 16.2236 0.00591952 15.574 0.00591952H8.79177C8.07208 0.00591952 7.34055 0.00436175 6.6327 0.00311553C5.92485 0.00155777 5.1927 0.000311553 4.47301 0.000311553V0ZM3.11371 1.24653H14.1552C14.3368 1.24653 14.5215 1.24403 14.7004 1.24185C14.8789 1.23967 15.0636 1.23718 15.2447 1.23718C15.4469 1.23718 15.6232 1.24029 15.784 1.24653C16.3391 1.26833 16.7373 1.67803 16.7526 2.24318C16.756 2.37684 16.7551 2.51392 16.7538 2.64665C16.7532 2.71488 16.7526 2.78342 16.7526 2.85165V9.98809C16.7526 10.6283 16.7579 11.2795 16.7632 11.9094C16.7735 13.1694 16.7844 14.472 16.7526 15.7493C16.7382 16.3214 16.3423 16.7348 15.7893 16.7553H3.20343C3.10311 16.7553 3.00186 16.7585 2.89437 16.7619C2.7872 16.7653 2.67628 16.7687 2.56693 16.7687C2.12608 16.7687 1.68149 16.7173 1.41636 16.3447C1.18332 16.0173 1.21011 15.4412 1.23161 14.9786C1.23784 14.8455 1.24376 14.7203 1.24376 14.6059V3.49625C1.24376 3.36478 1.23597 3.22084 1.22787 3.06849C1.20451 2.63574 1.17802 2.14567 1.32819 1.81137C1.54192 1.33594 1.97965 1.23842 2.57129 1.23842C2.66382 1.23842 2.75791 1.24061 2.84889 1.24248C2.93674 1.24434 3.02741 1.24653 3.11402 1.24653H3.11371Z" fill="#2D2D2D"/>
</g>
<defs>
<clipPath id="clip0_1464_105637">
<rect width="18" height="18.0181" fill="white"/>
</clipPath>
</defs>
</svg>
