<svg width="214" height="163" viewBox="0 0 214 163" fill="none" xmlns="http://www.w3.org/2000/svg">
<path d="M137.575 162.313L211.17 116.53C212.485 115.711 212.485 114.382 211.17 113.562L79.3567 31.5566C78.0356 30.7373 75.9001 30.7373 74.5851 31.5566L0.990189 77.3398C-0.330902 78.1591 -0.330902 79.488 0.990189 80.3073L132.803 162.313C134.125 163.132 136.26 163.132 137.575 162.313Z" fill="#E0E0E0" style="mix-blend-mode:multiply"/>
<path d="M30.8486 54.5352C29.7146 50.5033 27.5369 38.3301 29.6542 29.6018C31.283 22.8863 35.3005 17.3255 39.9334 15.7966C44.5663 14.2677 47.1119 20.48 44.1742 24.6732C36.6699 35.382 33.4908 44.3425 35.1739 51.9031L30.8486 54.5352Z" fill="#27DEBF"/>
<path opacity="0.1" d="M30.8486 54.5352C29.7146 50.5033 27.5369 38.3301 29.6542 29.6018C31.283 22.8863 35.3005 17.3255 39.9334 15.7966C44.5663 14.2677 47.1119 20.48 44.1742 24.6732C36.6699 35.382 33.4908 44.3425 35.1739 51.9031L30.8486 54.5352Z" fill="black"/>
<path d="M39.9277 19.2027C37.4364 21.5509 28.3938 34.5756 32.3631 53.6127" stroke="#FAFAFA" stroke-miterlimit="10" stroke-linecap="round"/>
<path d="M14.4416 62.87C12.0528 62.5668 9.02452 61.7539 7.57072 58.6252C6.11692 55.4964 10.412 52.845 10.3275 50.213C10.2431 47.581 7.78185 46.4198 5.15777 45.3553C2.53369 44.2909 -0.0360832 40.5171 2.13557 37.8334C4.30722 35.1498 6.58141 31.7694 4.30721 28.4471C2.033 25.1248 -1.95439 21.9057 1.72536 19.9124C6.34012 17.4158 11.0574 23.2282 14.4356 25.3184C17.8137 27.402 22.0182 24.2152 25.1068 27.673C28.1954 31.1308 22.3621 35.5755 26.0237 39.1752C29.6854 42.7749 34.7104 43.5232 32.5387 51.4064L14.4356 62.8635L14.4416 62.87Z" fill="#27DEBF"/>
<path d="M4.04924 21.5894C7.28862 23.2473 21.5552 40.0652 23.8535 56.7735" stroke="#FAFAFA" stroke-miterlimit="10" stroke-linecap="round"/>
<path d="M20.9023 29.6404C20.9023 29.6404 17.3252 33.7626 16.4927 37.0849" stroke="#FAFAFA" stroke-miterlimit="10" stroke-linecap="round"/>
<path d="M6.06341 40.3621C9.0615 39.917 16.2822 39.7041 19.2441 42.2716" stroke="#FAFAFA" stroke-miterlimit="10" stroke-linecap="round"/>
<path d="M108.569 136.922L136.692 145.031L203.156 103.996L175.027 95.893L108.569 136.922Z" fill="#EBF4FF"/>
<path d="M103.984 139.754L138.362 149.663L213.996 102.97L179.618 93.0612L175.027 95.8932L203.156 103.996L136.691 145.031L108.568 136.922L103.984 139.754Z" fill="#EBF4FF"/>
<path d="M76.4806 105.795L108.567 136.922L175.025 95.893L142.945 64.7602L76.4806 105.795Z" fill="#C5DEFF"/>
<path d="M71.8976 108.627L103.984 139.754L108.568 136.922L76.4822 105.795L71.8976 108.627Z" fill="#C5DEFF"/>
<path d="M142.946 64.7602L175.027 95.893L179.617 93.061L147.531 61.9346L142.946 64.7602Z" fill="#C5DEFF"/>
<path d="M11.3507 66.773L42.1037 95.8931L108.568 54.8579L77.8153 25.7379L11.3507 66.773Z" fill="#EBF4FF"/>
<path d="M3.14803 66.1731L37.5265 98.7187L42.1051 95.8931L11.3521 66.7731L77.8167 25.7379L108.57 54.858L113.154 52.0259L78.7819 19.4803L3.14803 66.1731Z" fill="#EBF4FF"/>
<path d="M42.1041 95.8931L76.4826 105.795L142.947 64.7603L108.569 54.8579L42.1041 95.8931Z" fill="#DDEBFF"/>
<path d="M108.566 54.8579L142.945 64.7603L147.529 61.9347L113.151 52.0259L108.566 54.8579Z" fill="#DDEBFF"/>
<path d="M37.5234 98.7186L71.8959 108.627L76.4805 105.795L42.102 95.893L37.5234 98.7186Z" fill="#DDEBFF"/>
<path d="M77.8115 25.7379L83.3613 30.9891L81.069 46.3684L53.5011 40.7495L77.8115 25.7379Z" fill="#A4C4FF"/>
<path d="M31.8939 54.0904C34.6386 59.0642 38.7889 62.7284 43.0839 65.3153L55.209 44.8396L48.9836 43.5429L31.8939 54.0969V54.0904Z" fill="#A4C4FF"/>
<path d="M47.0235 67.3859C51.4693 69.418 55.6618 70.347 58.1532 70.4179C59.6371 70.4631 61.0367 70.3986 62.3577 70.2437L66.7734 47.2457L59.7156 45.7749L47.0235 67.3859Z" fill="#A4C4FF"/>
<path d="M66.8807 69.3601C72.6537 67.7345 76.3998 64.6251 78.5473 63.1155L80.5078 50.1102L70.7535 48.0781L66.8807 69.3601Z" fill="#A4C4FF"/>
<path d="M28.8934 55.9417C35.6497 67.9987 50.9236 74.0111 58.1504 73.6305C58.1504 73.6305 59.4775 73.8498 58.1504 74.6691C56.8233 75.4884 44.4026 83.1587 44.4026 83.1587L24.0193 78.7655L11.3513 66.773L28.8934 55.9417Z" fill="#A4C4FF"/>
<path d="M28.3573 82.8751L40.6211 85.4878L34.8722 89.0423L28.3573 82.8751Z" fill="#A4C4FF"/>
<path d="M83.361 61.9349L90.2379 66.1732L108.57 54.8581L86.8598 34.2985L83.361 61.9349Z" fill="#A4C4FF"/>
<path d="M38.4925 92.4613L42.1119 95.8868L74.1981 76.0756C74.6022 72.992 73.5225 70.8309 71.9058 71.8308C70.2951 72.8307 38.4925 92.4613 38.4925 92.4613Z" fill="#A4C4FF"/>
<path d="M78.7817 73.2498L86.3945 68.547L81.6893 65.7924C80.1088 66.773 76.6402 69.005 76.6402 69.005C76.6402 69.005 79.1195 71.0048 78.7817 73.2498Z" fill="#A4C4FF"/>
<path d="M111.398 72.2758L124.615 76.0819L142.947 64.7603L128.397 60.5671L111.398 72.2758Z" fill="#8CB4FF"/>
<path d="M116.248 57.0709L118.993 62.3543L123.59 59.1868L116.248 57.0709Z" fill="#8CB4FF"/>
<path d="M90.2357 66.1732L106.595 70.8889L115.457 64.7927V64.7862L110.619 55.4451L108.568 54.8581L90.2357 66.1732Z" fill="#8CB4FF"/>
<path d="M42.1034 95.8933L50.6935 98.3705C51.0012 98.3254 59.3621 97.2029 61.6966 96.6675C64.0733 96.132 65.5814 95.5385 66.8241 93.0613C68.0728 90.5841 74.1836 76.0821 74.1836 76.0821L42.0974 95.8933H42.1034Z" fill="#8CB4FF"/>
<path d="M69.6119 96.3577L103.17 73.25L86.3879 68.5536L78.7811 73.25L69.6119 96.3577Z" fill="#8CB4FF"/>
<path d="M79.1494 94.4805L90.2369 97.3061L121.068 78.2755L121.062 78.2626L108.008 74.6048L79.1494 94.4805Z" fill="#8CB4FF"/>
<path d="M66.7691 102.996L76.4812 105.796L85.6504 100.138L74.9067 97.3898L66.7691 102.996Z" fill="#8CB4FF"/>
<path d="M58.1516 100.512L66.0781 99.3703L62.4889 101.764L58.1516 100.512Z" fill="#8CB4FF"/>
<path d="M76.4808 105.796L89.6072 118.53L103.168 117.117L100.351 105.518L85.65 100.138L76.4808 105.796Z" fill="#75A5FF"/>
<path d="M138.151 88.5002L157.805 106.524L175.027 95.8931L172.934 93.861L164.754 94.0933L150.832 85.7069L138.151 88.5002Z" fill="#75A5FF"/>
<path d="M90.2355 97.3061L101.697 101.551L128.336 85.0943L121.067 78.2755L90.2355 97.3061Z" fill="#75A5FF"/>
<path d="M124.614 76.082L134.736 85.365L143.736 83.1523L142.946 64.7603L124.614 76.082Z" fill="#75A5FF"/>
<path d="M147.323 69.0115L147.89 82.3781L152.106 81.7395L153.868 82.8233L155.689 77.127L147.323 69.0115Z" fill="#75A5FF"/>
<path d="M158.015 85.3844L165.104 89.7582L168.85 89.9001L159.487 80.8106L158.015 85.3844Z" fill="#75A5FF"/>
<path d="M106.561 104.209L129.195 112.873L146.52 102.17L131.975 88.5133L106.561 104.209Z" fill="#75A5FF"/>
<path d="M105.45 107.731L112.647 134.406L127.341 125.342V125.336L129.193 116.833L105.45 107.731Z" fill="#75A5FF"/>
<path d="M93.58 122.375L102.719 131.245L107.816 136.193L104.209 121.362L93.58 122.375Z" fill="#75A5FF"/>
<path d="M131.107 122.775L131.179 122.962L139.238 117.988L132.657 117.117L131.107 122.775Z" fill="#75A5FF"/>
<path d="M134.353 113.976L143.341 115.459H143.347L153.795 109.008L149.572 105.034L134.353 113.976Z" fill="#75A5FF"/>
<path d="M175.974 108.821L192.057 110.846H192.063L203.156 103.995L180.245 97.3895L175.974 108.821Z" fill="#A4C4FF"/>
<path d="M157.804 106.524L172.818 108.421L177.318 96.5509L175.026 95.8929L157.804 106.524Z" fill="#A4C4FF"/>
<path d="M143.345 115.459L164.097 128.109H164.103L187.629 113.582L153.793 109.008L143.345 115.459Z" fill="#A4C4FF"/>
<path d="M112.647 134.406L117.256 139.431L134.352 144.353L127.342 125.342L112.647 134.406Z" fill="#A4C4FF"/>
<path d="M131.178 122.962L139.038 143.579L160.061 130.6L139.237 117.988L131.178 122.962Z" fill="#A4C4FF"/>
<path d="M99.1993 5.95692L106.198 1.65904C109.539 -0.728668 114.176 -0.62765 119.303 2.54066C129.479 8.82217 137.723 24.7739 137.723 38.1634V41.2124C137.723 54.6019 120.883 69.1577 120.883 69.1577L113.996 73.327C113.996 73.327 118.135 68.2853 117.662 67.2476C113.154 57.3478 100.874 29.3932 100.874 18.4648V15.4159C100.874 12.9731 101.149 10.7874 101.664 8.87727L100.874 9.36399L99.1907 5.95692H99.1993ZM119.303 36.6573C124.386 39.7981 128.517 37.2543 128.517 30.9728C125.777 30.5136 118.89 17.9414 119.303 13.9098C114.219 10.7691 110.088 13.3129 110.088 19.5944C110.088 25.8759 114.21 33.5166 119.303 36.6573Z" fill="#008770"/>
<path opacity="0.3" d="M99.1993 5.95692L106.198 1.65904C109.539 -0.728668 114.176 -0.62765 119.303 2.54066C129.479 8.82217 137.723 24.7739 137.723 38.1634V41.2124C137.723 54.6019 120.883 69.1577 120.883 69.1577L113.996 73.327C113.996 73.327 118.135 68.2853 117.662 67.2476C113.154 57.3478 100.874 29.3932 100.874 18.4648V15.4159C100.874 12.9731 101.149 10.7874 101.664 8.87727L100.874 9.36399L99.1907 5.95692H99.1993ZM119.303 36.6573C124.386 39.7981 128.517 37.2543 128.517 30.9728C125.777 30.5136 118.89 17.9414 119.303 13.9098C114.219 10.7691 110.088 13.3129 110.088 19.5944C110.088 25.8759 114.21 33.5166 119.303 36.6573Z" fill="#31EFCF"/>
<path d="M93.5153 19.9617C93.5153 6.57219 101.759 0.804955 111.935 7.08647C122.112 13.368 130.355 29.3197 130.355 42.7092V45.7582C130.355 56.0712 119.432 68.0373 114.409 72.9964C113.181 74.2086 111.223 73.8137 110.493 72.2158C106.156 62.7201 93.5153 34.1043 93.5153 23.0106V19.9617ZM111.935 41.2123C117.019 44.3531 121.15 41.8093 121.15 35.5278C121.15 29.2462 117.028 21.6056 111.935 18.4648C106.852 15.3241 102.721 17.8679 102.721 24.1494C102.721 30.4309 106.843 38.0716 111.935 41.2123Z" fill="#27DEBF"/>
</svg>
