<svg width="193" height="143" viewBox="0 0 193 143" fill="none" xmlns="http://www.w3.org/2000/svg">
<path fill-rule="evenodd" clip-rule="evenodd" d="M27.9915 106.183V141.054H12.5859V106.183L26.7584 92.1983L27.9915 106.183Z" fill="#7EA7D8"/>
<path d="M174.067 83.593H157.898V108.98H174.067V83.593Z" fill="#D8E1EF"/>
<path fill-rule="evenodd" clip-rule="evenodd" d="M145.194 70.1287L152.944 77.4991V141.178H142.93L145.194 70.1287Z" fill="#D8E1EF"/>
<path d="M130.184 86.5247H104.693V141.178H130.184V86.5247Z" fill="#D8E1EF"/>
<path fill-rule="evenodd" clip-rule="evenodd" d="M69.7097 57.6893L63.0859 64.2254V83.106H74.6102L69.7097 57.6893Z" fill="#D8E1EF"/>
<path d="M101.051 51H83.7539V141.178H101.051V51Z" fill="#D8E1EF"/>
<path d="M40.0572 65.5742H21.8496V141.178H40.0572V65.5742Z" fill="#D8E1EF"/>
<path fill-rule="evenodd" clip-rule="evenodd" d="M39.7305 65.6545L51.4388 77.2079V141.054H39.7305V65.6545Z" fill="#7EA7D8"/>
<path fill-rule="evenodd" clip-rule="evenodd" d="M40.8088 70.7626H25.4043V72.7082H40.8088V70.7626ZM40.8088 135.521H25.4043V137.467H40.8088V135.521ZM40.8088 77.2374H25.4043V79.183H40.8088V77.2374ZM40.8088 83.7133H25.4043V85.659H40.8088V83.7133ZM40.8088 90.1893H25.4043V92.1349H40.8088V90.1893ZM40.8088 96.6652H25.4043V98.6108H40.8088V96.6652ZM40.8088 103.141H25.4043V105.087H40.8088V103.141ZM40.8088 109.617H25.4043V111.563H40.8088V109.617ZM40.8088 116.093H25.4043V118.039H40.8088V116.093ZM40.8088 122.57H25.4043V124.516H40.8088V122.57ZM40.8088 129.045H25.4043V130.99H40.8088V129.045Z" fill="#7EA7D8"/>
<path d="M91.1539 57.6893H69.709V141.054H91.1539V57.6893Z" fill="#94B8E1"/>
<path d="M79.2033 80.1485H46.4297V141.178H79.2033V80.1485Z" fill="#D8E1EF"/>
<path fill-rule="evenodd" clip-rule="evenodd" d="M91.1543 57.6893L95.7221 62.1966V141.054H91.1543V57.6893Z" fill="#C3CEDF"/>
<path fill-rule="evenodd" clip-rule="evenodd" d="M79.6309 80.4305L85.2776 86.0026V141.054H79.6309V80.4305Z" fill="#5D8CC8"/>
<path fill-rule="evenodd" clip-rule="evenodd" d="M60.4832 88.9439H65.9992V141.054H60.4832V88.9439ZM51.8711 88.9439H57.387V141.054H51.8711V88.9439ZM69.0954 88.9439H74.6113V141.054H69.0954V88.9439Z" fill="#7EA7D8"/>
<path fill-rule="evenodd" clip-rule="evenodd" d="M88.5659 68.6616H82.8359V71.7627H88.5659V68.6616ZM88.5659 61.8235H82.8359V64.9246H88.5659V61.8235ZM88.5659 75.4986H82.8359V78.5998H88.5659V75.4986ZM88.5659 82.3367H82.8359V85.4379H88.5659V82.3367ZM88.5659 89.1748H82.8359V92.276H88.5659V89.1748ZM88.5659 96.0119H82.8359V99.113H88.5659V96.0119ZM88.5659 102.85H82.8359V105.951H88.5659V102.85ZM88.5659 109.688H82.8359V112.789H88.5659V109.688ZM88.5659 116.525H82.8359V119.626H88.5659V116.525ZM88.5659 123.362H82.8359V126.463H88.5659V123.362ZM88.5659 130.2H82.8359V133.301H88.5659V130.2Z" fill="white"/>
<path fill-rule="evenodd" clip-rule="evenodd" d="M82.8359 83.593L84.7056 85.4379H82.8359V83.593ZM85.2779 89.1748V92.276H82.8359V89.1748H85.2779ZM85.2779 96.0119V99.113H82.8359V96.0119H85.2779ZM85.2779 102.85V105.951H82.8359V102.85H85.2779ZM85.2779 109.688V112.789H82.8359V109.688H85.2779ZM85.2779 116.525V119.626H82.8359V116.525H85.2779ZM85.2779 123.362V126.463H82.8359V123.362H85.2779ZM85.2779 130.2V133.301H82.8359V130.2H85.2779Z" fill="#D8E1EF"/>
<path fill-rule="evenodd" clip-rule="evenodd" d="M94.3281 68.19H97.8723V80.0169H94.3281V68.19ZM94.3281 53.8276H97.8723V65.6545H94.3281V53.8276ZM94.3281 82.5523H97.8723V94.3792H94.3281V82.5523ZM94.3281 96.9157H97.8723V108.743H94.3281V96.9157ZM94.3281 111.277H97.8723V123.104H94.3281V111.277ZM94.3281 125.64H97.8723V137.467H94.3281V125.64Z" fill="#7EA7D8"/>
<path fill-rule="evenodd" clip-rule="evenodd" d="M94.3281 68.1899H95.7221V80.0169H94.3281V68.1899ZM94.3281 60.82L95.7221 62.1966V65.6545H94.3281V60.82ZM95.7221 82.5523V94.3792H94.3281V82.5523H95.7221ZM95.7221 96.9157V108.743H94.3281V96.9157H95.7221ZM95.7221 111.277V123.104H94.3281V111.277H95.7221ZM95.7221 125.64V137.467H94.3281V125.64H95.7221Z" fill="#5D8CC8"/>
<path fill-rule="evenodd" clip-rule="evenodd" d="M101.262 51L108.532 58.1752V141.054H101.262V51Z" fill="#7EA7D8"/>
<path d="M145.536 70.7626H121.227V141.054H145.536V70.7626Z" fill="#7EA7D8"/>
<path fill-rule="evenodd" clip-rule="evenodd" d="M120.039 80.3028H146.724V83.4039H120.039V80.3028ZM120.039 72.7895H146.724V75.8907H120.039V72.7895ZM120.039 87.8172H146.724V90.9183H120.039V87.8172ZM120.039 95.3304H146.724V98.4316H120.039V95.3304ZM120.039 102.845H146.724V105.946H120.039V102.845ZM120.039 110.358H146.724V113.459H120.039V110.358ZM120.039 117.872H146.724V120.974H120.039V117.872ZM120.039 125.386H146.724V128.487H120.039V125.386Z" fill="white"/>
<path d="M180.414 106.88H151.553V141.053H180.414V106.88Z" fill="#94B8E1"/>
<path fill-rule="evenodd" clip-rule="evenodd" d="M164.762 106.88H167.203V141.053H164.762V106.88ZM156.678 106.88H159.12V141.053H156.678V106.88ZM172.846 106.88H175.287V141.053H172.846V106.88Z" fill="white"/>
<path fill-rule="evenodd" clip-rule="evenodd" d="M157.899 83.593L152.912 88.5139V106.88H157.899V83.593Z" fill="#5D8CC8"/>
<path fill-rule="evenodd" clip-rule="evenodd" d="M160.129 91.4072H171.837V93.657H160.129V91.4072ZM160.129 86.0562H171.837V88.306H160.129V86.0562ZM160.129 96.7582H171.837V99.008H160.129V96.7582ZM160.129 102.109H171.837V104.359H160.129V102.109Z" fill="#7EA7D8"/>
<path fill-rule="evenodd" clip-rule="evenodd" d="M14.252 115.588H17.764V121.669H14.252V115.588ZM14.252 108.19H17.764V114.271H14.252V108.19ZM14.252 122.987H17.764V129.068H14.252V122.987ZM14.252 130.385H17.764V136.466H14.252V130.385Z" fill="#D8E1EF"/>
<path d="M18.8643 132.3H17.1543V141.054H18.8643V132.3Z" fill="#A75D31"/>
<path fill-rule="evenodd" clip-rule="evenodd" d="M18.0087 137.743C20.9951 137.743 23.4315 134.465 23.4315 130.446C23.4315 126.428 20.9951 123.15 18.0087 123.15C15.0223 123.15 12.5859 126.427 12.5859 130.446C12.5859 134.466 15.0223 137.743 18.0087 137.743Z" fill="#7CB44A"/>
<path fill-rule="evenodd" clip-rule="evenodd" d="M17.2373 124.371C18.9473 124.371 20.0263 126.237 19.6449 128.538C19.2645 130.839 17.5689 132.705 15.8589 132.705C14.1489 132.705 13.071 130.839 13.4514 128.538C13.8317 126.237 15.5273 124.371 17.2373 124.371Z" fill="#8DC75C"/>
<path d="M79.6319 132.3H77.9219V141.054H79.6319V132.3Z" fill="#A75D31"/>
<path fill-rule="evenodd" clip-rule="evenodd" d="M78.7763 137.743C81.7627 137.743 84.1991 134.465 84.1991 130.446C84.1991 126.428 81.7627 123.15 78.7763 123.15C75.7899 123.15 73.3535 126.427 73.3535 130.446C73.3535 134.466 75.7899 137.743 78.7763 137.743Z" fill="#7CB44A"/>
<path fill-rule="evenodd" clip-rule="evenodd" d="M78.0049 124.371C79.715 124.371 80.7929 126.237 80.4125 128.538C80.0321 130.839 78.3376 132.705 76.6265 132.705C74.9154 132.705 73.8386 130.839 74.219 128.538C74.5994 126.237 76.2938 124.371 78.0038 124.371H78.0049Z" fill="#8DC75C"/>
<path d="M181.669 132.3H179.959V141.054H181.669V132.3Z" fill="#A75D31"/>
<path fill-rule="evenodd" clip-rule="evenodd" d="M180.813 137.743C183.801 137.743 186.236 134.465 186.236 130.446C186.236 126.428 183.8 123.15 180.813 123.15C177.827 123.15 175.391 126.427 175.391 130.446C175.391 134.466 177.827 137.743 180.813 137.743Z" fill="#7CB44A"/>
<path fill-rule="evenodd" clip-rule="evenodd" d="M180.044 124.371C181.754 124.371 182.832 126.237 182.452 128.538C182.071 130.839 180.377 132.705 178.666 132.705C176.954 132.705 175.878 130.839 176.258 128.538C176.638 126.237 178.333 124.371 180.044 124.371Z" fill="#8DC75C"/>
<path d="M123.042 132.3H121.332V141.054H123.042V132.3Z" fill="#A75D31"/>
<path fill-rule="evenodd" clip-rule="evenodd" d="M122.186 137.743C125.173 137.743 127.609 134.465 127.609 130.446C127.609 126.428 125.173 123.15 122.186 123.15C119.2 123.15 116.764 126.427 116.764 130.446C116.764 134.466 119.2 137.743 122.186 137.743Z" fill="#7CB44A"/>
<path fill-rule="evenodd" clip-rule="evenodd" d="M121.415 124.371C123.125 124.371 124.203 126.237 123.823 128.538C123.443 130.839 121.747 132.705 120.037 132.705C118.327 132.705 117.248 130.839 117.629 128.538C118.01 126.237 119.704 124.371 121.415 124.371Z" fill="#8DC75C"/>
<path fill-rule="evenodd" clip-rule="evenodd" d="M31.9375 120.869V141.054H30.8574V121.782C30.8574 119.985 31.1868 117.636 32.9179 116.65C34.192 115.923 35.7634 115.923 37.0376 116.65C37.4025 116.858 37.5278 117.318 37.3171 117.678C36.8824 118.42 36.0806 118.878 35.2123 118.878C34.344 118.878 33.5411 118.42 33.1075 117.678C32.217 118.545 31.9375 119.388 31.9375 120.87V120.869Z" fill="white"/>
<path fill-rule="evenodd" clip-rule="evenodd" d="M149.5 120.869V141.054H148.42V121.782C148.42 119.985 148.749 117.636 150.48 116.65C151.756 115.923 153.326 115.923 154.601 116.65C154.966 116.858 155.091 117.318 154.881 117.678C154.446 118.42 153.644 118.878 152.776 118.878C151.908 118.878 151.105 118.42 150.671 117.678C149.782 118.545 149.501 119.388 149.501 120.87L149.5 120.869Z" fill="white"/>
<path fill-rule="evenodd" clip-rule="evenodd" d="M104.604 120.869V141.054H103.523V121.782C103.523 119.985 103.854 117.636 105.584 116.65C106.859 115.923 108.429 115.923 109.705 116.65C110.07 116.858 110.195 117.318 109.984 117.678C109.549 118.42 108.747 118.878 107.879 118.878C107.012 118.878 106.208 118.42 105.774 117.678C104.884 118.545 104.605 119.388 104.605 120.87L104.604 120.869Z" fill="white"/>
<path d="M115.958 11.8801C115.457 5.53467 110.011 0.41052 103.36 0.0255452C95.516 -0.43908 89 5.49484 89 12.889C89 14.9599 89.5148 16.9246 90.436 18.6636L90.4901 18.7698C90.5714 18.9291 90.6663 19.1017 90.7611 19.261L101.815 35.3697C102.113 35.8875 102.886 35.8875 103.184 35.3697L113.533 20.323C115.267 17.9733 116.216 15.0396 115.958 11.8934V11.8801ZM102.506 20.0575C98.3609 20.0575 95.0013 16.845 95.0013 12.889C95.0013 8.93307 98.3609 5.72052 102.506 5.72052C106.652 5.72052 110.011 8.93307 110.011 12.889C110.011 16.845 106.652 20.0575 102.506 20.0575Z" fill="#FF6C6E"/>
</svg>
