<svg width="24" height="24" viewBox="0 0 24 24" fill="none" xmlns="http://www.w3.org/2000/svg">
<path d="M19.8665 14.6152C20.0075 14.4742 20.0855 14.2837 20.0855 14.0842C20.0855 13.8847 20.006 13.6941 19.8665 13.5531L8.19426 1.8854C7.90174 1.59289 7.42621 1.59289 7.13369 1.8854C4.018 5.0011 3.65648 9.8629 6.16463 13.4151C6.05963 13.6731 5.99962 13.9552 5.99962 14.2507C5.99962 14.8537 6.24114 15.3982 6.62816 15.8033L4.78455 19.501H2.99944C2.58541 19.501 2.24939 19.837 2.24939 20.2511V23.2497C2.24939 23.6638 2.58541 23.9998 2.99944 23.9998H13.5001C13.9141 23.9998 14.2501 23.6638 14.2501 23.2497V20.2511C14.2501 19.837 13.9141 19.501 13.5001 19.501H11.715L10.2884 16.6388C11.331 17.0439 12.4215 17.2569 13.5106 17.2569C15.8297 17.2569 18.1279 16.3538 19.8665 14.6152ZM7.97075 16.4723C8.06225 16.4843 8.15376 16.5008 8.24976 16.5008C8.34577 16.5008 8.43728 16.4843 8.52878 16.4723L10.0379 19.501H6.46165L7.97075 16.4723ZM7.49972 14.2507C7.49972 13.8382 7.83574 13.5006 8.24976 13.5006C8.66379 13.5006 8.99981 13.8382 8.99981 14.2507C8.99981 14.6632 8.66379 15.0007 8.24976 15.0007C7.83574 15.0007 7.49972 14.6632 7.49972 14.2507ZM12.75 21.0011V22.4997H3.74948V21.0011H12.75ZM8.24976 12.0005C7.86724 12.0005 7.51322 12.1055 7.1982 12.2736C5.45209 9.55088 5.6351 6.01066 7.69023 3.50251L18.2479 14.0587C16.0173 15.8873 12.9511 16.2503 10.3529 15.0277C10.4429 14.7847 10.4999 14.5252 10.4999 14.2507C10.4999 13.0101 9.49034 12.0005 8.24976 12.0005Z" fill="white"/>
<path d="M13.5001 3C13.0861 3 12.75 3.33602 12.75 3.75005C12.75 4.16407 13.0861 4.50009 13.5001 4.50009C15.5672 4.50009 17.2503 6.1817 17.2503 8.25033C17.2503 8.66435 17.5863 9.00038 18.0004 9.00038C18.4144 9.00038 18.7504 8.66435 18.7504 8.25033C18.7504 5.35515 16.3953 3 13.5001 3Z" fill="white"/>
<path d="M13.5001 0C13.0861 0 12.75 0.336021 12.75 0.750047C12.75 1.16407 13.0861 1.50009 13.5001 1.50009C17.2218 1.50009 20.2505 4.52878 20.2505 8.25052C20.2505 8.66454 20.5865 9.00056 21.0006 9.00056C21.4146 9.00056 21.7506 8.66454 21.7506 8.25052C21.7506 3.70223 18.0499 0 13.5001 0Z" fill="white"/>
</svg>
