<svg width="24" height="24" viewBox="0 0 24 24" fill="none" xmlns="http://www.w3.org/2000/svg">
<path d="M17.6852 24H6.30859C5.91953 24 5.60547 23.6859 5.60547 23.2969V10.3359C5.60547 9.94687 5.91953 9.63281 6.30859 9.63281C6.69766 9.63281 7.01172 9.94687 7.01172 10.3359V22.5938H16.982V10.3359C16.982 9.94687 17.2961 9.63281 17.6852 9.63281C18.0742 9.63281 18.3883 9.94687 18.3883 10.3359V23.2969C18.3883 23.6859 18.0742 24 17.6852 24Z" fill="white"/>
<path d="M14.8965 24C14.5074 24 14.1934 23.6859 14.1934 23.2969V13.1672C14.1934 12.7781 14.5074 12.4641 14.8965 12.4641C15.2855 12.4641 15.5996 12.7781 15.5996 13.1672V23.2969C15.5996 23.6859 15.2855 24 14.8965 24Z" fill="white"/>
<path d="M12.0332 24C11.6441 24 11.3301 23.6859 11.3301 23.2969V13.1672C11.3301 12.7781 11.6441 12.4641 12.0332 12.4641C12.4223 12.4641 12.7363 12.7781 12.7363 13.1672V23.2969C12.7363 23.6859 12.4223 24 12.0332 24Z" fill="white"/>
<path d="M9.17383 24C8.78477 24 8.4707 23.6859 8.4707 23.2969V13.1672C8.4707 12.7781 8.78477 12.4641 9.17383 12.4641C9.56289 12.4641 9.87695 12.7781 9.87695 13.1672V23.2969C9.87695 23.6859 9.56289 24 9.17383 24Z" fill="white"/>
<path d="M18.1543 11.025H5.84492C4.71055 11.025 3.78711 10.1015 3.78711 8.96716V6.78748C3.78711 6.39841 4.10117 6.08435 4.49023 6.08435C4.8793 6.08435 5.19336 6.39841 5.19336 6.78748V8.96716C5.19336 9.3281 5.48398 9.61873 5.84492 9.61873H18.1543C18.5152 9.61873 18.8059 9.3281 18.8059 8.96716V6.78748C18.8059 6.39841 19.1199 6.08435 19.509 6.08435C19.898 6.08435 20.2121 6.39841 20.2121 6.78748V8.96716C20.2121 10.1015 19.2887 11.025 18.1543 11.025Z" fill="white"/>
<path d="M18.8851 7.55625C18.1351 7.55625 17.4179 7.34062 16.7945 6.92344C16.0117 6.40312 15.6789 5.47969 15.9555 4.575C16.232 3.66094 17.0242 3.075 17.9758 3.075C18.9273 3.075 19.0914 3.30469 19.4851 3.7125C19.757 3.98906 19.7523 4.43438 19.4711 4.70625C19.1945 4.97813 18.7492 4.97344 18.4773 4.69219C18.3461 4.55625 18.1633 4.48125 17.9758 4.48125C17.493 4.48125 17.3383 4.86563 17.3008 4.98281C17.268 5.1 17.1836 5.49375 17.5726 5.75156C17.9945 6.03281 18.4867 6.16875 18.9976 6.14531C20.207 6.08906 21.2008 5.1 21.257 3.88594C21.2851 3.22969 21.0555 2.60625 20.6008 2.13281C20.1508 1.65937 19.5367 1.39687 18.8851 1.39687H5.15545C3.83826 1.39687 2.75545 2.44687 2.7367 3.73594C2.72733 4.37812 2.97108 4.97813 3.42108 5.43281C3.87108 5.8875 4.47108 6.14062 5.10858 6.14062C5.74608 6.14062 5.9617 6.02344 6.32733 5.80313C6.75858 5.54531 6.67889 5.12344 6.64608 5.00156C6.61326 4.875 6.45858 4.47188 5.94764 4.47188C5.4367 4.47188 5.58201 4.54219 5.45076 4.67344C5.16951 4.94062 4.7242 4.93125 4.45701 4.65469C4.18983 4.37344 4.1992 3.92812 4.47576 3.66094C4.8742 3.27656 5.39451 3.07031 5.94764 3.07031C6.91795 3.07031 7.73826 3.69844 8.00076 4.63125C8.25858 5.55938 7.8742 6.52031 7.0492 7.0125C6.46326 7.36406 5.79295 7.54688 5.10858 7.54688C4.09139 7.54688 3.13514 7.14844 2.41795 6.42188C1.70076 5.69531 1.31639 4.73438 1.33045 3.71719C1.35858 1.67344 3.0742 0 5.15545 0H18.8851C19.9258 0 20.8961 0.417187 21.618 1.16719C22.3398 1.92188 22.7055 2.91094 22.6586 3.95625C22.6164 4.89375 22.2226 5.77969 21.5523 6.45C20.882 7.12031 19.9961 7.51406 19.0586 7.55625C18.9976 7.55625 18.9367 7.55625 18.8804 7.55625H18.8851Z" fill="white"/>
<path d="M18.8664 7.55627H5.11328C4.72422 7.55627 4.41016 7.24221 4.41016 6.85315C4.41016 6.46409 4.72422 6.15002 5.11328 6.15002H18.8664C19.2555 6.15002 19.5695 6.46409 19.5695 6.85315C19.5695 7.24221 19.2555 7.55627 18.8664 7.55627Z" fill="white"/>
</svg>
