<svg width="24" height="24" viewBox="0 0 24 24" fill="none" xmlns="http://www.w3.org/2000/svg">
<g clip-path="url(#clip0_879_40346)">
<path d="M23.0633 22.5938H0.933594V24H23.0633V22.5938Z" fill="white"/>
<path d="M21.5918 24H16.5293V5.34845H21.5918V24ZM17.9309 22.5938H20.1809V6.7547H17.9309V22.5938Z" fill="white"/>
<path d="M17.9531 23.2969H16.5469V1.85625L7.45312 4.40625V8.82187H6.04688V3.3375L17.9531 0V23.2969Z" fill="white"/>
<path d="M11.1336 24H2.41016V8.11877H11.1289V24H11.1336ZM3.81641 22.5938H9.72266V9.52502H3.81641V22.5938Z" fill="white"/>
<path d="M7.47656 11.7469H6.07031V14.5781H7.47656V11.7469Z" fill="white"/>
<path d="M7.47656 16.9125H6.07031V19.7437H7.47656V16.9125Z" fill="white"/>
<path d="M14.2734 11.7469H12.8672V14.5781H14.2734V11.7469Z" fill="white"/>
<path d="M14.2734 6.57654H12.8672V9.40779H14.2734V6.57654Z" fill="white"/>
<path d="M14.2734 16.9125H12.8672V19.7437H14.2734V16.9125Z" fill="white"/>
</g>
<defs>
<clipPath id="clip0_879_40346">
<rect width="24" height="24" fill="white"/>
</clipPath>
</defs>
</svg>
