<svg width="24" height="24" viewBox="0 0 24 24" fill="none" xmlns="http://www.w3.org/2000/svg">
<g clip-path="url(#clip0_70_1037)">
<path d="M11.9995 0.75C8.27802 0.75 5.24954 3.77848 5.24954 7.49996C5.24954 13.0274 11.2495 18.3404 11.506 18.5639C11.647 18.6884 11.8225 18.7499 11.9995 18.7499C12.1765 18.7499 12.352 18.6884 12.493 18.5639C12.7495 18.3404 18.7495 13.0274 18.7495 7.49996C18.7495 3.77848 15.721 0.75 11.9995 0.75ZM11.9995 16.9709C10.606 15.6119 6.74953 11.4884 6.74953 7.49996C6.74953 4.60498 9.10452 2.24999 11.9995 2.24999C14.8945 2.24999 17.2495 4.60498 17.2495 7.49996C17.2495 11.4885 13.393 15.6119 11.9995 16.9709Z" fill="white"/>
<path d="M11.9995 5.25C10.759 5.25 9.74951 6.25949 9.74951 7.49999C9.74951 8.74048 10.759 9.74997 11.9995 9.74997C13.24 9.74997 14.2495 8.74048 14.2495 7.49999C14.2495 6.25949 13.24 5.25 11.9995 5.25ZM11.9995 8.24998C11.5855 8.24998 11.2495 7.91398 11.2495 7.49999C11.2495 7.08599 11.5855 6.74999 11.9995 6.74999C12.4135 6.74999 12.7495 7.08599 12.7495 7.49999C12.7495 7.91398 12.4135 8.24998 11.9995 8.24998Z" fill="white"/>
<path d="M23.9604 22.2614L20.9604 13.2615C20.8584 12.957 20.5719 12.75 20.2494 12.75H18.7495C18.3355 12.75 17.9995 13.086 17.9995 13.5C17.9995 13.914 18.3355 14.25 18.7495 14.25H19.7095L22.2099 21.7499H1.79055L4.28954 14.25H5.24953C5.66353 14.25 5.99953 13.914 5.99953 13.5C5.99953 13.086 5.66353 12.75 5.24953 12.75H3.74954C3.42704 12.75 3.14055 12.957 3.03855 13.263L0.0385646 22.2629C-0.037935 22.4909 0.00106479 22.7429 0.140564 22.9394C0.281563 23.1344 0.508062 23.2499 0.74956 23.2499H23.2494C23.4909 23.2499 23.7174 23.1344 23.8584 22.9379C23.9994 22.7429 24.0384 22.4909 23.9604 22.2614Z" fill="white"/>
</g>
<defs>
<clipPath id="clip0_70_1037">
<rect width="24" height="24" fill="white"/>
</clipPath>
</defs>
</svg>
