<svg width="24" height="24" viewBox="0 0 24 24" fill="none" xmlns="http://www.w3.org/2000/svg">
<g clip-path="url(#clip0_879_40247)">
<mask id="mask0_879_40247" style="mask-type:luminance" maskUnits="userSpaceOnUse" x="0" y="0" width="24" height="24">
<path d="M24 0H0V24H24V0Z" fill="white"/>
</mask>
<g mask="url(#mask0_879_40247)">
<path d="M11.9987 12.5959C11.8968 12.5959 11.7948 12.5713 11.7034 12.5185L1.81795 6.86919C1.63164 6.76372 1.51562 6.56334 1.51562 6.3489C1.51562 6.13446 1.63164 5.93759 1.81795 5.82861L11.7034 0.182796C11.8862 0.0773328 12.1112 0.0773328 12.2975 0.182796L22.183 5.83213C22.3693 5.93759 22.4853 6.13797 22.4853 6.35242C22.4853 6.56686 22.3693 6.76373 22.183 6.8727L12.2975 12.522C12.2061 12.5748 12.1042 12.5994 12.0022 12.5994L11.9987 12.5959ZM3.31905 6.35242L11.9987 11.3127L20.6784 6.35242L11.9987 1.39211L3.31905 6.35242Z" fill="white"/>
<path d="M11.9987 23.8945C11.8968 23.8945 11.7948 23.8699 11.7034 23.8172L1.81795 18.1678C1.63164 18.0624 1.51562 17.862 1.51562 17.6475V6.35239C1.51562 6.02194 1.7828 5.75476 2.11325 5.75476C2.4437 5.75476 2.71088 6.02194 2.71088 6.35239V17.303L11.9987 22.6114L21.2865 17.303V6.35239C21.2865 6.02194 21.5537 5.75476 21.8842 5.75476C22.2146 5.75476 22.4818 6.02194 22.4818 6.35239V17.6475C22.4818 17.862 22.3658 18.0588 22.1795 18.1678L12.294 23.8172C12.2026 23.8699 12.1007 23.8945 11.9987 23.8945Z" fill="white"/>
<path d="M11.998 23.8945C11.6676 23.8945 11.4004 23.6273 11.4004 23.2969V12.0017C11.4004 11.6713 11.6676 11.4041 11.998 11.4041C12.3285 11.4041 12.5956 11.6713 12.5956 12.0017V23.2969C12.5956 23.6273 12.3285 23.8945 11.998 23.8945Z" fill="white"/>
</g>
</g>
<defs>
<clipPath id="clip0_879_40247">
<rect width="24" height="24" fill="white"/>
</clipPath>
</defs>
</svg>
