<svg width="24" height="24" viewBox="0 0 24 24" fill="none" xmlns="http://www.w3.org/2000/svg">
<g clip-path="url(#clip0_879_40242)">
<path d="M23.9423 23.0163L19.7073 13.1356C19.5959 12.8761 19.3407 12.7078 19.0585 12.7078H16.3689C17.4575 10.8061 18.3527 8.70129 18.3527 6.92041C18.3527 -2.25062 5.64734 -2.36249 5.64734 6.92041C5.64734 8.70129 6.54254 10.8061 7.6311 12.7078H4.94147C4.65912 12.7078 4.40387 12.8761 4.29272 13.1356L0.0576758 23.0163C-0.141543 23.481 0.199766 24.0001 0.706418 24.0001H23.2936C23.7991 24.0001 24.1419 23.4821 23.9423 23.0163ZM18.5929 14.1194L20.6827 18.9947C20.6173 19.0288 13.8157 22.5607 13.767 22.5886H12.2895C12.2521 22.5468 12.5696 22.866 7.9693 18.2662L10.5245 16.9584C11.0455 17.6233 11.4104 18.0457 11.4673 18.1113C11.7486 18.435 12.2516 18.4344 12.5325 18.1113C12.6506 17.9754 14.0894 16.3082 15.5068 14.1194H18.5929ZM12 1.41534C14.3796 1.41534 16.9409 3.13818 16.9409 6.92041C16.9409 10.1006 13.376 14.8333 12 16.5413C10.624 14.8331 7.05908 10.1006 7.05908 6.92041C7.05908 3.11767 9.54053 1.41534 12 1.41534ZM5.40692 14.1194C8.82623 14.1194 8.43768 14.1199 8.49243 14.1183C8.88995 14.7322 9.28912 15.3052 9.66046 15.8149L3.2807 19.0801L5.40692 14.1194ZM2.41003 21.1114L6.64892 18.942L10.296 22.5886H1.77685L2.41003 21.1114ZM16.8263 22.5886L21.2404 20.2957L22.2231 22.5886H16.8263Z" fill="white"/>
<path d="M14.1179 6.35577C14.1179 5.18829 13.1679 4.23834 12.0004 4.23834C10.8328 4.23834 9.88281 5.18829 9.88281 6.35577C9.88281 7.52325 10.8328 8.47302 12.0004 8.47302C13.1679 8.47302 14.1179 7.52325 14.1179 6.35577ZM11.2946 6.35577C11.2946 5.96649 11.6111 5.6499 12.0004 5.6499C12.3895 5.6499 12.7063 5.96649 12.7063 6.35577C12.7063 6.74487 12.3895 7.06146 12.0004 7.06146C11.6111 7.06146 11.2946 6.74487 11.2946 6.35577Z" fill="white"/>
</g>
<defs>
<clipPath id="clip0_879_40242">
<rect width="24" height="24" fill="white"/>
</clipPath>
</defs>
</svg>
