<svg width="24" height="24" viewBox="0 0 24 24" fill="none" xmlns="http://www.w3.org/2000/svg">
<g clip-path="url(#clip0_881_40618)">
<path d="M14.4149 12.8006C14.2349 12.8006 14.0549 12.7322 13.9175 12.5948C13.6429 12.3201 13.6429 11.8748 13.9175 11.6006L14.5574 10.9608C15.8333 9.68493 17.5765 8.98933 19.3375 9.05308C20.0945 9.08074 20.7962 8.88434 21.4238 8.46951C22.0088 8.02984 22.9083 7.00613 22.4864 5.03839C22.4546 4.88934 22.4217 4.7459 22.3885 4.6081L20.2065 6.79004C19.9318 7.06472 19.4865 7.06472 19.2123 6.79004L18.2688 5.84649C18.2468 5.82914 18.2257 5.81039 18.2055 5.79024C18.1868 5.77149 18.1689 5.75133 18.153 5.73071L17.2099 4.78762C17.0782 4.65591 17.0041 4.47685 17.0041 4.2903C17.0041 4.10374 17.0782 3.92516 17.2099 3.79297L19.3919 1.61103C19.2541 1.57775 19.1106 1.54494 18.9616 1.51306C16.9943 1.0912 15.9706 1.9907 15.5304 2.57568C15.1156 3.20284 14.9192 3.905 14.9469 4.662C15.0106 6.42396 14.3155 8.16624 13.0396 9.44213L12.2685 10.2132C11.9939 10.4879 11.5486 10.4879 11.2744 10.2132C10.9997 9.93851 10.9997 9.49369 11.2744 9.21901L12.0454 8.44795C13.0462 7.44721 13.5918 6.08601 13.5421 4.71309C13.5037 3.64907 13.7826 2.66239 14.3713 1.78024C14.3778 1.7704 14.3844 1.76102 14.3914 1.75165C15.4728 0.295297 17.2465 -0.292961 19.2569 0.138272C19.9225 0.281235 20.4976 0.439667 20.9668 0.609347C21.1927 0.691375 21.3615 0.883087 21.414 1.11792C21.4665 1.35276 21.3948 1.5979 21.2246 1.76805L18.7019 4.29077L19.2053 4.79418L19.21 4.79887L19.7101 5.29901L22.2328 2.77629C22.403 2.60614 22.6481 2.5349 22.883 2.58693C23.1178 2.63896 23.3095 2.8077 23.3911 3.03363C23.5608 3.50236 23.7192 4.07796 23.8622 4.74309C24.2934 6.75395 23.7056 8.52716 22.2488 9.60853C22.2394 9.61556 22.23 9.62212 22.2202 9.62868C21.3385 10.2174 20.3514 10.4968 19.2873 10.4579C17.9149 10.4087 16.5532 10.9538 15.5525 11.9545L14.9127 12.5943C14.7753 12.7317 14.5953 12.8001 14.4153 12.8001L14.4149 12.8006Z" fill="white"/>
<path d="M3.62142 23.9995C2.6938 23.9995 1.76618 23.6466 1.0598 22.9402C0.376392 22.2568 0 21.347 0 20.3786C0 19.4102 0.376392 18.5004 1.0598 17.817C1.60353 17.2732 2.2921 16.9226 3.05097 16.8026C3.54783 16.7239 3.98703 16.5059 4.32077 16.1722L9.12667 11.3663C9.40135 11.0916 9.84618 11.0916 10.1209 11.3663C10.3955 11.641 10.3955 12.0858 10.1209 12.3605L5.31495 17.1664C4.76981 17.7115 4.0625 18.0659 3.27034 18.1915C2.80677 18.2646 2.38584 18.4793 2.05351 18.8112C1.63587 19.2288 1.40573 19.7856 1.40573 20.3786C1.40573 20.9715 1.63587 21.5284 2.05351 21.946C2.91785 22.8104 4.32405 22.8104 5.18839 21.946C5.52025 21.6137 5.73493 21.1932 5.80805 20.7292C5.93321 19.9366 6.28757 19.2297 6.83317 18.6846L11.6025 13.9152C11.8772 13.6406 12.3225 13.6406 12.5967 13.9152C12.8714 14.1899 12.8714 14.6352 12.5967 14.9094L7.82735 19.6788C7.49361 20.0125 7.27565 20.4517 7.19691 20.9486C7.07691 21.7079 6.7263 22.3965 6.18257 22.9397C5.47619 23.6461 4.54857 23.9991 3.62095 23.9991L3.62142 23.9995Z" fill="white"/>
<path d="M3.65232 21.1019C3.62935 21.1019 3.60591 21.1009 3.58294 21.0986C3.56044 21.0963 3.53748 21.093 3.51498 21.0883C3.49248 21.0836 3.46998 21.078 3.44795 21.0714C3.42639 21.0648 3.40436 21.0569 3.38326 21.048C3.36217 21.0391 3.34155 21.0292 3.32139 21.0189C3.30077 21.0077 3.28108 20.9959 3.26186 20.9833C3.24311 20.9706 3.22436 20.957 3.20655 20.9425C3.18874 20.928 3.1714 20.912 3.15499 20.8961C3.13906 20.8797 3.12312 20.8624 3.10859 20.8445C3.09406 20.8267 3.08046 20.8085 3.06781 20.7892C3.05515 20.77 3.04297 20.7503 3.03265 20.7302C3.02187 20.71 3.01203 20.6889 3.00312 20.6678C2.99422 20.6467 2.98672 20.6247 2.97969 20.6031C2.97312 20.5811 2.9675 20.5586 2.96281 20.5361C2.95859 20.5136 2.95484 20.4907 2.9525 20.4682C2.95016 20.4452 2.94922 20.4217 2.94922 20.3988C2.94922 20.3758 2.95016 20.3528 2.9525 20.3299C2.95484 20.3069 2.95859 20.2839 2.96281 20.2614C2.9675 20.2389 2.97312 20.2164 2.97969 20.1944C2.98672 20.1729 2.99422 20.1508 3.00312 20.1297C3.01203 20.1086 3.02187 20.088 3.03265 20.0679C3.04297 20.0472 3.05515 20.0275 3.06781 20.0083C3.08046 19.9896 3.09406 19.9708 3.10859 19.953C3.12312 19.9352 3.13906 19.9179 3.15499 19.9015C3.1714 19.8855 3.18874 19.8696 3.20655 19.8551C3.22436 19.8405 3.24311 19.8269 3.26186 19.8143C3.28108 19.8016 3.30077 19.7899 3.32139 19.7791C3.34155 19.7683 3.36217 19.7585 3.38326 19.7496C3.40436 19.7407 3.42639 19.7332 3.44795 19.7262C3.46998 19.7196 3.49248 19.714 3.51498 19.7093C3.53748 19.7051 3.56044 19.7013 3.58294 19.699C3.62888 19.6947 3.67575 19.6947 3.72169 19.699C3.74419 19.7013 3.76716 19.7051 3.78965 19.7093C3.81215 19.714 3.83465 19.7196 3.85668 19.7262C3.87825 19.7332 3.90028 19.7407 3.92137 19.7496C3.94246 19.7585 3.96309 19.7683 3.98371 19.7791C4.00387 19.7899 4.02355 19.8016 4.04277 19.8143C4.06199 19.8269 4.08027 19.8405 4.09808 19.8551C4.11589 19.8696 4.13324 19.8855 4.14964 19.9015C4.16558 19.9179 4.18151 19.9352 4.19605 19.953C4.21058 19.9708 4.22417 19.9896 4.23682 20.0083C4.24948 20.0275 4.26167 20.0472 4.27245 20.0679C4.28276 20.088 4.29307 20.1086 4.30151 20.1297C4.31042 20.1508 4.31838 20.1729 4.32495 20.1944C4.33151 20.2164 4.33713 20.2389 4.34182 20.2614C4.34604 20.2839 4.34979 20.3069 4.35213 20.3299C4.35448 20.3528 4.35541 20.3758 4.35541 20.3988C4.35541 20.4217 4.35448 20.4452 4.35213 20.4682C4.34979 20.4907 4.34604 20.5136 4.34182 20.5361C4.33713 20.5586 4.33151 20.5811 4.32495 20.6031C4.31838 20.6247 4.31042 20.6467 4.30151 20.6678C4.29307 20.6889 4.28276 20.71 4.27245 20.7302C4.26167 20.7503 4.24948 20.77 4.23682 20.7892C4.22417 20.8085 4.21058 20.8267 4.19605 20.8445C4.18151 20.8624 4.16558 20.8797 4.14964 20.8961C4.13324 20.912 4.11589 20.928 4.09808 20.9425C4.08027 20.957 4.06199 20.9706 4.04277 20.9833C4.02355 20.9959 4.00387 21.0077 3.98371 21.0189C3.96309 21.0292 3.94246 21.0391 3.92137 21.048C3.90028 21.0569 3.87825 21.0648 3.85668 21.0714C3.83465 21.078 3.81215 21.0836 3.78965 21.0883C3.76716 21.093 3.74419 21.0963 3.72169 21.0986C3.69872 21.1009 3.67528 21.1019 3.65232 21.1019Z" fill="white"/>
<path d="M13.3669 17.3112C12.8246 17.3112 12.2827 17.105 11.8702 16.692L11.8632 16.685C11.0378 15.8596 11.0378 14.5166 11.8632 13.6912L13.6913 11.8632C14.5167 11.0377 15.8596 11.0377 16.6851 11.8632L16.6921 11.8702C17.5175 12.6956 17.5175 14.0385 16.6921 14.864L14.864 16.692C14.4516 17.1045 13.9092 17.3112 13.3674 17.3112H13.3669ZM15.1879 12.6502C15.0061 12.6502 14.8237 12.7195 14.6855 12.8578L12.8574 14.6859C12.5804 14.9629 12.5804 15.4138 12.8574 15.6908L12.8644 15.6979C13.1414 15.9749 13.5924 15.9749 13.8694 15.6979L15.6974 13.8698C15.9745 13.5928 15.9745 13.1419 15.6974 12.8648L15.6904 12.8578C15.5517 12.7191 15.3698 12.6502 15.1879 12.6502Z" fill="white"/>
<path d="M20.5204 23.9986C19.6293 23.9986 18.7387 23.6597 18.06 22.981L14.1944 19.1154C13.5466 18.4676 13.1847 17.6056 13.1758 16.6887C13.1739 16.4998 13.248 16.3184 13.3816 16.1849L16.1837 13.3828C16.3154 13.2511 16.4944 13.177 16.681 13.177C16.6833 13.177 16.6857 13.177 16.6876 13.177C17.6044 13.1859 18.4664 13.5473 19.1142 14.1951L22.9798 18.0607C24.3363 19.4172 24.3363 21.6245 22.9798 22.981C22.3016 23.6592 21.4105 23.9986 20.5194 23.9986H20.5204ZM14.6031 16.9522C14.6659 17.3937 14.8689 17.801 15.1885 18.1212L19.0542 21.9868C19.8623 22.7949 21.1775 22.7949 21.9856 21.9868C22.7937 21.1787 22.7937 19.8635 21.9856 19.0554L18.12 15.1897C17.7999 14.8701 17.3925 14.6671 16.951 14.6043L14.6026 16.9526L14.6031 16.9522Z" fill="white"/>
<path d="M12.2458 15.006C12.0658 15.006 11.8858 14.9376 11.7484 14.8002L3.81515 6.86648C3.68343 6.73477 3.60938 6.55571 3.60938 6.36915C3.60938 6.1826 3.68343 6.00401 3.81515 5.87183L5.87147 3.8155C6.14615 3.54083 6.59145 3.54083 6.86565 3.8155L14.7994 11.7488C14.9311 11.8805 15.0052 12.0596 15.0052 12.2461C15.0052 12.4327 14.9311 12.6113 14.7994 12.7434L12.7431 14.7998C12.6057 14.9371 12.4257 15.0055 12.2458 15.0055V15.006ZM5.30665 6.36915L12.2458 13.3083L13.3079 12.2461L6.3688 5.30701L5.30665 6.36915Z" fill="white"/>
<path d="M4.31169 7.07224C4.22591 7.07224 4.13966 7.05678 4.0567 7.02443L2.09646 6.26134C1.94318 6.20181 1.81569 6.09025 1.73647 5.94635L0.0879441 2.96756C-0.063925 2.69335 -0.0156456 2.35165 0.206064 2.12994L2.12927 0.20673C2.35098 -0.0149797 2.69222 -0.0627903 2.96689 0.0890788L5.94568 1.73761C6.08958 1.81729 6.20067 1.94479 6.26067 2.09759L7.02377 4.05783C7.12501 4.31751 7.06267 4.61281 6.8658 4.81014L4.80948 6.86647C4.67495 7.001 4.49543 7.07224 4.31215 7.07224H4.31169ZM2.84315 5.0431L4.13872 5.54746L5.54586 4.14033L5.0415 2.84475L2.74846 1.5759L1.57382 2.75054L2.84268 5.04357L2.84315 5.0431Z" fill="white"/>
</g>
<defs>
<clipPath id="clip0_881_40618">
<rect width="24" height="23.9995" fill="white"/>
</clipPath>
</defs>
</svg>
