<svg width="24" height="24" viewBox="0 0 24 24" fill="none" xmlns="http://www.w3.org/2000/svg">
<g clip-path="url(#clip0_70_1082)">
<path d="M23.6696 0.128998C23.4641 -0.0104998 23.2001 -0.0389994 22.9706 0.0539992L15.7498 2.94145L8.54237 0.0584991C8.54237 0.0584991 8.54237 0.0584991 8.54087 0.0584991L8.52887 0.0539992C8.35037 -0.0179997 8.15087 -0.0179997 7.97238 0.0539992L7.95888 0.0584991C7.95888 0.0584991 7.95888 0.0584991 7.95738 0.0584991L0.470993 3.05395C0.187497 3.16795 0 3.44245 0 3.74994V17.2497C0 17.4987 0.122998 17.7312 0.328495 17.8707C0.454493 17.9562 0.601491 17.9997 0.749988 17.9997C0.844487 17.9997 0.937485 17.9817 1.02748 17.9457L5.61741 16.1157C6.00291 15.9628 6.1904 15.5263 6.03591 15.1423C5.88291 14.7568 5.44492 14.5693 5.06242 14.7223L1.49998 16.1427V4.25693L7.49988 1.85697V7.55988C7.49988 7.97388 7.83588 8.30987 8.24987 8.30987C8.66387 8.30987 8.99986 7.97388 8.99986 7.55988V1.85847L14.9998 4.25843V5.38492C14.9998 5.79891 15.3358 6.1349 15.7498 6.1349C16.1637 6.1349 16.4997 5.79891 16.4997 5.38492V4.25843L22.4996 1.85847V14.2498C22.4996 14.6638 22.8356 14.9998 23.2496 14.9998C23.6636 14.9998 23.9996 14.6638 23.9996 14.2498V0.749988C23.9996 0.500992 23.8751 0.268496 23.6696 0.128998Z" fill="white"/>
<path d="M23.7806 22.7203L19.4997 18.4393C20.4237 17.2843 20.9997 15.8399 20.9997 14.2499C20.9997 10.5285 17.9712 7.5 14.2498 7.5C10.5283 7.5 7.49988 10.5285 7.49988 14.2499C7.49988 17.9713 10.5283 20.9998 14.2498 20.9998C15.8397 20.9998 17.2842 20.4238 18.4392 19.4998L22.7186 23.7792C22.8656 23.9262 23.0576 23.9997 23.2496 23.9997C23.4416 23.9997 23.6336 23.9262 23.7806 23.7807C24.0731 23.4883 24.0731 23.0128 23.7806 22.7203ZM14.2498 19.4998C11.3548 19.4998 8.99985 17.1448 8.99985 14.2499C8.99985 11.3549 11.3548 8.99998 14.2498 8.99998C17.1447 8.99998 19.4997 11.3549 19.4997 14.2499C19.4997 17.1448 17.1447 19.4998 14.2498 19.4998Z" fill="white"/>
</g>
<defs>
<clipPath id="clip0_70_1082">
<rect width="24" height="24" fill="white"/>
</clipPath>
</defs>
</svg>
