<svg width="24" height="24" viewBox="0 0 24 24" fill="none" xmlns="http://www.w3.org/2000/svg">
<g clip-path="url(#clip0_70_1096)">
<path d="M9 0C4.0365 0 0 4.0365 0 9C0 15.2385 8.124 23.4345 8.469 23.781C8.616 23.9265 8.808 24 9 24C9.192 24 9.384 23.9265 9.531 23.781C9.531 23.781 10.191 23.1225 11.1255 22.0485C11.3985 21.7365 11.3655 21.2625 11.0535 20.9895C10.743 20.7195 10.2705 20.751 9.9945 21.0615C9.6015 21.5115 9.2595 21.8865 9 22.164C7.209 20.25 1.5 13.7655 1.5 9C1.5 4.8645 4.8645 1.5 9 1.5C13.1355 1.5 16.5 4.8645 16.5 9C16.5 9.2145 16.488 9.4425 16.4505 9.6705C16.3815 10.0785 16.656 10.4655 17.0655 10.5345C17.469 10.599 17.862 10.3275 17.9295 9.9195C17.982 9.6075 18 9.2955 18 9C18 4.0365 13.9635 0 9 0Z" fill="white"/>
<path d="M9 4.5C6.519 4.5 4.5 6.519 4.5 9C4.5 11.481 6.519 13.5 9 13.5C11.481 13.5 13.5 11.481 13.5 9C13.5 6.519 11.481 4.5 9 4.5ZM9 12C7.3455 12 6 10.6545 6 9C6 7.3455 7.3455 6 9 6C10.6545 6 12 7.3455 12 9C12 10.6545 10.6545 12 9 12Z" fill="white"/>
<path d="M18 12C14.691 12 12 14.691 12 18C12 21.309 14.691 24 18 24C21.309 24 24 21.309 24 18C24 14.691 21.309 12 18 12ZM18 22.5C15.519 22.5 13.5 20.481 13.5 18C13.5 15.519 15.519 13.5 18 13.5C20.481 13.5 22.5 15.519 22.5 18C22.5 20.481 20.481 22.5 18 22.5Z" fill="white"/>
<path d="M20.7825 15.9706C20.49 15.6781 20.013 15.6766 19.719 15.9691L17.25 18.4396L16.281 17.4706C15.9885 17.1781 15.513 17.1781 15.2205 17.4706C14.928 17.7631 14.928 18.2386 15.2205 18.5311L16.7205 20.0311C16.8675 20.1781 17.0595 20.2501 17.2515 20.2501C17.4435 20.2501 17.6355 20.1766 17.7825 20.0311L20.7825 17.0311C21.075 16.7386 21.075 16.2631 20.7825 15.9706Z" fill="white"/>
</g>
<defs>
<clipPath id="clip0_70_1096">
<rect width="24" height="24" fill="white"/>
</clipPath>
</defs>
</svg>
