<svg width="24" height="24" viewBox="0 0 24 24" fill="none" xmlns="http://www.w3.org/2000/svg">
<path d="M18 2.25V0.75C18 0.336 17.664 0 17.25 0H6.75C6.336 0 6 0.336 6 0.75V2.25C6 3.2265 6.6285 4.0515 7.5 4.362V10.638C6.6285 10.9485 6 11.7735 6 12.75V14.25C6 14.664 6.336 15 6.75 15H9.864L11.259 23.373C11.3205 23.7345 11.6325 24 12 24C12.3675 24 12.6795 23.7345 12.7395 23.373L14.136 15H17.25C17.664 15 18 14.664 18 14.25V12.75C18 11.7735 17.3715 10.9485 16.5 10.638V4.362C17.3715 4.0515 18 3.2265 18 2.25ZM12 18.6885L11.385 15H12.615L12 18.6885ZM16.5 13.5H7.5V12.75C7.5 12.3375 7.836 12 8.25 12H15.75C16.164 12 16.5 12.3375 16.5 12.75V13.5ZM9 10.5V4.5H15V10.5H9ZM15.75 3H8.25C7.836 3 7.5 2.6625 7.5 2.25V1.5H16.5V2.25C16.5 2.6625 16.164 3 15.75 3Z" fill="white"/>
</svg>
