<svg width="24" height="24" viewBox="0 0 24 24" fill="none" xmlns="http://www.w3.org/2000/svg">
<g clip-path="url(#clip0_879_40341)">
<path d="M1.76367 0.705891C1.76367 0.316031 2.0797 0 2.46956 0C2.85942 0 3.17545 0.316031 3.17545 0.705891V23.2941C3.17545 23.684 2.85942 24 2.46956 24C2.0797 24 1.76367 23.684 1.76367 23.2941V0.705891ZM8.82248 1.41178C8.82248 1.02192 9.13852 0.705891 9.52838 0.705891C9.91823 0.705891 10.2343 1.02192 10.2343 1.41178V3.52941C10.2343 3.91927 9.91823 4.2353 9.52838 4.2353C9.13852 4.2353 8.82248 3.91927 8.82248 3.52941V1.41178ZM8.82248 14.1176C8.82248 13.7278 9.13852 13.4117 9.52838 13.4117C9.91823 13.4117 10.2343 13.7278 10.2343 14.1176V16.2352C10.2343 16.6251 9.91823 16.9411 9.52838 16.9411C9.13852 16.9411 8.82248 16.6251 8.82248 16.2352V14.1176ZM8.82248 7.7647C8.82248 7.37484 9.13852 7.05881 9.52838 7.05881C9.91823 7.05881 10.2343 7.37484 10.2343 7.7647V9.88233C10.2343 10.2722 9.91823 10.5882 9.52838 10.5882C9.13852 10.5882 8.82248 10.2722 8.82248 9.88233V7.7647ZM21.1467 12.1121C21.4746 11.9013 21.9113 11.9962 22.1222 12.3242C22.333 12.6521 22.2381 13.0889 21.9101 13.2997C18.8121 15.2913 17.2931 17.8952 17.2931 21.1765V23.2942C17.2931 23.684 16.9771 24 16.5872 24C16.1974 24 15.8813 23.684 15.8813 23.2942V21.1765C15.8813 17.399 17.6565 14.3558 21.1467 12.1121ZM17.2931 4.09495C18.3732 3.03619 19.6909 2.16188 21.2417 1.47263C21.5979 1.31428 22.0151 1.47473 22.1734 1.83098C22.3318 2.18723 22.1713 2.60437 21.8151 2.76272C19.8088 3.65442 18.2621 4.86966 17.1616 6.4103C16.7625 6.96909 15.8813 6.68672 15.8813 6V0.705891C15.8813 0.316031 16.1974 0 16.5872 0C16.977 0 17.2931 0.316031 17.2931 0.705891V4.09495ZM8.82248 20.4706C8.82248 20.0807 9.13852 19.7647 9.52838 19.7647C9.91823 19.7647 10.2343 20.0807 10.2343 20.4706V22.5882C10.2343 22.9781 9.91823 23.2941 9.52838 23.2941C9.13852 23.2941 8.82248 22.9781 8.82248 22.5882V20.4706Z" fill="white" stroke="white" stroke-width="0.2"/>
</g>
<defs>
<clipPath id="clip0_879_40341">
<rect width="24" height="24" fill="white"/>
</clipPath>
</defs>
</svg>
