<svg width="24" height="24" viewBox="0 0 24 24" fill="none" xmlns="http://www.w3.org/2000/svg">
<g clip-path="url(#clip0_879_40303)">
<path d="M23.2969 24H0.703125C0.314062 24 0 23.6859 0 23.2969V20.3672C0 19.9781 0.314062 19.6641 0.703125 19.6641H23.2969C23.6859 19.6641 24 19.9781 24 20.3672V23.2969C24 23.6859 23.6859 24 23.2969 24ZM1.40625 22.5938H22.5938V21.0703H1.40625V22.5938Z" fill="white"/>
<path d="M23.2969 10.1672H0.703125C0.314062 10.1672 0 9.85311 0 9.46405V6.53436C0 6.1453 0.314062 5.83124 0.703125 5.83124H23.2969C23.6859 5.83124 24 6.1453 24 6.53436V9.46405C24 9.85311 23.6859 10.1672 23.2969 10.1672ZM1.40625 8.76092H22.5938V7.23749H1.40625V8.76092Z" fill="white"/>
<path d="M22.491 7.24219C22.102 7.24219 21.7879 6.92812 21.7879 6.53906V4.30781L12.0004 1.43438L2.21758 4.22344L2.23164 6.53437C2.23164 6.92344 1.92227 7.2375 1.5332 7.24219C1.14883 7.24219 0.830078 6.93281 0.825391 6.54375L0.806641 3.69844C0.806641 3.38438 1.01289 3.10313 1.31758 3.01875L11.8082 0.028125C11.9348 -0.009375 12.0707 -0.009375 12.1973 0.028125L22.6879 3.10781C22.9879 3.19688 23.1941 3.46875 23.1941 3.78281V6.53906C23.1941 6.92812 22.8801 7.24219 22.491 7.24219Z" fill="white"/>
<path d="M22.0918 13.125H17.4746C17.0855 13.125 16.7715 12.8109 16.7715 12.4219V9.46405C16.7715 9.07499 17.0855 8.76093 17.4746 8.76093C17.8637 8.76093 18.1777 9.07499 18.1777 9.46405V11.7187H21.3887V9.46405C21.3887 9.07499 21.7027 8.76093 22.0918 8.76093C22.4809 8.76093 22.7949 9.07499 22.7949 9.46405V12.4219C22.7949 12.8109 22.4809 13.125 22.0918 13.125Z" fill="white"/>
<path d="M18.3145 21.0703C17.9254 21.0703 17.6113 20.7563 17.6113 20.3672V12.4219C17.6113 12.0328 17.9254 11.7188 18.3145 11.7188C18.7035 11.7188 19.0176 12.0328 19.0176 12.4219V20.3672C19.0176 20.7563 18.7035 21.0703 18.3145 21.0703Z" fill="white"/>
<path d="M21.2578 21.0703C20.8687 21.0703 20.5547 20.7563 20.5547 20.3672V12.4219C20.5547 12.0328 20.8687 11.7188 21.2578 11.7188C21.6469 11.7188 21.9609 12.0328 21.9609 12.4219V20.3672C21.9609 20.7563 21.6469 21.0703 21.2578 21.0703Z" fill="white"/>
<path d="M14.3105 13.125H9.69336C9.3043 13.125 8.99023 12.8109 8.99023 12.4219V9.46405C8.99023 9.07499 9.3043 8.76093 9.69336 8.76093C10.0824 8.76093 10.3965 9.07499 10.3965 9.46405V11.7187H13.6074V9.46405C13.6074 9.07499 13.9215 8.76093 14.3105 8.76093C14.6996 8.76093 15.0137 9.07499 15.0137 9.46405V12.4219C15.0137 12.8109 14.6996 13.125 14.3105 13.125Z" fill="white"/>
<path d="M10.5273 21.0703C10.1383 21.0703 9.82422 20.7563 9.82422 20.3672V12.4219C9.82422 12.0328 10.1383 11.7188 10.5273 11.7188C10.9164 11.7188 11.2305 12.0328 11.2305 12.4219V20.3672C11.2305 20.7563 10.9164 21.0703 10.5273 21.0703Z" fill="white"/>
<path d="M13.4707 21.0703C13.0816 21.0703 12.7676 20.7563 12.7676 20.3672V12.4219C12.7676 12.0328 13.0816 11.7188 13.4707 11.7188C13.8598 11.7188 14.1738 12.0328 14.1738 12.4219V20.3672C14.1738 20.7563 13.8598 21.0703 13.4707 21.0703Z" fill="white"/>
<path d="M6.52539 13.125H1.9082C1.51914 13.125 1.20508 12.8109 1.20508 12.4219V9.46405C1.20508 9.07499 1.51914 8.76093 1.9082 8.76093C2.29727 8.76093 2.61133 9.07499 2.61133 9.46405V11.7187H5.82227V9.46405C5.82227 9.07499 6.13633 8.76093 6.52539 8.76093C6.91445 8.76093 7.22852 9.07499 7.22852 9.46405V12.4219C7.22852 12.8109 6.91445 13.125 6.52539 13.125Z" fill="white"/>
<path d="M2.74219 21.0703C2.35312 21.0703 2.03906 20.7563 2.03906 20.3672V12.4219C2.03906 12.0328 2.35312 11.7188 2.74219 11.7188C3.13125 11.7188 3.44531 12.0328 3.44531 12.4219V20.3672C3.44531 20.7563 3.13125 21.0703 2.74219 21.0703Z" fill="white"/>
<path d="M5.68555 21.0703C5.29648 21.0703 4.98242 20.7563 4.98242 20.3672V12.4219C4.98242 12.0328 5.29648 11.7188 5.68555 11.7188C6.07461 11.7188 6.38867 12.0328 6.38867 12.4219V20.3672C6.38867 20.7563 6.07461 21.0703 5.68555 21.0703Z" fill="white"/>
<path d="M12 4.58906C11.8125 4.58906 11.6344 4.51406 11.5031 4.38281C11.4891 4.36406 11.4703 4.35 11.4562 4.33125C11.4422 4.3125 11.4281 4.29375 11.4141 4.275C11.4 4.25625 11.3906 4.2375 11.3766 4.21406C11.3625 4.19062 11.3578 4.17187 11.3484 4.15312C11.3391 4.13437 11.3297 4.11094 11.325 4.0875C11.3203 4.06406 11.3109 4.04062 11.3062 4.02187C11.3062 3.99844 11.2969 3.975 11.2969 3.95156C11.2969 3.92812 11.2969 3.90469 11.2969 3.88125C11.2969 3.85781 11.2969 3.83437 11.2969 3.81094C11.2969 3.7875 11.3016 3.76406 11.3062 3.74062C11.3062 3.71719 11.3156 3.69844 11.325 3.675C11.3297 3.65156 11.3391 3.63281 11.3484 3.60937C11.3578 3.58594 11.3672 3.56719 11.3766 3.54844C11.3859 3.52969 11.4 3.50625 11.4141 3.4875C11.4281 3.46875 11.4422 3.45 11.4562 3.43125C11.4703 3.4125 11.4844 3.39375 11.5031 3.37969C11.6484 3.23437 11.8641 3.15469 12.0703 3.17812C12.0938 3.17812 12.1172 3.18281 12.1406 3.1875C12.1641 3.1875 12.1875 3.19687 12.2062 3.20625C12.2297 3.21094 12.2484 3.22031 12.2719 3.22969C12.2906 3.23906 12.3141 3.24844 12.3328 3.25781C12.3516 3.26719 12.375 3.28125 12.3937 3.29531C12.4125 3.30937 12.4313 3.32344 12.45 3.3375C12.4688 3.35156 12.4875 3.36562 12.5016 3.38437C12.5156 3.39844 12.5344 3.41719 12.5484 3.43594C12.5625 3.45469 12.5766 3.47344 12.5906 3.49219C12.6047 3.51094 12.6141 3.52969 12.6281 3.55312C12.6375 3.57187 12.6469 3.59531 12.6562 3.61406C12.6656 3.63281 12.675 3.65625 12.6797 3.67969C12.6844 3.70312 12.6937 3.72656 12.6984 3.74531C12.6984 3.76875 12.7078 3.79219 12.7078 3.81562C12.7078 3.83906 12.7078 3.8625 12.7078 3.88594C12.7078 3.90937 12.7078 3.93281 12.7078 3.95625C12.7078 3.97969 12.7031 4.00312 12.6984 4.02656C12.6937 4.05 12.6891 4.06875 12.6797 4.09219C12.675 4.11562 12.6656 4.13437 12.6562 4.15781C12.6469 4.18125 12.6375 4.2 12.6281 4.21875C12.6187 4.2375 12.6047 4.26094 12.5906 4.27969C12.5766 4.29844 12.5625 4.31719 12.5484 4.33594C12.5344 4.35469 12.5203 4.36875 12.5016 4.3875C12.4875 4.40625 12.4688 4.42031 12.45 4.43437C12.4313 4.44844 12.4125 4.4625 12.3937 4.47656C12.375 4.49062 12.3563 4.5 12.3328 4.51406C12.3141 4.52344 12.2906 4.53281 12.2719 4.54219C12.2484 4.55156 12.2297 4.56094 12.2062 4.56562C12.1828 4.57031 12.1641 4.57969 12.1406 4.58437C12.1172 4.58906 12.0938 4.59375 12.0703 4.59375C12.0469 4.59375 12.0234 4.59375 12 4.59375V4.58906Z" fill="white"/>
</g>
<defs>
<clipPath id="clip0_879_40303">
<rect width="24" height="24" fill="white"/>
</clipPath>
</defs>
</svg>
