<svg width="18" height="18" viewBox="0 0 18 18" fill="none" xmlns="http://www.w3.org/2000/svg">
<path fill-rule="evenodd" clip-rule="evenodd" d="M3.75 2.0625C3.64645 2.0625 3.5625 2.14645 3.5625 2.25V5.625C3.5625 5.93566 3.31066 6.1875 3 6.1875C2.68934 6.1875 2.4375 5.93566 2.4375 5.625V2.25C2.4375 1.52513 3.02513 0.9375 3.75 0.9375H14.25C14.9749 0.9375 15.5625 1.52513 15.5625 2.25V15.75C15.5625 16.4749 14.9749 17.0625 14.25 17.0625H3.75C3.02513 17.0625 2.4375 16.4749 2.4375 15.75V12.375C2.4375 12.0644 2.68934 11.8125 3 11.8125C3.31066 11.8125 3.5625 12.0644 3.5625 12.375V15.75C3.5625 15.8536 3.64644 15.9375 3.75 15.9375H14.25C14.3536 15.9375 14.4375 15.8536 14.4375 15.75V2.25C14.4375 2.14644 14.3536 2.0625 14.25 2.0625H3.75Z" fill="#239054"/>
<path fill-rule="evenodd" clip-rule="evenodd" d="M11.0625 5.625C11.0625 5.31434 11.3144 5.0625 11.625 5.0625H12.75C13.0606 5.0625 13.3125 5.31434 13.3125 5.625C13.3125 5.93566 13.0606 6.1875 12.75 6.1875H11.625C11.3144 6.1875 11.0625 5.93566 11.0625 5.625Z" fill="#239054"/>
<path fill-rule="evenodd" clip-rule="evenodd" d="M9.9375 8.625C9.9375 8.31435 10.1894 8.0625 10.5 8.0625H12.75C13.0607 8.0625 13.3125 8.31435 13.3125 8.625C13.3125 8.93565 13.0607 9.1875 12.75 9.1875H10.5C10.1894 9.1875 9.9375 8.93565 9.9375 8.625Z" fill="#239054"/>
<path fill-rule="evenodd" clip-rule="evenodd" d="M9.9375 11.625C9.9375 11.3144 10.1894 11.0625 10.5 11.0625H12.75C13.0607 11.0625 13.3125 11.3144 13.3125 11.625C13.3125 11.9356 13.0607 12.1875 12.75 12.1875H10.5C10.1894 12.1875 9.9375 11.9356 9.9375 11.625Z" fill="#239054"/>
<path fill-rule="evenodd" clip-rule="evenodd" d="M0.9375 5.625C0.9375 5.31434 1.18934 5.0625 1.5 5.0625H8.25C8.56065 5.0625 8.8125 5.31434 8.8125 5.625V12.375C8.8125 12.6856 8.56065 12.9375 8.25 12.9375H1.5C1.18934 12.9375 0.9375 12.6856 0.9375 12.375V5.625ZM2.0625 6.1875V11.8125H7.6875V6.1875H2.0625Z" fill="#239054"/>
<path fill-rule="evenodd" clip-rule="evenodd" d="M3.35225 7.47725C3.57192 7.25758 3.92808 7.25758 4.14775 7.47725L6.39775 9.72727C6.61741 9.94695 6.61741 10.303 6.39775 10.5227C6.17808 10.7424 5.82192 10.7424 5.60225 10.5227L3.35225 8.27272C3.13258 8.05305 3.13258 7.69695 3.35225 7.47725Z" fill="#239054"/>
<path fill-rule="evenodd" clip-rule="evenodd" d="M6.39775 7.47725C6.61741 7.69695 6.61741 8.05305 6.39775 8.27272L4.14775 10.5227C3.92808 10.7424 3.57192 10.7424 3.35225 10.5227C3.13258 10.303 3.13258 9.94695 3.35225 9.72727L5.60225 7.47725C5.82192 7.25758 6.17808 7.25758 6.39775 7.47725Z" fill="#239054"/>
</svg>
